<svg width="40" height="40" viewBox="0 0 40 40" fill="none" xmlns="http://www.w3.org/2000/svg">
<path d="M16.6669 28.3331H23.3336L26.7686 17.3398C27.2515 15.7954 27.3524 14.1569 27.0627 12.5649C26.773 10.9729 26.1013 9.47503 25.1052 8.19979L20.7886 2.67479C20.695 2.55496 20.5754 2.45803 20.4388 2.39136C20.3022 2.32469 20.1522 2.29004 20.0002 2.29004C19.8482 2.29004 19.6982 2.32469 19.5616 2.39136C19.425 2.45803 19.3054 2.55496 19.2119 2.67479L14.8952 8.19979C13.8992 9.47503 13.2275 10.9729 12.9378 12.5649C12.648 14.1569 12.749 15.7954 13.2319 17.3398L16.6669 28.3331ZM16.6669 28.3331L11.6669 31.6665C11.6669 31.6665 8.33356 24.9998 14.1669 20.8331M16.6669 33.3331C16.6669 36.6665 20.0002 38.3331 20.0002 38.3331C20.0002 38.3331 23.3336 36.6665 23.3336 33.3331M26.5519 20.8331C32.3852 24.9998 29.0519 31.6665 29.0519 31.6665L24.0519 28.3331" stroke="#1882D6" stroke-width="2" stroke-linecap="round" stroke-linejoin="round"/>
<path d="M20.0052 18.3337C19.1212 18.3337 18.2733 17.9825 17.6482 17.3573C17.0231 16.7322 16.6719 15.8844 16.6719 15.0003C16.6719 14.1163 17.0231 13.2684 17.6482 12.6433C18.2733 12.0182 19.1212 11.667 20.0052 11.667C20.8893 11.667 21.7371 12.0182 22.3622 12.6433C22.9874 13.2684 23.3385 14.1163 23.3385 15.0003C23.3385 15.8844 22.9874 16.7322 22.3622 17.3573C21.7371 17.9825 20.8893 18.3337 20.0052 18.3337Z" stroke="#1882D6" stroke-width="2" stroke-linecap="round" stroke-linejoin="round"/>
</svg>
