<svg width="40" height="40" viewBox="0 0 40 40" fill="none" xmlns="http://www.w3.org/2000/svg">
<path d="M30.9226 20.1054C31.5284 19.5017 32.5109 19.5013 33.1172 20.1046L36.2119 23.1841C36.813 23.7823 36.8193 24.7506 36.2259 25.3564L34.1723 27.453L28.8571 22.1638L30.9226 20.1054Z" stroke="#1882D6" stroke-width="1.33333" stroke-linecap="round" stroke-linejoin="round"/>
<path d="M20.6146 30.3803L27.5409 23.4756L32.872 28.7806L26.0009 35.828C25.4752 36.3648 24.7541 36.6674 24.0012 36.6674L20.5832 36.6673C20.0536 36.6672 19.6307 36.2279 19.6529 35.701L19.7997 32.2295C19.8291 31.5332 20.1199 30.8732 20.6146 30.3803Z" stroke="#1882D6" stroke-width="1.33333" stroke-linecap="round" stroke-linejoin="round"/>
<path d="M31.2488 16.0953L31.2488 7.67578C31.2488 5.27787 29.3049 3.33398 26.907 3.33398L7.67574 3.33398C5.27784 3.33398 3.33395 5.27787 3.33395 7.67578L3.33395 32.2247C3.33395 34.6226 5.27784 36.5665 7.67574 36.5665L15.6962 36.5665" stroke="#1882D6" stroke-width="1.66667" stroke-linecap="round"/>
<path d="M18.8757 23.458H7.7098" stroke="#1882D6" stroke-width="1.66667" stroke-linecap="round"/>
<path d="M14.8882 27.9756H7.71008" stroke="#1882D6" stroke-width="1.66667" stroke-linecap="round"/>
<path d="M26.3188 14.418L7.70896 14.418" stroke="#1882D6" stroke-width="1.66667" stroke-linecap="round"/>
<path d="M21.8005 18.9365L7.71019 18.9365" stroke="#1882D6" stroke-width="1.66667" stroke-linecap="round"/>
<path d="M26.3188 9.89844L7.70896 9.89844" stroke="#1882D6" stroke-width="1.66667" stroke-linecap="round"/>
</svg>
