<svg width="40" height="40" viewBox="0 0 40 40" fill="none" xmlns="http://www.w3.org/2000/svg">
<path d="M30.9222 20.1048C31.528 19.501 32.5106 19.5007 33.1168 20.104L36.2116 23.1835C36.8126 23.7816 36.8189 24.75 36.2256 25.3557L34.172 27.4524L28.8568 22.1632L30.9222 20.1048Z" stroke="black" stroke-width="1.33333" stroke-linecap="round" stroke-linejoin="round"/>
<path d="M20.6142 30.3797L27.5405 23.475L32.8716 28.78L26.0005 35.8274C25.4748 36.3642 24.7537 36.6668 24.0008 36.6668L20.5828 36.6666C20.0532 36.6666 19.6303 36.2273 19.6526 35.7004L19.7993 32.2289C19.8287 31.5326 20.1196 30.8726 20.6142 30.3797Z" stroke="black" stroke-width="1.33333" stroke-linecap="round" stroke-linejoin="round"/>
<path d="M31.2484 16.0947L31.2484 7.67517C31.2484 5.27726 29.3045 3.33337 26.9066 3.33337L7.67538 3.33337C5.27747 3.33337 3.33358 5.27726 3.33358 7.67517L3.33358 32.2241C3.33358 34.622 5.27747 36.5659 7.67538 36.5659L15.6959 36.5659" stroke="black" stroke-width="1.66667" stroke-linecap="round"/>
<path d="M18.8754 23.4562H7.70943" stroke="black" stroke-width="1.66667" stroke-linecap="round"/>
<path d="M14.8877 27.9761H7.70959" stroke="black" stroke-width="1.66667" stroke-linecap="round"/>
<path d="M26.3192 14.4174L7.70932 14.4174" stroke="black" stroke-width="1.66667" stroke-linecap="round"/>
<path d="M21.8002 18.9364L7.70983 18.9364" stroke="black" stroke-width="1.66667" stroke-linecap="round"/>
<path d="M26.3192 9.89749L7.70932 9.89749" stroke="black" stroke-width="1.66667" stroke-linecap="round"/>
</svg>
