<svg width="40" height="40" viewBox="0 0 40 40" fill="none" xmlns="http://www.w3.org/2000/svg">
<path d="M18.3174 22.1523H7.25517" stroke="#1882D6" stroke-width="1.70622" stroke-linecap="round"/>
<path d="M14.3672 26.5156H7.25576" stroke="#1882D6" stroke-width="1.70622" stroke-linecap="round"/>
<path d="M25.6919 13.4277L7.25486 13.4277" stroke="#1882D6" stroke-width="1.70622" stroke-linecap="round"/>
<path d="M31.5024 21.4834L31.5024 7.49019C31.5024 5.19478 29.6416 3.33398 27.3462 3.33398L7.49002 3.33398C5.19461 3.33398 3.33381 5.19478 3.33381 7.49019L3.33381 32.3978C3.33381 34.6933 5.19461 36.5541 7.49002 36.5541L15.8085 36.5541" stroke="#1882D6" stroke-width="1.66667" stroke-linecap="round"/>
<path d="M21.2144 17.791L7.25489 17.791" stroke="#1882D6" stroke-width="1.70622" stroke-linecap="round"/>
<path d="M25.6919 9.06445L7.25486 9.06445" stroke="#1882D6" stroke-width="1.70622" stroke-linecap="round"/>
<path d="M30.6675 26.3056C31.0395 25.9421 31.0395 25.3436 30.6675 24.9801C30.3075 24.6285 29.7326 24.6285 29.3726 24.9801L24.0588 30.1714L25.3846 31.4666L30.6675 26.3056ZM35.9822 24.9779C35.6206 24.6271 35.0454 24.6281 34.6851 24.9802L25.3846 34.0662L22.1021 30.8671C21.7418 30.5159 21.1671 30.5163 20.8073 30.8679C20.435 31.2315 20.435 31.8303 20.8073 32.194L25.3846 36.6658L35.9845 26.3103C36.3588 25.9446 36.3578 25.3422 35.9822 24.9779ZM15.4919 30.8662C15.1164 31.2304 15.1154 31.8326 15.4895 32.1981L20.0627 36.6658L21.3885 35.3706L16.789 30.8691C16.4289 30.5167 15.8535 30.5154 15.4919 30.8662Z" fill="#1882D6"/>
</svg>
