<svg width="40" height="40" viewBox="0 0 40 40" fill="none" xmlns="http://www.w3.org/2000/svg">
<path d="M28.2569 3.99814C29.145 3.11307 30.5854 3.11253 31.4742 3.99693L36.011 8.51146C36.8922 9.38832 36.9014 10.8079 36.0316 11.6959L33.021 14.7695L25.2289 7.01576L28.2569 3.99814Z" stroke="#1882D6" stroke-width="2" stroke-linecap="round" stroke-linejoin="round"/>
<path d="M13.1454 19.0608L23.2993 8.93883L31.1147 16.7158L21.0417 27.047C20.271 27.8339 19.2139 28.2776 18.1101 28.2776L13.0993 28.2774C12.323 28.2773 11.703 27.6333 11.7356 26.8609L11.9507 21.7717C11.9939 20.751 12.4202 19.7835 13.1454 19.0608Z" stroke="#1882D6" stroke-width="2" stroke-linecap="round" stroke-linejoin="round"/>
<path d="M35.7062 19.5211V30.9785C35.7062 33.5906 33.5886 35.7081 30.9765 35.7081H8.0617C5.44958 35.7081 3.33203 33.5906 3.33203 30.9785V8.06366C3.33203 5.45153 5.44958 3.33398 8.0617 3.33398H19.5191" stroke="#1882D6" stroke-width="2" stroke-linecap="round"/>
</svg>
