<svg width="41" height="40" viewBox="0 0 41 40" fill="none" xmlns="http://www.w3.org/2000/svg">
<path d="M23.5044 35.0488H6.83773C5.95367 35.0488 5.10583 34.6976 4.48071 34.0725C3.85558 33.4474 3.50439 32.5995 3.50439 31.7155V8.38216C3.50439 7.49811 3.85558 6.65026 4.48071 6.02514C5.10583 5.40002 5.95367 5.04883 6.83773 5.04883H33.5044C34.3884 5.04883 35.2363 5.40002 35.8614 6.02514C36.4865 6.65026 36.8377 7.49811 36.8377 8.38216V23.3822" stroke="#1882D6" stroke-width="1.66667" stroke-linecap="round"/>
<path d="M3.50439 11.7139H36.8377M8.50439 8.39724L8.52106 8.37891M13.5044 8.39724L13.5211 8.37891M18.5044 8.39724L18.5211 8.37891" stroke="#1882D6" stroke-width="1.66667" stroke-linecap="round" stroke-linejoin="round"/>
<path d="M12.3374 16.666V18.1848C14.0324 18.4304 15.3374 19.8841 15.3374 21.6535C15.3374 22.1046 15.2474 22.5307 15.0974 22.9267L16.3974 23.6936C16.6774 23.072 16.8374 22.3803 16.8374 21.6535C16.8374 19.057 14.8624 16.9166 12.3374 16.666ZM11.8374 25.1623C9.9024 25.1623 8.3374 23.5933 8.3374 21.6535C8.3374 19.8841 9.6424 18.4304 11.3374 18.1848V16.666C8.8074 16.9166 6.8374 19.052 6.8374 21.6535C6.8374 24.4204 9.0724 26.666 11.8324 26.666C13.4874 26.666 14.9524 25.859 15.8624 24.6159L14.5624 23.849C13.9224 24.651 12.9424 25.1623 11.8374 25.1623Z" fill="#1882D6"/>
<path d="M20.1709 16.666H31.8376" stroke="#1882D6" stroke-width="1.66667" stroke-linecap="round"/>
<path d="M20.1709 21.666H31.8376" stroke="#1882D6" stroke-width="1.66667" stroke-linecap="round"/>
<path d="M20.1709 26.666H31.8376" stroke="#1882D6" stroke-width="1.66667" stroke-linecap="round"/>
</svg>
