<svg width="60" height="60" viewBox="0 0 60 60" fill="none" xmlns="http://www.w3.org/2000/svg">
<path fill-rule="evenodd" clip-rule="evenodd" d="M30 3.125C26.8506 3.125 23.8301 4.37611 21.6031 6.60311C19.3761 8.8301 18.125 11.8506 18.125 15C18.125 18.1494 19.3761 21.1699 21.6031 23.3969C23.8301 25.6239 26.8506 26.875 30 26.875C33.1494 26.875 36.1699 25.6239 38.3969 23.3969C40.6239 21.1699 41.875 18.1494 41.875 15C41.875 11.8506 40.6239 8.8301 38.3969 6.60311C36.1699 4.37611 33.1494 3.125 30 3.125ZM21.875 15C21.875 12.8451 22.731 10.7785 24.2548 9.25476C25.7785 7.73102 27.8451 6.875 30 6.875C32.1549 6.875 34.2215 7.73102 35.7452 9.25476C37.269 10.7785 38.125 12.8451 38.125 15C38.125 17.1549 37.269 19.2215 35.7452 20.7452C34.2215 22.269 32.1549 23.125 30 23.125C27.8451 23.125 25.7785 22.269 24.2548 20.7452C22.731 19.2215 21.875 17.1549 21.875 15Z" fill="url(#paint0_linear_749_34435)"/>
<path d="M49.6382 36.4329C49.9944 36.7795 50.1984 37.2533 50.2054 37.7502C50.2124 38.2471 50.0219 38.7264 49.6757 39.083L45.0932 43.808C44.91 43.9963 44.6892 44.1441 44.4452 44.2417C44.2012 44.3392 43.9394 44.3844 43.6768 44.3743C43.4142 44.3641 43.1567 44.2989 42.9209 44.1828C42.6851 44.0667 42.4764 43.9024 42.3082 43.7004L40.2232 41.2004C39.905 40.8182 39.7516 40.3252 39.7968 39.8299C39.8421 39.3345 40.0822 38.8775 40.4645 38.5592C40.8467 38.2409 41.3397 38.0876 41.8351 38.1328C42.3304 38.178 42.7875 38.4182 43.1057 38.8005L43.8557 39.7004L46.9857 36.4729C47.332 36.1165 47.8056 35.912 48.3025 35.9045C48.7994 35.897 49.2789 36.0871 49.6357 36.4329" fill="#1882D6"/>
<path fill-rule="evenodd" clip-rule="evenodd" d="M36.9376 31.2828C34.6516 30.8412 32.3284 30.621 30.0001 30.6253C24.2176 30.6253 18.8876 31.9403 14.9401 34.1603C11.0501 36.3503 8.12514 39.6653 8.12514 43.7503V44.0053C8.12264 46.9103 8.12014 50.5553 11.3176 53.1603C12.8901 54.4403 15.0926 55.3528 18.0676 55.9528C21.0476 56.5578 24.9351 56.8753 30.0001 56.8753C37.1701 56.8753 42.0251 56.2403 45.3001 55.0228C48.2476 53.9228 49.9926 52.3178 50.9251 50.2928C52.3725 49.4582 53.6274 48.3275 54.6079 46.9747C55.5884 45.6219 56.2723 44.0774 56.6151 42.4422C56.9579 40.8069 56.9517 39.1178 56.5971 37.4851C56.2424 35.8524 55.5472 34.3129 54.5569 32.9673C53.5666 31.6216 52.3035 30.5001 50.8502 29.676C49.3968 28.8519 47.7859 28.3437 46.1227 28.1847C44.4595 28.0258 42.7815 28.2195 41.1983 28.7534C39.6151 29.2872 38.1649 30.1492 36.9376 31.2828ZM36.8751 40.0003C36.8751 37.8455 37.7312 35.7788 39.2549 34.2551C40.7786 32.7314 42.8453 31.8753 45.0001 31.8753C47.155 31.8753 49.2216 32.7314 50.7454 34.2551C52.2691 35.7788 53.1251 37.8455 53.1251 40.0003C53.1251 42.1552 52.2691 44.2219 50.7454 45.7456C49.2216 47.2693 47.155 48.1253 45.0001 48.1253C42.8453 48.1253 40.7786 47.2693 39.2549 45.7456C37.7312 44.2219 36.8751 42.1552 36.8751 40.0003ZM34.3901 34.6628C33.5454 36.3427 33.1115 38.1992 33.1243 40.0795C33.137 41.9598 33.596 43.8102 34.4634 45.4784C35.3309 47.1467 36.5821 48.5852 38.114 49.6756C39.6459 50.766 41.4148 51.477 43.2751 51.7503C40.6001 52.5928 36.4426 53.1253 30.0001 53.1253C25.0626 53.1253 21.4501 52.8128 18.8076 52.2778C16.1576 51.7428 14.6076 51.0053 13.6826 50.2528C11.9726 48.8603 11.8726 47.0203 11.8726 43.7503C11.8726 41.6228 13.4276 39.3128 16.7751 37.4303C20.0651 35.5803 24.7351 34.3753 30.0001 34.3753C31.5126 34.3753 32.9851 34.4753 34.3901 34.6628Z" fill="url(#paint1_linear_749_34435)"/>
<defs>
<linearGradient id="paint0_linear_749_34435" x1="30" y1="3.125" x2="30" y2="26.875" gradientUnits="userSpaceOnUse">
<stop stop-color="#1882D6"/>
<stop offset="1" stop-color="#2BA1FF"/>
</linearGradient>
<linearGradient id="paint1_linear_749_34435" x1="32.4964" y1="28.1309" x2="32.4964" y2="56.8753" gradientUnits="userSpaceOnUse">
<stop stop-color="#1882D6"/>
<stop offset="1" stop-color="#2BA1FF"/>
</linearGradient>
</defs>
</svg>
