<svg width="32" height="32" viewBox="0 0 32 32" fill="none" xmlns="http://www.w3.org/2000/svg">
<path fill-rule="evenodd" clip-rule="evenodd" d="M12.0411 15.3009C13.0703 14.2878 14.4675 13.7176 15.9257 13.7176C17.2804 13.7176 18.5825 14.2098 19.5858 15.0921C19.5926 15.0999 19.5998 15.1075 19.6073 15.1149C20.6362 16.1278 21.2131 17.5001 21.2131 18.9297V23.2799C21.2131 23.5066 21.3969 23.6905 21.6236 23.6905C21.8504 23.6905 22.0342 23.5066 22.0342 23.2799V18.9297C22.0342 17.4152 21.4736 15.9587 20.4674 14.8284C20.4475 14.7876 20.4204 14.7494 20.3862 14.7158C19.2021 13.5502 17.5975 12.8965 15.9257 12.8965C14.2539 12.8965 12.6492 13.5502 11.4651 14.7158C10.2808 15.8816 9.61426 17.4642 9.61426 19.1157V23.4659C9.61426 23.6927 9.79806 23.8765 10.0248 23.8765C10.2515 23.8765 10.4353 23.6927 10.4353 23.4659V19.1157C10.4353 17.6861 11.0122 16.3138 12.0411 15.3009Z" fill="white"/>
<path d="M15.9247 13.3055C16.819 13.3055 17.6766 12.9558 18.309 12.3333C18.9413 11.7108 19.2966 10.8666 19.2966 9.98624C19.2966 9.10592 18.9413 8.26166 18.309 7.63918C17.6766 7.0167 16.819 6.66699 15.9247 6.66699C15.0304 6.66699 14.1727 7.0167 13.5404 7.63918C12.908 8.26166 12.5527 9.10592 12.5527 9.98624C12.5527 10.8666 12.908 11.7108 13.5404 12.3333C14.1727 12.9558 15.0304 13.3055 15.9247 13.3055Z" stroke="white" stroke-linecap="round" stroke-linejoin="round"/>
<path d="M3.58691 22.0234V18.7846C3.58691 17.6376 4.04978 16.5376 4.87367 15.7266C5.69757 14.9156 6.81502 14.46 7.98018 14.46C9.14535 14.46 10.2628 14.9156 11.0867 15.7266" stroke="white" stroke-linecap="round"/>
<path d="M7.98017 14.459C8.64598 14.459 9.28452 14.1987 9.75532 13.7352C10.2261 13.2718 10.4906 12.6432 10.4906 11.9878C10.4906 11.3324 10.2261 10.7038 9.75532 10.2404C9.28452 9.77696 8.64598 9.5166 7.98017 9.5166C7.31436 9.5166 6.67582 9.77696 6.20502 10.2404C5.73422 10.7038 5.46973 11.3324 5.46973 11.9878C5.46973 12.6432 5.73422 13.2718 6.20502 13.7352C6.67582 14.1987 7.31436 14.459 7.98017 14.459Z" stroke="white" stroke-linecap="round" stroke-linejoin="round"/>
<path d="M28.4141 22.2314V18.9926C28.4141 17.8456 27.9512 16.7456 27.1273 15.9346C26.3034 15.1236 25.186 14.668 24.0208 14.668C22.8556 14.668 21.7382 15.1236 20.9143 15.9346" stroke="white" stroke-linecap="round"/>
<path d="M24.0208 14.667C23.355 14.667 22.7165 14.4067 22.2457 13.9432C21.7749 13.4798 21.5104 12.8512 21.5104 12.1958C21.5104 11.5404 21.7749 10.9119 22.2457 10.4484C22.7165 9.98497 23.355 9.72461 24.0208 9.72461C24.6866 9.72461 25.3252 9.98497 25.796 10.4484C26.2668 10.9119 26.5312 11.5404 26.5312 12.1958C26.5312 12.8512 26.2668 13.4798 25.796 13.9432C25.3252 14.4067 24.6866 14.667 24.0208 14.667Z" stroke="white" stroke-linecap="round" stroke-linejoin="round"/>
</svg>
