<svg width="93" height="28" viewBox="0 0 93 28" fill="none" xmlns="http://www.w3.org/2000/svg">
<path d="M78.7502 0.563477H17.0667C9.6825 0.563477 3.69641 6.57923 3.69641 14C3.69641 21.4208 9.6825 27.4366 17.0667 27.4366H78.7502C86.1344 27.4366 92.1205 21.4208 92.1205 14C92.1205 6.57923 86.1344 0.563477 78.7502 0.563477Z" fill="#FF6161"/>
<path d="M1.10107 7.26228H10.2567V3.8252L1.10107 7.26228Z" fill="#AEADAE"/>
<path d="M10.2643 3.82532V16.03L14.6075 2.19043L10.2643 3.82532Z" fill="#D3D4D4"/>
<path d="M10.2643 7.2627H6.8139L10.2643 16.0303V7.2627Z" fill="#868686"/>
<path d="M1.10107 7.2627L7.66894 9.52874L6.80634 7.2627H1.10107Z" fill="#ACACAC"/>
<path d="M22.1061 12.7988C22.038 12.8672 21.9397 12.9357 21.8413 12.9965C21.7051 13.0953 21.5462 13.1638 21.3797 13.2322C21.1452 13.3311 20.9182 13.3691 20.6836 13.4299C20.3885 13.4984 20.0556 13.5288 19.7529 13.4984C19.1551 13.4984 18.5574 13.3995 17.9974 13.1638C17.5359 12.9661 17.1046 12.6619 16.7716 12.2665C16.4387 11.8711 16.2041 11.3996 16.0755 10.8673C15.909 10.297 15.8409 9.70388 15.8409 9.10315C15.8409 8.50242 15.909 7.90169 16.0755 7.33899C16.2117 6.83711 16.4765 6.33524 16.8019 5.93982C17.1273 5.5444 17.5661 5.20982 18.0277 5.0045C18.5574 4.76878 19.1551 4.66992 19.7529 4.66992C20.048 4.66992 20.3507 4.70034 20.6458 4.76878C20.8803 4.83721 21.1073 4.90565 21.3419 4.96648C21.5084 5.03492 21.6748 5.13378 21.8413 5.23263C21.9397 5.30107 22.038 5.3695 22.1364 5.46836C22.2045 5.5368 22.2726 5.63565 22.3331 5.70409C22.4012 5.80294 22.4315 5.9018 22.4012 6.00065C22.4012 6.19836 22.3331 6.36565 22.2045 6.53294C22.0759 6.70023 21.9397 6.86753 21.8035 6.9968C21.7051 6.89794 21.5689 6.79909 21.4705 6.70024C21.3343 6.60138 21.2057 6.50253 21.0392 6.43409C20.8728 6.33523 20.676 6.2668 20.5096 6.23638C20.275 6.16794 20.0783 6.13753 19.8437 6.16794C19.1173 6.13753 18.4514 6.50253 18.0882 7.10326C17.9218 7.39982 17.7931 7.70399 17.725 8.06899C17.6569 8.43399 17.6267 8.79899 17.6267 9.17159C17.6267 9.54419 17.6569 9.93961 17.725 10.3046C17.7931 10.6392 17.9218 10.9738 18.1261 11.2703C18.3228 11.5365 18.5574 11.7722 18.8525 11.9395C19.42 12.2057 20.0102 12.2741 20.6079 12.1068C20.7744 12.0384 20.9711 11.9699 21.1376 11.9091C21.2738 11.8407 21.4024 11.7418 21.5386 11.6429C21.637 11.5441 21.7354 11.4757 21.8337 11.4072L22.0002 11.6429C22.0683 11.7114 22.1364 11.8102 22.1969 11.9091C22.2575 12.0079 22.2953 12.1068 22.3331 12.1752C22.371 12.2437 22.4012 12.3425 22.4012 12.4414C22.4012 12.5402 22.371 12.6391 22.3331 12.7075C22.265 12.6771 22.1969 12.7379 22.0986 12.8064L22.1061 12.7988Z" fill="white"/>
<path d="M28.6135 11.8324C28.5832 12.3343 28.6816 12.8361 28.9086 13.3C28.7724 13.3684 28.6437 13.3988 28.4772 13.4369C28.341 13.4673 28.2124 13.4673 28.0762 13.4673C27.8416 13.4673 27.5768 13.4369 27.3801 13.3C27.2136 13.1631 27.1153 13.0034 27.085 12.7981C26.8883 12.9958 26.6234 13.1631 26.3586 13.3C25.9954 13.4369 25.6322 13.4977 25.2312 13.4977C24.9966 13.4977 24.7696 13.4673 24.535 13.3988C24.3004 13.3304 24.1037 13.2316 23.9372 13.1023C23.7405 12.935 23.574 12.7373 23.4757 12.532C23.3395 12.2658 23.2789 11.9617 23.3092 11.6651C23.3092 11.3001 23.4076 10.9351 23.6043 10.6005C23.801 10.3344 24.0659 10.0986 24.3686 9.96937C24.6637 9.80208 25.0344 9.70322 25.3673 9.63478C25.7003 9.56635 26.0332 9.53593 26.3662 9.53593H26.9337V9.3002C26.9639 9.03406 26.8655 8.79833 26.6688 8.60062C26.404 8.43333 26.1391 8.36489 25.8365 8.40291C25.5035 8.40291 25.1706 8.47135 24.8755 8.5702C24.5804 8.70708 24.308 8.83635 24.0432 8.97322C23.907 8.83635 23.8086 8.67666 23.7481 8.50937C23.68 8.37249 23.6497 8.24322 23.6497 8.10635C23.6497 7.96947 23.7481 7.8402 23.8465 7.77177C24.0129 7.63489 24.1794 7.53603 24.3761 7.4752C24.6409 7.37635 24.9058 7.30791 25.1706 7.27749C25.4657 7.20906 25.7986 7.17864 26.1013 7.20906C26.5023 7.20906 26.8958 7.23947 27.259 7.34593C27.5541 7.41437 27.8265 7.58166 28.0232 7.77937C28.22 7.97708 28.3864 8.24322 28.4545 8.50937C28.5529 8.84395 28.5907 9.17853 28.5907 9.54353L28.621 11.8476L28.6135 11.8324ZM26.9866 10.3648H26.6537C26.4569 10.3648 26.2224 10.3952 26.0256 10.4332C25.8289 10.4712 25.6624 10.5321 25.4581 10.6005C25.2917 10.669 25.163 10.7982 25.0571 10.9351C24.9587 11.1024 24.8906 11.3001 24.8906 11.5054C24.8906 11.7411 24.9588 11.9388 25.0874 12.1061C25.2539 12.3038 25.5187 12.3723 25.7835 12.3723C25.95 12.3723 26.0786 12.3419 26.2451 12.3038C26.3813 12.2734 26.5099 12.205 26.6083 12.1366C26.7066 12.0681 26.805 11.9997 26.8731 11.9008C26.9412 11.8324 26.9715 11.764 26.9715 11.6651V10.3648H26.9866Z" fill="white"/>
<path d="M31.7688 7.86319C31.9353 7.66548 32.1698 7.49819 32.3968 7.36132C32.7298 7.19403 33.093 7.09517 33.494 7.12559C33.7891 7.12559 34.0918 7.19403 34.3869 7.29288C34.682 7.39173 34.9165 7.58944 35.1511 7.79476C35.3857 8.0609 35.5824 8.39548 35.6808 8.73007C35.817 9.19392 35.8775 9.6958 35.8775 10.1673C35.8775 10.7376 35.8094 11.2699 35.6429 11.8022C35.5067 12.1672 35.31 12.5017 35.0452 12.8059C34.8106 13.0416 34.5458 13.2393 34.2507 13.3382C33.9556 13.437 33.6529 13.4751 33.3578 13.5055C33.1611 13.5055 32.9265 13.4751 32.7298 13.437C32.5633 13.4066 32.3968 13.3382 32.2682 13.2393C32.1698 13.1709 32.0715 13.1025 31.9731 13.0416C31.9428 13.0112 31.8747 12.9428 31.8369 12.9048V16.0377H30.1117V7.30048L30.2782 7.27007C30.3463 7.27007 30.4144 7.23965 30.4446 7.23965H30.6792C30.9138 7.23965 31.1786 7.27007 31.4056 7.37653C31.5721 7.5134 31.7007 7.67309 31.7688 7.8784V7.86319ZM34.0237 10.1977C34.0237 9.96194 33.9934 9.73382 33.9556 9.49809C33.9253 9.30038 33.8572 9.09507 33.7588 8.92778C33.6605 8.76049 33.5243 8.63121 33.3578 8.56278C33.1611 8.46392 32.9568 8.4259 32.76 8.4259C32.4952 8.39548 32.2304 8.45632 32.0336 8.62361C31.8974 8.72246 31.8369 8.88976 31.8369 9.05705V11.7565C31.9353 11.8554 32.0715 11.9238 32.2001 11.9923C32.3968 12.0911 32.6011 12.1291 32.7979 12.1291C33.1989 12.1595 33.5621 11.9618 33.7286 11.6273C33.9631 11.1938 34.0615 10.6919 34.0237 10.1901V10.1977Z" fill="white"/>
<path d="M37.1411 12.4031C37.073 12.2358 37.0427 12.0381 37.0427 11.8708C37.0427 11.6731 37.0125 11.5058 37.0125 11.3005V5.3997L37.2092 5.36928C37.2773 5.36928 37.3454 5.33887 37.4059 5.33887H37.6027C37.7389 5.33887 37.8675 5.33887 38.0037 5.36928C38.1399 5.3997 38.2685 5.43772 38.3669 5.53657C38.4653 5.60501 38.5636 5.73428 38.6317 5.83314C38.6998 6.00043 38.7301 6.16772 38.7301 6.33501V7.2323H40.4855V8.5022H38.7301V11.2017C38.7301 11.8024 38.9646 12.099 39.4565 12.099C39.5548 12.099 39.691 12.0686 39.7894 12.0305C39.8878 11.9925 39.9861 11.9621 40.0845 11.8937C40.1526 11.8632 40.251 11.7948 40.3191 11.7568C40.3493 11.7264 40.4175 11.6883 40.4553 11.6579C40.5537 11.8252 40.652 11.9545 40.7504 12.1598C40.8185 12.2967 40.8488 12.3955 40.8488 12.5628C40.8488 12.6997 40.8185 12.7986 40.7126 12.8974C40.6142 13.0343 40.478 13.1331 40.3494 13.194C40.1526 13.2928 39.9861 13.3613 39.7516 13.4297C39.517 13.4981 39.2522 13.5286 39.0252 13.4981C38.5939 13.5286 38.1626 13.4297 37.7994 13.2016C37.4665 13.0039 37.2697 12.7377 37.1335 12.4031H37.1411Z" fill="white"/>
<path d="M44.8742 12.2361C45.0709 12.2361 45.2374 12.2057 45.4417 12.1677C45.5779 12.1373 45.7368 12.0688 45.873 12.0004C46.0092 11.932 46.1076 11.8635 46.206 11.7647L46.4708 11.5289C46.607 11.6962 46.7054 11.8635 46.8037 12.0308C46.9021 12.1677 46.9702 12.3274 46.9702 12.5327C46.9399 12.7304 46.834 12.9357 46.6373 13.0346C46.4027 13.2018 46.1379 13.3007 45.873 13.3691C45.5098 13.468 45.1088 13.5364 44.7456 13.506C44.3446 13.506 43.9511 13.4376 43.5879 13.3387C43.2247 13.2399 42.8615 13.0726 42.5588 12.8064C42.2259 12.5403 41.9913 12.2057 41.8324 11.8027C41.6357 11.3008 41.5373 10.7381 41.5676 10.1678C41.5676 9.70393 41.6357 9.23248 41.8324 8.79904C41.9686 8.43404 42.1956 8.09945 42.4983 7.83331C42.7631 7.59758 43.096 7.39987 43.429 7.263C43.7619 7.16414 44.1251 7.0957 44.4883 7.0957C44.8894 7.0957 45.3207 7.16414 45.6839 7.33143C45.979 7.46831 46.2816 7.66602 46.4783 7.93216C46.6751 8.19831 46.8415 8.46445 46.9399 8.79904C47.0383 9.13362 47.0761 9.4682 47.0761 9.80279V10.4339C47.0761 10.5024 47.0761 10.5328 47.0458 10.6012H43.2928C43.3231 11.0347 43.4592 11.4377 43.7241 11.7647C43.9586 12.0992 44.4202 12.2665 44.8818 12.2285L44.8742 12.2361ZM45.4417 9.66591C45.4417 9.33133 45.3736 8.96633 45.2072 8.66216C45.0104 8.39602 44.6775 8.22873 44.3446 8.29716C44.0116 8.29716 43.7165 8.43404 43.5122 8.66216C43.2776 8.95873 43.1793 9.29331 43.2171 9.66591H45.4417Z" fill="white"/>
<path d="M49.9818 7.89414C50.0499 7.79529 50.118 7.72685 50.1785 7.628C50.2769 7.52914 50.3752 7.43029 50.4736 7.36185C50.6098 7.29341 50.7384 7.22497 50.8746 7.16414C51.0411 7.0957 51.1697 7.0957 51.3362 7.0957C51.4346 7.0957 51.5708 7.0957 51.6691 7.12612C51.7675 7.12612 51.9037 7.15654 52.0021 7.22498C52.1004 7.25539 52.1685 7.32383 52.2366 7.42268C52.3047 7.52154 52.335 7.62039 52.335 7.71925C52.335 7.95498 52.2669 8.15268 52.1988 8.35039C52.1307 8.5481 52.0323 8.75341 51.934 8.95112C51.7978 8.85227 51.6691 8.75341 51.5027 8.68497C51.3362 8.61654 51.1697 8.58612 51.0033 8.58612C50.7687 8.58612 50.5417 8.65456 50.3374 8.82185C50.1709 8.95872 50.0726 9.15643 50.0726 9.35414V13.4908H48.3474V7.28581L48.5138 7.25539C48.5819 7.25539 48.65 7.22498 48.6803 7.22498H48.9149C49.1494 7.22498 49.4143 7.25539 49.611 7.39227C49.8077 7.52914 49.9439 7.68883 49.9742 7.89414H49.9818Z" fill="white"/>
<path d="M54.8622 7.89414C54.9303 7.79529 54.9984 7.72685 55.059 7.628C55.1573 7.52914 55.2557 7.4607 55.3541 7.36185C55.4903 7.29341 55.6189 7.22497 55.7551 7.16414C55.9216 7.0957 56.0502 7.0957 56.2167 7.0957C56.315 7.0957 56.4512 7.0957 56.5496 7.12612C56.648 7.12612 56.7463 7.15654 56.8447 7.22498C56.9431 7.25539 57.0112 7.32383 57.0793 7.42268C57.1474 7.52154 57.1776 7.62039 57.1776 7.71925C57.1776 7.95498 57.1095 8.15268 57.0414 8.35039C56.9733 8.5481 56.875 8.75341 56.7766 8.95112C56.6404 8.85227 56.5118 8.75341 56.3453 8.68497C56.1788 8.61654 56.0124 8.58612 55.8459 8.58612C55.6113 8.58612 55.3843 8.65456 55.18 8.82185C55.0136 8.95872 54.9152 9.15643 54.9152 9.35414V13.4908H53.19V7.28581L53.3565 7.25539C53.4246 7.25539 53.4927 7.22498 53.5229 7.22498H53.7575C53.9921 7.22498 54.2569 7.25539 54.4536 7.39227C54.6882 7.49112 54.8168 7.68883 54.8547 7.89414H54.8622Z" fill="white"/>
<path d="M63.0872 11.8324C63.0569 12.3343 63.1553 12.8361 63.3823 13.3C63.2461 13.3684 63.1175 13.3988 62.951 13.4369C62.8148 13.4673 62.6862 13.4673 62.55 13.4673C62.3154 13.4673 62.0506 13.4369 61.8538 13.3C61.6874 13.1631 61.589 13.0034 61.5587 12.7981C61.362 12.9958 61.0972 13.1631 60.8323 13.3C60.4691 13.4369 60.1059 13.4977 59.7049 13.4977C59.4703 13.4977 59.2433 13.4673 59.0088 13.3988C58.7742 13.3304 58.5775 13.2316 58.3807 13.1023C58.184 12.973 58.0175 12.7677 57.9192 12.532C57.783 12.2658 57.7224 11.9617 57.7527 11.6651C57.7224 11.3001 57.8511 10.9351 58.0478 10.6005C58.2445 10.3344 58.5094 10.0986 58.812 9.96937C59.1071 9.80208 59.4779 9.70322 59.8108 9.63478C60.1438 9.56635 60.4767 9.53593 60.8096 9.53593H61.4074V9.3002C61.4377 9.03406 61.3393 8.79833 61.1426 8.60062C60.8777 8.43333 60.6129 8.36489 60.3102 8.40291C59.9773 8.40291 59.6444 8.47135 59.3493 8.5702C59.0542 8.70708 58.7818 8.83635 58.5169 8.97322C58.3807 8.83635 58.2824 8.67666 58.2218 8.50937C58.1537 8.37249 58.1235 8.24322 58.1235 8.10635C58.1235 7.96947 58.2218 7.8402 58.3202 7.77177C58.4867 7.63489 58.6531 7.53603 58.8499 7.4752C59.1147 7.37635 59.3795 7.30791 59.6444 7.27749C59.9395 7.20906 60.2724 7.17864 60.5751 7.20906C60.9761 7.20906 61.3696 7.23947 61.7328 7.34593C62.0279 7.41437 62.3003 7.58166 62.497 7.77937C62.6937 7.97708 62.8602 8.24322 62.9283 8.50937C63.0267 8.84395 63.0645 9.17853 63.0645 9.54353L63.0948 11.8476L63.0872 11.8324ZM61.4604 10.3648H61.1274C60.9307 10.3648 60.6961 10.3952 60.4994 10.4332C60.3027 10.4712 60.1362 10.5321 59.9319 10.6005C59.7654 10.669 59.6368 10.7982 59.5309 10.9351C59.4325 11.1024 59.3644 11.2697 59.3644 11.4674C59.3644 11.7031 59.4325 11.9008 59.5611 12.0681C59.7276 12.2658 59.9924 12.3343 60.2573 12.3343C60.4237 12.3343 60.5524 12.3038 60.7188 12.2658C60.855 12.2354 60.9837 12.167 61.082 12.0985C61.1804 12.0301 61.2787 11.9617 61.3468 11.8628C61.4149 11.7944 61.4452 11.7259 61.4452 11.6271V10.3572L61.4604 10.3648Z" fill="white"/>
<path d="M28.6438 23.4068C28.5454 23.4068 28.4092 23.3763 28.3108 23.3383L27.2137 22.768C27.1456 22.7376 27.1153 22.7376 27.0472 22.7376C26.9791 22.7376 26.911 22.7376 26.8807 22.768L25.7836 23.3383C25.6852 23.4068 25.549 23.4372 25.4506 23.4068C25.2539 23.4068 25.0496 23.3079 24.921 23.171C24.7848 23.0037 24.7242 22.806 24.7545 22.6007L24.9512 21.3688C24.9815 21.232 24.921 21.1331 24.8529 21.0343L23.96 20.1674C23.7633 19.9697 23.6952 19.7035 23.7935 19.4374C23.8616 19.1712 24.0886 19.0039 24.361 18.9355L25.5868 18.7378C25.723 18.7074 25.8214 18.6389 25.8819 18.5401L26.4116 17.4375C26.5781 17.0725 27.0094 16.9356 27.3726 17.1029C27.5088 17.1713 27.6374 17.3006 27.7055 17.4375L28.273 18.5401C28.3411 18.6389 28.4395 18.7378 28.5681 18.7378L29.7939 18.9051C30.0587 18.9355 30.2933 19.1408 30.3614 19.407C30.4295 19.6731 30.3614 19.9393 30.1647 20.137L29.234 21.0343C29.1356 21.1331 29.0978 21.232 29.1356 21.3688L29.3323 22.6007C29.3626 22.7984 29.3323 23.0342 29.1961 23.2014C29.0297 23.3383 28.8329 23.4372 28.6286 23.3992L28.6438 23.4068Z" fill="#FFCA3A"/>
<path d="M27.0547 17.2014C27.2514 17.2014 27.4557 17.3382 27.5541 17.4979L28.0838 18.6005C28.1519 18.7678 28.3183 18.8667 28.4848 18.8971L29.7106 19.0644C30.0057 19.0948 30.21 19.399 30.1722 19.6955C30.1419 19.8324 30.1041 19.9313 30.0057 19.9921L29.1128 20.859C28.9766 20.9958 28.9161 21.1555 28.9464 21.3608L29.1431 22.5623C29.1734 22.8589 28.9766 23.1326 28.6815 23.1934C28.5832 23.1934 28.447 23.1934 28.3486 23.125L27.2514 22.5547C27.085 22.4558 26.8882 22.4558 26.752 22.5547L25.723 23.1554C25.4581 23.2923 25.1252 23.1858 24.9966 22.8893C24.9285 22.7904 24.9285 22.6916 24.9285 22.5927L25.1252 21.3913C25.1555 21.224 25.0949 21.0263 24.9587 20.8894L24.0659 20.0225C23.8313 19.8248 23.8313 19.4522 24.0659 19.2545C24.1642 19.1556 24.2626 19.1176 24.361 19.0872L25.5868 18.9199C25.7532 18.8895 25.9197 18.783 25.9878 18.6233L26.5175 17.5207C26.6537 17.323 26.8504 17.1861 27.0471 17.1861M27.0471 16.8516C26.7142 16.8516 26.3813 17.0493 26.2526 17.3534L25.723 18.456C25.6927 18.5245 25.6246 18.5549 25.5565 18.5549L24.3307 18.7222C23.9978 18.7526 23.7329 18.9883 23.6346 19.3229C23.5362 19.6575 23.6043 19.9921 23.8691 20.2202L24.762 21.0871C24.8301 21.1175 24.8301 21.224 24.8301 21.2848L24.5955 22.5167C24.5653 22.7828 24.6258 23.049 24.7923 23.2467C24.9587 23.4444 25.1933 23.5812 25.4581 23.5812C25.5943 23.5812 25.7532 23.5508 25.8592 23.4824L26.9563 22.8817C27.0244 22.8513 27.0925 22.8513 27.1531 22.8817L28.2502 23.452C28.3864 23.5204 28.5151 23.5508 28.6513 23.5508C28.9161 23.5508 29.1507 23.414 29.3171 23.2162C29.4836 23.0185 29.5517 22.7524 29.5139 22.4862L29.3171 21.2848C29.3171 21.2164 29.3171 21.1479 29.3852 21.0871L30.2478 20.2506C30.4824 20.0149 30.5808 19.6499 30.4824 19.3533C30.384 19.0188 30.1192 18.783 29.7863 18.7526L28.5605 18.5853C28.4924 18.5853 28.4243 18.5169 28.394 18.4865L27.8643 17.3839C27.6979 17.0493 27.4028 16.8516 27.0698 16.8516H27.0471Z" fill="#AEADAE"/>
<path d="M66.8705 23.4674C66.8705 23.4674 66.8024 23.437 66.8024 23.3989V4.59383C66.8024 4.59383 66.8327 4.52539 66.8705 4.52539C66.9084 4.52539 66.9386 4.55581 66.9386 4.59383V23.3989C66.9386 23.3989 66.9084 23.4674 66.8705 23.4674Z" fill="#C1D1DA"/>
<path d="M77.1234 16.6003H76.1624V18.3037H73.8394V16.6003H70.3588V14.8666L74.0059 9.49805H76.1927V14.8362H77.1536V16.6003H77.1234ZM73.8016 14.8362V13.802C73.8016 13.6043 73.8016 13.3381 73.8319 13.034C73.8319 12.6994 73.8621 12.5321 73.8621 12.5321H73.794C73.6578 12.8287 73.4989 13.1328 73.3325 13.399L72.3715 14.8362H73.8016Z" fill="white"/>
<path d="M77.8195 17.3002C77.8195 16.9352 77.9179 16.631 78.1525 16.4333C78.387 16.2356 78.6821 16.1367 79.1134 16.1367C79.5144 16.1367 79.8095 16.2356 80.0063 16.4333C80.203 16.631 80.3392 16.9352 80.3392 17.3002C80.3392 17.6652 80.2408 17.9313 80.0063 18.1366C79.7717 18.3419 79.4766 18.4332 79.1134 18.4332C78.7124 18.4332 78.4173 18.3343 78.1827 18.1366C77.9179 17.9693 77.8195 17.6728 77.8195 17.3002Z" fill="white"/>
<path d="M87.5805 18.3039H81.2094V16.7374L83.3659 14.5702C83.9636 13.9391 84.3647 13.5057 84.5614 13.2699C84.7582 13.0342 84.8944 12.8365 84.9625 12.6692C85.0306 12.5019 85.0608 12.3346 85.0608 12.1369C85.0608 11.9012 84.9927 11.7339 84.8262 11.6046C84.6598 11.4753 84.463 11.4069 84.1982 11.4069C83.9334 11.4069 83.6307 11.4754 83.3659 11.6426C83.101 11.8099 82.7681 12.0457 82.4049 12.3422L81.111 10.8062C81.5726 10.4032 81.9433 10.1066 82.2384 9.93931C82.5335 9.77202 82.8665 9.64275 83.2373 9.53629C83.608 9.42983 84.0015 9.39941 84.4631 9.39941C85.0306 9.39941 85.5224 9.49827 85.9915 9.69598C86.4228 9.89368 86.786 10.1979 87.0206 10.5629C87.2552 10.9279 87.3838 11.3613 87.3838 11.7947C87.3838 12.1293 87.3535 12.4639 87.2476 12.7605C87.1416 13.057 87.013 13.3308 86.8465 13.6273C86.6801 13.8935 86.4153 14.1976 86.1202 14.5246C85.8251 14.8516 85.1895 15.4219 84.2285 16.2888V16.3572H87.5502L87.5805 18.2887V18.3039Z" fill="white"/>
<path d="M35.5143 17.2014C35.711 17.2014 35.9153 17.3382 36.0137 17.4979L36.5434 18.6005C36.6115 18.7678 36.7779 18.8667 36.9444 18.8971L38.1702 19.0644C38.4653 19.0948 38.6696 19.399 38.6318 19.6955C38.6015 19.8324 38.5637 19.9313 38.4653 19.9921L37.5724 20.859C37.4362 20.9958 37.3757 21.1555 37.406 21.3608L37.6027 22.5623C37.6708 22.8589 37.4665 23.1326 37.1714 23.1934H37.073C36.9747 23.1934 36.9066 23.163 36.8082 23.125L35.711 22.5547C35.5446 22.4558 35.3478 22.4558 35.2116 22.5547L34.1145 23.125C33.8496 23.2619 33.5167 23.1554 33.3881 22.8893C33.32 22.7904 33.32 22.6535 33.32 22.5243L33.5167 21.3228C33.547 21.1555 33.4864 20.9578 33.3502 20.8209L32.4876 19.9845C32.2531 19.7868 32.2531 19.4142 32.4876 19.2165C32.586 19.1176 32.6844 19.0796 32.7827 19.0492L34.0085 18.8819C34.175 18.8515 34.3415 18.745 34.4096 18.5853L34.9392 17.4827C35.1057 17.3154 35.3024 17.1861 35.5067 17.1861M35.5067 16.8516C35.1738 16.8516 34.8787 17.0493 34.7122 17.3534L34.1826 18.456C34.1523 18.5245 34.0842 18.5549 34.0161 18.5549L32.7903 18.7222C32.3287 18.7906 31.9958 19.2241 32.0639 19.7259C32.0942 19.9236 32.2001 20.0909 32.3287 20.2278L33.2216 21.0947C33.2897 21.1251 33.2897 21.2316 33.2897 21.2924L33.093 22.4939C33.0627 22.76 33.1232 23.0261 33.2897 23.2239C33.4562 23.4216 33.6907 23.5584 33.9556 23.5584C34.0918 23.5584 34.2507 23.528 34.3566 23.4596L35.4538 22.8893C35.4538 22.8893 35.5219 22.8589 35.5521 22.8589C35.5824 22.8589 35.6202 22.8589 35.6505 22.8893L36.7477 23.4596C36.8839 23.528 37.0125 23.5584 37.1487 23.5584C37.4135 23.5584 37.6481 23.4216 37.8146 23.2239C37.981 23.0261 38.0491 22.76 38.0113 22.4939L37.8146 21.2924C37.8146 21.224 37.8146 21.1555 37.8827 21.0947L38.7755 20.2278C39.1085 19.8932 39.1387 19.3305 38.8058 18.9959C38.6696 18.8591 38.4729 18.7602 38.3064 18.7298L37.0806 18.5625C37.0125 18.5625 36.9444 18.4941 36.9141 18.4636L36.3845 17.361C36.1499 17.0645 35.8548 16.8592 35.5219 16.8592L35.5067 16.8516Z" fill="#FFCA3A"/>
<path d="M37.1109 23.4066C37.0125 23.4066 36.8763 23.3762 36.7779 23.3382L35.6808 22.7679C35.6127 22.7374 35.5446 22.7374 35.5143 22.7374C35.4462 22.7374 35.3781 22.7374 35.3478 22.7679L34.2507 23.3382C34.1523 23.4066 34.0161 23.437 33.9177 23.4066C33.721 23.4066 33.5167 23.3078 33.3502 23.1405C33.214 22.9732 33.1535 22.7755 33.1838 22.5702L33.3805 21.3383C33.4108 21.2014 33.3502 21.1026 33.2821 21.0037L32.4195 20.1672C32.2228 19.9695 32.1547 19.7034 32.2531 19.4372C32.3212 19.1711 32.5482 18.9734 32.8206 18.9354L34.0464 18.7681C34.1826 18.7377 34.2809 18.6692 34.3415 18.5704L34.909 17.4678C35.0754 17.1028 35.5067 16.9659 35.8699 17.1332C36.0061 17.2016 36.1348 17.3309 36.2029 17.4678L36.7325 18.5704C36.8006 18.6692 36.899 18.7681 37.0276 18.7681L38.2534 18.9354C38.6545 19.0038 38.9193 19.3688 38.8512 19.7718C38.8209 19.9391 38.7528 20.0684 38.6545 20.1748L37.7616 21.0417C37.6632 21.1406 37.6254 21.2394 37.6632 21.3763L37.8599 22.6082C37.8902 22.8059 37.8297 23.0416 37.6935 23.1785C37.4968 23.3458 37.2925 23.4142 37.0957 23.4142L37.1109 23.4066Z" fill="#FFCA3A"/>
<path d="M35.5143 17.2014C35.711 17.2014 35.9153 17.3382 36.0137 17.4979L36.5434 18.6005C36.6115 18.7678 36.7779 18.8667 36.9444 18.8971L38.1702 19.0644C38.4653 19.0948 38.6696 19.399 38.6318 19.6955C38.6015 19.8324 38.5637 19.9313 38.4653 19.9921L37.5724 20.859C37.4362 20.9958 37.3757 21.1555 37.406 21.3608L37.6027 22.5623C37.6708 22.8589 37.4665 23.1326 37.1714 23.1934H37.073C36.9747 23.1934 36.9066 23.163 36.8082 23.125L35.711 22.5547C35.5446 22.4558 35.3478 22.4558 35.2116 22.5547L34.1145 23.125C33.8496 23.2619 33.5167 23.1554 33.3881 22.8893C33.32 22.7904 33.32 22.6535 33.32 22.5243L33.5167 21.3228C33.547 21.1555 33.4864 20.9578 33.3502 20.8209L32.4876 19.9845C32.2531 19.7868 32.2531 19.4142 32.4876 19.2165C32.586 19.1176 32.6844 19.0796 32.7827 19.0492L34.0085 18.8819C34.175 18.8515 34.3415 18.745 34.4096 18.5853L34.9392 17.4827C35.1057 17.3154 35.3024 17.1861 35.5067 17.1861M35.5067 16.8516C35.1738 16.8516 34.8787 17.0493 34.7122 17.3534L34.1826 18.456C34.1523 18.5245 34.0842 18.5549 34.0161 18.5549L32.7903 18.7222C32.3287 18.7906 31.9958 19.2241 32.0639 19.7259C32.0942 19.9236 32.2001 20.0909 32.3287 20.2278L33.2216 21.0947C33.2897 21.1251 33.2897 21.2316 33.2897 21.2924L33.093 22.4939C33.0627 22.76 33.1232 23.0261 33.2897 23.2239C33.4562 23.4216 33.6907 23.5584 33.9556 23.5584C34.0918 23.5584 34.2507 23.528 34.3566 23.4596L35.4538 22.8893C35.4538 22.8893 35.5219 22.8589 35.5521 22.8589C35.5824 22.8589 35.6202 22.8589 35.6505 22.8893L36.7477 23.4596C36.8839 23.528 37.0125 23.5584 37.1487 23.5584C37.4135 23.5584 37.6481 23.4216 37.8146 23.2239C37.981 23.0261 38.0491 22.76 38.0113 22.4939L37.8146 21.2924C37.8146 21.224 37.8146 21.1555 37.8827 21.0947L38.7755 20.2278C39.1085 19.8932 39.1387 19.3305 38.8058 18.9959C38.6696 18.8591 38.4729 18.7602 38.3064 18.7298L37.0806 18.5625C37.0125 18.5625 36.9444 18.4941 36.9141 18.4636L36.3845 17.361C36.1499 17.0645 35.8548 16.8592 35.5219 16.8592L35.5067 16.8516Z" fill="#FFCA3A"/>
<path d="M45.2072 23.4068C45.1088 23.4068 44.9726 23.3763 44.8742 23.3383L43.7771 22.768C43.6787 22.6996 43.5425 22.6996 43.4139 22.768L42.3167 23.3383C42.2183 23.4068 42.0821 23.4372 41.9838 23.4068C41.787 23.4068 41.5827 23.3079 41.4163 23.1406C41.2801 22.9733 41.2195 22.7756 41.2498 22.5703L41.4465 21.3384C41.4768 21.2015 41.4163 21.1027 41.3482 21.0038L40.4856 20.137C40.2888 19.9393 40.2207 19.6731 40.3191 19.407C40.3872 19.1408 40.6142 18.9431 40.8866 18.9051L42.1124 18.7378C42.2486 18.7074 42.347 18.6389 42.4075 18.5401L42.9372 17.4375C43.1036 17.0725 43.5349 16.9356 43.8981 17.1029C44.0343 17.1713 44.163 17.3006 44.2311 17.4375L44.7607 18.5401C44.8288 18.6389 44.9272 18.7378 45.0558 18.7378L46.2816 18.9051C46.6827 18.9735 46.9475 19.3385 46.8794 19.7035C46.8491 19.8708 46.781 20.0001 46.6827 20.1065L45.8201 20.9734C45.7217 21.0723 45.6839 21.1711 45.7217 21.308L45.9184 22.5399C45.9487 22.7376 45.8882 22.9733 45.752 23.1102C45.6158 23.3079 45.419 23.4068 45.1845 23.4068H45.2072Z" fill="#FFCA3A"/>
<path d="M43.6106 17.2014C43.8074 17.2014 44.0117 17.3382 44.11 17.4979L44.6397 18.6005C44.7078 18.7678 44.8743 18.8667 45.0407 18.8971L46.2665 19.0644C46.5616 19.0948 46.7659 19.399 46.7281 19.6955C46.6978 19.8324 46.66 19.9313 46.5616 19.9921L45.6688 20.859C45.5326 20.9958 45.472 21.1555 45.5023 21.3608L45.699 22.5623C45.7671 22.8589 45.5628 23.1326 45.2677 23.1934H45.1694C45.071 23.1934 45.0029 23.163 44.9045 23.125L43.8074 22.5547C43.6409 22.4558 43.4442 22.4558 43.308 22.5547L42.2108 23.125C41.946 23.2619 41.613 23.1554 41.4844 22.8893C41.4163 22.7904 41.4163 22.6535 41.4163 22.5243L41.613 21.3228C41.6433 21.1555 41.5828 20.9578 41.4466 20.8209L40.5537 19.9541C40.3191 19.7564 40.3191 19.3837 40.5537 19.186C40.6521 19.0872 40.7504 19.0492 40.8488 19.0187L42.0746 18.8515C42.2411 18.821 42.4075 18.7146 42.4756 18.5549L43.0053 17.4523C43.202 17.3154 43.4063 17.1861 43.6031 17.1861M43.6031 16.8516C43.2701 16.8516 42.975 17.0493 42.8388 17.3534L42.3092 18.456C42.2789 18.5245 42.2108 18.5549 42.1427 18.5549L40.9169 18.7222C40.4553 18.7906 40.1224 19.2241 40.1905 19.7259C40.2208 19.9236 40.3267 20.0909 40.4553 20.2278L41.3482 21.0947C41.4163 21.1251 41.4163 21.2316 41.4163 21.2924L41.2196 22.4939C41.1893 22.76 41.2498 23.0261 41.4163 23.2239C41.5828 23.4216 41.8173 23.5584 42.0822 23.5584C42.2184 23.5584 42.3773 23.528 42.4832 23.4596L43.5425 22.8589C43.5425 22.8589 43.6106 22.8284 43.6409 22.8284C43.6712 22.8284 43.709 22.8284 43.7393 22.8589L44.8364 23.4292C44.9726 23.4976 45.1013 23.528 45.2375 23.528C45.5023 23.528 45.7369 23.3911 45.9033 23.1934C46.0698 22.9957 46.1379 22.7296 46.1001 22.4634L45.9033 21.262C45.9033 21.1935 45.9033 21.1251 45.9714 21.0643L46.9021 20.2278C47.2351 19.8932 47.2653 19.3305 46.9324 18.9959C46.7962 18.8591 46.6373 18.7602 46.433 18.7298L45.2072 18.5625C45.1391 18.5625 45.071 18.4941 45.0407 18.4636L44.5111 17.361C44.2765 17.0645 43.9814 16.8592 43.6182 16.8592L43.6031 16.8516Z" fill="#FFCA3A"/>
<path d="M53.5986 23.4066C53.5002 23.4066 53.364 23.3762 53.2657 23.3382L52.1685 22.7679C52.0701 22.6994 51.9339 22.6994 51.8053 22.7679L50.7081 23.3382C50.6098 23.4066 50.4736 23.437 50.3752 23.4066C50.1785 23.4066 49.9742 23.3078 49.8455 23.1405C49.7169 22.9732 49.6488 22.7755 49.6791 22.5702L49.8758 21.3383C49.9061 21.2014 49.8455 21.1026 49.7774 21.0037L48.9148 20.1368C48.65 19.8707 48.6197 19.4068 48.9148 19.1331C49.0132 19.0342 49.1797 18.9354 49.3159 18.9354L50.5417 18.7681C50.6779 18.7377 50.7762 18.6692 50.8368 18.5704L51.3664 17.4678C51.5329 17.1028 51.9642 16.9659 52.3274 17.1332C52.4636 17.2016 52.5922 17.3309 52.6603 17.4678L53.19 18.5704C53.2581 18.6692 53.3565 18.7681 53.4851 18.7681L54.7109 18.9354C55.1119 19.0038 55.3768 19.3688 55.3087 19.7338C55.2784 19.9011 55.2103 20.0304 55.1119 20.1368L54.2493 21.0037C54.151 21.1026 54.1132 21.2014 54.151 21.3383L54.3477 22.5702C54.378 22.7679 54.3174 23.0036 54.1812 23.1709C54.0148 23.3382 53.818 23.437 53.5835 23.4066H53.5986Z" fill="#FFCA3A"/>
<path d="M52.0096 17.2014C52.2064 17.2014 52.4106 17.3382 52.509 17.4979L53.0387 18.6005C53.1068 18.7678 53.2733 18.8667 53.4397 18.8971L54.6655 19.0644C54.9606 19.0948 55.1649 19.399 55.1271 19.6955C55.0968 19.8324 55.059 19.9313 54.9606 19.9921L54.098 20.859C53.9618 20.9958 53.9013 21.1555 53.9315 21.3608L54.1283 22.5623C54.1585 22.8589 53.9618 23.1326 53.6667 23.1934C53.5683 23.2239 53.4322 23.1934 53.3338 23.125L52.2366 22.5547C52.0701 22.4558 51.8734 22.4558 51.7372 22.5547L50.64 23.125C50.3752 23.2619 50.0423 23.1554 49.9136 22.8893C49.8455 22.7904 49.8456 22.6535 49.8456 22.5243L50.0423 21.3228C50.0725 21.1555 50.012 20.9578 49.8758 20.8209L49.0132 19.9541C48.7786 19.7564 48.7786 19.3837 49.0132 19.186C49.1116 19.0872 49.2099 19.0492 49.3083 19.0187L50.5341 18.8515C50.7006 18.821 50.8671 18.7146 50.9352 18.5549L51.4648 17.4523C51.601 17.3154 51.7977 17.1861 51.9945 17.1861M52.0247 16.8516C51.6918 16.8516 51.3967 17.0493 51.2303 17.3534L50.7006 18.456C50.6703 18.5245 50.6022 18.5549 50.5341 18.5549L49.3083 18.7222C48.9754 18.7526 48.7105 18.9883 48.6122 19.3229C48.5138 19.6575 48.5819 19.9921 48.8467 20.2202L49.7093 21.0871C49.7774 21.1175 49.7774 21.224 49.7774 21.2848L49.5807 22.4862C49.5504 22.7524 49.611 23.0185 49.7774 23.2162C49.9439 23.414 50.1785 23.5508 50.4433 23.5508C50.5795 23.5508 50.7384 23.5204 50.8443 23.452L51.9415 22.8817C51.9415 22.8817 52.0096 22.8512 52.0399 22.8512C52.0701 22.8512 52.108 22.8512 52.1382 22.8817L53.2354 23.452C53.3716 23.5204 53.5002 23.5508 53.6364 23.5508C53.9013 23.5508 54.1358 23.414 54.3023 23.2162C54.4688 23.0185 54.5369 22.7524 54.499 22.4862L54.3023 21.2848C54.3023 21.2164 54.3023 21.1479 54.3704 21.0871L55.233 20.2202C55.5659 19.8856 55.5962 19.3229 55.2633 18.9883C55.1271 18.8515 54.9682 18.7526 54.7639 18.7222L53.5381 18.5549C53.47 18.5549 53.4019 18.4865 53.3716 18.456L52.8419 17.3534C52.6755 17.0569 52.3425 16.8516 52.0474 16.8516H52.0247Z" fill="#FFCA3A"/>
<path d="M43.6106 17.2016C43.8073 17.2016 44.0116 17.3384 44.11 17.4981L44.6397 18.6007C44.7078 18.768 44.8742 18.8669 45.0407 18.8973L46.2665 19.0646C46.5616 19.095 46.7659 19.3992 46.7281 19.6957C46.6978 19.8326 46.66 19.9315 46.5616 19.9923L45.699 20.8592C45.5628 20.996 45.5023 21.1557 45.5325 21.361L45.7293 22.5625C45.7974 22.8591 45.5931 23.1328 45.298 23.1936H45.1996C45.1013 23.1936 45.0331 23.1632 44.9348 23.1252L43.8376 22.5549C43.6711 22.456 43.4744 22.456 43.3382 22.5549L42.241 23.1252C41.9762 23.2621 41.6433 23.1556 41.5146 22.8895C41.4465 22.7906 41.4465 22.6538 41.4465 22.5245L41.6433 21.323C41.6735 21.1557 41.613 20.958 41.4768 20.8592L40.5839 19.9923C40.3494 19.7946 40.3494 19.422 40.5839 19.2243C40.6823 19.1254 40.7807 19.0874 40.879 19.057L42.1048 18.8897C42.2713 18.8593 42.4378 18.7528 42.5059 18.5931L43.0356 17.4905C43.202 17.3232 43.3685 17.194 43.6031 17.194M43.6031 16.8594C43.2701 16.8594 42.975 17.0571 42.8085 17.3612L42.2789 18.4639C42.2486 18.5323 42.1805 18.5627 42.1124 18.5627L40.8866 18.73C40.425 18.7984 40.0921 19.2319 40.1602 19.7338C40.1905 19.9315 40.2964 20.0988 40.425 20.2356L41.3179 21.1025C41.386 21.1329 41.386 21.2394 41.386 21.3002L41.1893 22.5017C41.159 22.7678 41.2195 23.034 41.386 23.2317C41.5525 23.4294 41.787 23.5663 42.0519 23.5663C42.1881 23.5663 42.347 23.5358 42.4529 23.4674L43.5501 22.8667C43.5501 22.8667 43.6182 22.8363 43.6484 22.8363C43.6787 22.8363 43.7166 22.8363 43.7468 22.8667L44.844 23.437C44.9802 23.5054 45.1088 23.5358 45.245 23.5358C45.5098 23.5358 45.7444 23.399 45.9109 23.2013C46.0773 23.0035 46.1454 22.7374 46.1076 22.4713L45.9109 21.2698C45.9109 21.2014 45.9109 21.1329 45.979 21.0721L46.8416 20.2052C47.1745 19.8706 47.2048 19.3079 46.8718 18.9733C46.7356 18.8365 46.5767 18.7376 46.3724 18.7072L45.1466 18.5399C45.0785 18.5399 45.0104 18.4715 44.9802 18.441L44.4505 17.3384C44.2538 17.0723 43.9511 16.8746 43.6182 16.8746L43.6031 16.8594Z" fill="#FFCA3A"/>
<path d="M63.5185 20.2358C63.8515 19.9013 63.8817 19.3385 63.5488 19.004C63.4126 18.8671 63.2158 18.7682 63.0494 18.7378L61.8236 18.5705C61.7555 18.5705 61.6874 18.5021 61.6571 18.4717L61.1275 17.3691C60.8929 17.0725 60.5978 16.8672 60.2648 16.8672C59.9319 16.8672 59.6368 17.0649 59.4704 17.3691L58.9407 18.4717C58.9104 18.5401 58.8423 18.5705 58.7742 18.5705L57.5484 18.7378C57.0868 18.8062 56.7539 19.2397 56.822 19.7416C56.8523 19.9393 56.9582 20.1066 57.0868 20.2434L57.9797 21.1103C58.0478 21.1407 58.0478 21.2472 58.0478 21.308L57.8511 22.5095C57.8208 22.7756 57.8813 23.0418 58.0478 23.2395C58.2143 23.4372 58.4489 23.5741 58.7137 23.5741C58.8499 23.5741 59.0088 23.5436 59.1147 23.4752L60.2119 22.9049C60.2119 22.9049 60.28 22.8745 60.3103 22.8745C60.3405 22.8745 60.3783 22.8745 60.4086 22.9049L61.5058 23.4752C61.642 23.5436 61.7706 23.5741 61.9068 23.5741C62.1717 23.5741 62.4062 23.4372 62.5727 23.2395C62.7392 23.0418 62.8072 22.7756 62.7694 22.5095L62.5727 21.308C62.5727 21.2396 62.5727 21.1711 62.6408 21.1103L63.5336 20.2434L63.5185 20.2358ZM62.323 20.867C62.1868 21.0039 62.1262 21.1635 62.1565 21.3689L62.3533 22.5703C62.4214 22.8669 62.217 23.1406 61.9219 23.2015H61.8236C61.7252 23.2015 61.6571 23.171 61.5587 23.133L60.4616 22.5627C60.2951 22.4639 60.0984 22.4639 59.9622 22.5627L58.865 23.133C58.6986 23.2015 58.5321 23.2015 58.3656 23.133V18.9659L58.7666 18.8975C58.9331 18.8671 59.0996 18.7606 59.1677 18.6009L59.6973 17.4983C59.8638 17.331 60.0605 17.2018 60.2648 17.2018C60.4691 17.2018 60.6659 17.3386 60.7642 17.4983L61.2939 18.6009C61.362 18.7682 61.5285 18.8671 61.695 18.8975L62.9208 19.0648C63.2159 19.0952 63.4201 19.3994 63.3823 19.6959C63.352 19.8328 63.3142 19.9317 63.2158 19.9925L62.323 20.8594V20.867Z" fill="#FFCA3A"/>
<path d="M15.2507 1.5144C15.0767 1.34711 14.8421 1.25586 14.6076 1.25586C14.4941 1.25586 14.3881 1.27867 14.2822 1.31669L9.93893 2.95159L0.783259 6.38107C0.677326 6.41909 0.58653 6.47992 0.503296 6.54836C0.457896 6.58638 0.42763 6.632 0.397363 6.67763C0.367097 6.71565 0.32926 6.75367 0.298993 6.7993C0.246026 6.89055 0.208194 6.99701 0.19306 7.10346C0.185494 7.15669 0.19306 7.20992 0.19306 7.26315C0.19306 7.31638 0.185494 7.36961 0.19306 7.42284C0.208194 7.49127 0.238469 7.55211 0.261169 7.62055C0.276302 7.65857 0.283867 7.69659 0.306567 7.73461C0.3217 7.75742 0.336832 7.77263 0.351965 7.78784C0.397365 7.85628 0.450326 7.92471 0.510859 7.97794C0.525992 7.99315 0.55626 8.00076 0.571394 8.01596C0.639494 8.06159 0.7076 8.10721 0.790833 8.13763C0.790833 8.13763 0.790829 8.13763 0.798396 8.13763L6.9955 10.2744L9.39413 16.3653C9.43196 16.4642 9.48493 16.5478 9.54546 16.6239C9.56059 16.6391 9.5833 16.6543 9.59843 16.6695C9.6514 16.7227 9.71193 16.776 9.78003 16.814C9.81029 16.8292 9.84057 16.8444 9.87083 16.8596C9.93137 16.89 9.99946 16.9128 10.0676 16.928C10.0903 16.928 10.1054 16.9433 10.1205 16.9433C10.1659 16.9433 10.2113 16.9509 10.2643 16.9509C10.3248 16.9509 10.3778 16.9509 10.4383 16.9357C10.4535 16.9357 10.4686 16.9204 10.4913 16.9128C10.5518 16.8976 10.6048 16.8748 10.6653 16.8444C10.7032 16.8292 10.741 16.814 10.7788 16.7836C10.8318 16.7531 10.8696 16.7075 10.915 16.6619C10.9453 16.6315 10.9756 16.6087 10.9983 16.5783C11.0361 16.5326 11.0588 16.4718 11.0891 16.4186C11.1042 16.3805 11.1345 16.3501 11.142 16.3045C11.142 16.3045 11.1496 16.2893 11.1496 16.2817L15.4929 2.44211C15.5988 2.09992 15.508 1.72732 15.2432 1.47638L15.2507 1.5144Z" fill="#FF6161"/>
<path d="M1.10107 7.26326H10.2567V3.82617L1.10107 7.26326Z" fill="#AEADAE"/>
<path d="M10.2643 3.8263V16.031L14.6075 2.19141L10.2643 3.8263Z" fill="#D3D4D4"/>
<path d="M10.2643 7.2627H6.8139L10.2643 16.0303V7.2627Z" fill="#868686"/>
<path d="M1.10107 7.2627L7.66894 9.52874L6.80634 7.2627H1.10107Z" fill="#ACACAC"/>
</svg>
