<?xml version="1.0" encoding="UTF-8"?>
<svg id="Layer_1" data-name="Layer 1" xmlns="http://www.w3.org/2000/svg" viewBox="0 0 300 96">
  <defs>
    <style>
      .cls-1 {
        isolation: isolate;
      }

      .cls-2 {
        fill: #868686;
      }

      .cls-2, .cls-3, .cls-4, .cls-5, .cls-6, .cls-7, .cls-8, .cls-9, .cls-10, .cls-11, .cls-12 {
        stroke-width: 0px;
      }

      .cls-3 {
        fill: #575757;
      }

      .cls-4 {
        fill: #58595b;
      }

      .cls-5 {
        fill: #454546;
      }

      .cls-6 {
        fill: #231f20;
      }

      .cls-7 {
        fill: #cbcbca;
      }

      .cls-8 {
        fill: #d3d4d4;
      }

      .cls-9 {
        fill: #aeadae;
      }

      .cls-10 {
        fill: #acacac;
      }

      .cls-11 {
        fill: #fff;
      }

      .cls-12 {
        fill: #010101;
      }
    </style>
  </defs>
  <g>
    <rect class="cls-5" x="181.14" y="30.33" width="116.86" height="35.34" rx="17.67" ry="17.67"/>
    <g>
      <path class="cls-9" d="m177.71,39.14h12.1v-4.52l-12.1,4.52Z"/>
      <path class="cls-8" d="m189.82,34.62v16.05l5.74-18.2-5.74,2.15Z"/>
      <path class="cls-2" d="m189.82,39.14h-4.56l4.56,11.53v-11.53Z"/>
      <path class="cls-10" d="m177.71,39.14l8.68,2.98-1.14-2.98h-7.54Z"/>
    </g>
    <path class="cls-11" d="m205.47,46.42c-.09.09-.22.18-.35.26-.18.13-.39.22-.61.31-.31.13-.61.18-.92.26-.39.09-.83.13-1.23.09-.79,0-1.58-.13-2.32-.44-.61-.26-1.18-.66-1.62-1.18s-.75-1.14-.92-1.84c-.22-.75-.31-1.53-.31-2.32s.09-1.58.31-2.32c.18-.66.53-1.32.96-1.84s1.01-.96,1.62-1.23c.7-.31,1.49-.44,2.28-.44.39,0,.79.04,1.18.13.31.09.61.18.92.26.22.09.44.22.66.35.13.09.26.18.39.31.09.09.18.22.26.31.09.13.13.26.09.39,0,.26-.09.48-.26.7s-.35.44-.53.61c-.13-.13-.31-.26-.44-.39-.18-.13-.35-.26-.57-.35-.22-.13-.48-.22-.7-.26-.31-.09-.57-.13-.88-.09-.96-.04-1.84.44-2.32,1.23-.22.39-.39.79-.48,1.27s-.13.96-.13,1.45.04,1.01.13,1.49c.09.44.26.88.53,1.27.26.35.57.66.96.88.75.35,1.53.44,2.32.22.22-.09.48-.18.7-.26.18-.09.35-.22.53-.35.13-.13.26-.22.39-.31l.22.31c.09.09.18.22.26.35s.13.26.18.35.09.22.09.35-.04.26-.09.35c-.09-.04-.18.04-.31.13Z"/>
    <path class="cls-11" d="m214.07,45.15c-.04.66.09,1.32.39,1.93-.18.09-.35.13-.57.18-.18.04-.35.04-.53.04-.31,0-.66-.04-.92-.22-.22-.18-.35-.39-.39-.66-.26.26-.61.48-.96.66-.48.18-.96.26-1.49.26-.31,0-.61-.04-.92-.13s-.57-.22-.79-.39c-.26-.22-.48-.48-.61-.75-.18-.35-.26-.75-.22-1.14,0-.48.13-.96.39-1.4.26-.35.61-.66,1.01-.83.39-.22.88-.35,1.32-.44s.88-.13,1.32-.13h.75v-.31c.04-.35-.09-.66-.35-.92-.35-.22-.7-.31-1.1-.26-.44,0-.88.09-1.27.22-.39.18-.75.35-1.1.53-.18-.18-.31-.39-.39-.61-.09-.18-.13-.35-.13-.53s.13-.35.26-.44c.22-.18.44-.31.7-.39.35-.13.7-.22,1.05-.26.39-.09.83-.13,1.23-.09.53,0,1.05.04,1.53.18.39.09.75.31,1.01.57s.48.61.57.96c.13.44.18.88.18,1.36l.04,3.03Zm-2.15-1.93h-.44c-.26,0-.57.04-.83.09s-.48.13-.75.22c-.22.09-.39.26-.53.44-.13.22-.22.48-.22.75,0,.31.09.57.26.79.22.26.57.35.92.35.22,0,.39-.04.61-.09.18-.04.35-.13.48-.22s.26-.18.35-.31c.09-.09.13-.18.13-.31v-1.71Z"/>
    <path class="cls-11" d="m218.24,39.93c.22-.26.53-.48.83-.66.44-.22.92-.35,1.45-.31.39,0,.79.09,1.18.22s.7.39,1.01.66c.31.35.57.79.7,1.23.18.61.26,1.27.26,1.89,0,.75-.09,1.45-.31,2.15-.18.48-.44.92-.79,1.32-.31.31-.66.57-1.05.7s-.79.18-1.18.22c-.26,0-.57-.04-.83-.09-.22-.04-.44-.13-.61-.26-.13-.09-.26-.18-.39-.26-.04-.04-.13-.13-.18-.18v4.12h-2.28v-11.49l.22-.04c.09,0,.18-.04.22-.04h.31c.31,0,.66.04.96.18.22.18.39.39.48.66Zm2.98,3.07c0-.31-.04-.61-.09-.92-.04-.26-.13-.53-.26-.75s-.31-.39-.53-.48c-.26-.13-.53-.18-.79-.18-.35-.04-.7.04-.96.26-.18.13-.26.35-.26.57v3.55c.13.13.31.22.48.31.26.13.53.18.79.18.53.04,1.01-.22,1.23-.66.31-.57.44-1.23.39-1.89h0Z"/>
    <path class="cls-11" d="m225.34,45.9c-.09-.22-.13-.48-.13-.7,0-.26-.04-.48-.04-.75v-7.76l.26-.04c.09,0,.18-.04.26-.04h.26c.18,0,.35,0,.53.04s.35.09.48.22c.13.09.26.26.35.39.09.22.13.44.13.66v1.18h2.32v1.67h-2.32v3.55c0,.79.31,1.18.96,1.18.13,0,.31-.04.44-.09s.26-.09.39-.18c.09-.04.22-.13.31-.18.04-.04.13-.09.18-.13.13.22.26.39.39.66.09.18.13.31.13.53,0,.18-.04.31-.18.44-.13.18-.31.31-.48.39-.26.13-.48.22-.79.31s-.66.13-.96.09c-.57.04-1.14-.09-1.62-.39-.44-.26-.7-.61-.88-1.05Z"/>
    <path class="cls-11" d="m235.56,45.68c.26,0,.48-.04.75-.09.18-.04.39-.13.57-.22s.31-.18.44-.31l.35-.31c.18.22.31.44.44.66.13.18.22.39.22.66-.04.26-.18.53-.44.66-.31.22-.66.35-1.01.44-.48.13-1.01.22-1.49.18-.53,0-1.05-.09-1.53-.22s-.96-.35-1.36-.7c-.44-.35-.75-.79-.96-1.32-.26-.66-.39-1.4-.35-2.15,0-.61.09-1.23.35-1.8.18-.48.48-.92.88-1.27.35-.31.79-.57,1.23-.75.44-.13.92-.22,1.4-.22.53,0,1.1.09,1.58.31.39.18.79.44,1.05.79s.48.7.61,1.14.18.88.18,1.32v.83c0,.09,0,.13-.04.22h-4.96c.04.57.22,1.1.57,1.53.31.44.92.66,1.53.61h0Zm.75-3.38c0-.44-.09-.92-.31-1.32-.26-.35-.7-.57-1.14-.48-.44,0-.83.18-1.1.48-.31.39-.44.83-.39,1.32h2.94Z"/>
    <path class="cls-11" d="m242.31,39.97c.09-.13.18-.22.26-.35.13-.13.26-.26.39-.35.18-.09.35-.18.53-.26.22-.09.39-.09.61-.09.13,0,.31,0,.44.04.13,0,.31.04.44.13.13.04.22.13.31.26s.13.26.13.39c0,.31-.09.57-.18.83s-.22.53-.35.79c-.18-.13-.35-.26-.57-.35s-.44-.13-.66-.13c-.31,0-.61.09-.88.31-.22.18-.35.44-.35.7v5.44h-2.28v-8.16l.22-.04c.09,0,.18-.04.22-.04h.31c.31,0,.66.04.92.22s.44.39.48.66Z"/>
    <path class="cls-11" d="m248.76,39.97c.09-.13.18-.22.26-.35.13-.13.26-.22.39-.35.18-.09.35-.18.53-.26.22-.09.39-.09.61-.09.13,0,.31,0,.44.04.13,0,.26.04.39.13.13.04.22.13.31.26s.13.26.13.39c0,.31-.09.57-.18.83s-.22.53-.35.79c-.18-.13-.35-.26-.57-.35s-.44-.13-.66-.13c-.31,0-.61.09-.88.31-.22.18-.35.44-.35.7v5.44h-2.28v-8.16l.22-.04c.09,0,.18-.04.22-.04h.31c.31,0,.66.04.92.22.31.13.48.39.53.66h0Z"/>
    <path class="cls-11" d="m259.63,45.15c-.04.66.09,1.32.39,1.93-.18.09-.35.13-.57.18-.18.04-.35.04-.53.04-.31,0-.66-.04-.92-.22-.22-.18-.35-.39-.39-.66-.26.26-.61.48-.96.66-.48.18-.96.26-1.49.26-.31,0-.61-.04-.92-.13s-.57-.22-.83-.39-.48-.44-.61-.75c-.18-.35-.26-.75-.22-1.14-.04-.48.13-.96.39-1.4.26-.35.61-.66,1.01-.83.39-.22.88-.35,1.32-.44s.88-.13,1.32-.13h.79v-.31c.04-.35-.09-.66-.35-.92-.35-.22-.7-.31-1.1-.26-.44,0-.88.09-1.27.22-.39.18-.75.35-1.1.53-.18-.18-.31-.39-.39-.61-.09-.18-.13-.35-.13-.53s.13-.35.26-.44c.22-.18.44-.31.7-.39.35-.13.7-.22,1.05-.26.39-.09.83-.13,1.23-.09.53,0,1.05.04,1.53.18.39.09.75.31,1.01.57s.48.61.57.96c.13.44.18.88.18,1.36l.04,3.03Zm-2.15-1.93h-.44c-.26,0-.57.04-.83.09s-.48.13-.75.22c-.22.09-.39.26-.53.44-.13.22-.22.44-.22.7,0,.31.09.57.26.79.22.26.57.35.92.35.22,0,.39-.04.61-.09.18-.04.35-.13.48-.22s.26-.18.35-.31c.09-.09.13-.18.13-.31v-1.67Z"/>
    <path class="cls-9" d="m214.11,60.37c-.13,0-.31-.04-.44-.09l-1.45-.75c-.09-.04-.13-.04-.22-.04s-.18,0-.22.04l-1.45.75c-.13.09-.31.13-.44.09-.26,0-.53-.13-.7-.31-.18-.22-.26-.48-.22-.75l.26-1.62c.04-.18-.04-.31-.13-.44l-1.18-1.14c-.26-.26-.35-.61-.22-.96.09-.35.39-.57.75-.66l1.62-.26c.18-.04.31-.13.39-.26l.7-1.45c.22-.48.79-.66,1.27-.44.18.09.35.26.44.44l.75,1.45c.09.13.22.26.39.26l1.62.22c.35.04.66.31.75.66s0,.7-.26.96l-1.23,1.18c-.13.13-.18.26-.13.44l.26,1.62c.04.26,0,.57-.18.79-.22.18-.48.31-.75.26h0Z"/>
    <path class="cls-9" d="m212.01,52.21c.26,0,.53.18.66.39l.7,1.45c.09.22.31.35.53.39l1.62.22c.39.04.66.44.61.83-.04.18-.09.31-.22.39l-1.18,1.14c-.18.18-.26.39-.22.66l.26,1.58c.04.39-.22.75-.61.83-.13,0-.31,0-.44-.09l-1.45-.75c-.22-.13-.48-.13-.66,0l-1.36.79c-.35.18-.79.04-.96-.35-.09-.13-.09-.26-.09-.39l.26-1.58c.04-.22-.04-.48-.22-.66l-1.18-1.14c-.31-.26-.31-.75,0-1.01.13-.13.26-.18.39-.22l1.62-.22c.22-.04.44-.18.53-.39l.7-1.45c.18-.26.44-.44.7-.44m0-.44c-.44,0-.88.26-1.05.66l-.7,1.45c-.04.09-.13.13-.22.13l-1.62.22c-.44.04-.79.35-.92.79s-.04.88.31,1.18l1.18,1.14c.09.04.09.18.09.26l-.31,1.62c-.04.35.04.7.26.96s.53.44.88.44c.18,0,.39-.04.53-.13l1.45-.79c.09-.04.18-.04.26,0l1.45.75c.18.09.35.13.53.13.35,0,.66-.18.88-.44s.31-.61.26-.96l-.26-1.58c0-.09,0-.18.09-.26l1.14-1.1c.31-.31.44-.79.31-1.18-.13-.44-.48-.75-.92-.79l-1.62-.22c-.09,0-.18-.09-.22-.13l-.7-1.45c-.22-.44-.61-.7-1.05-.7Z"/>
    <path class="cls-8" d="m264.63,60.45s-.09-.04-.09-.09v-24.73s.04-.09.09-.09.09.04.09.09v24.73s-.04.09-.09.09Z"/>
    <g class="cls-1">
      <path class="cls-8" d="m278.18,51.42h-1.27v2.24h-3.07v-2.24h-4.6v-2.28l4.82-7.06h2.89v7.02h1.27v2.32h-.04Zm-4.39-2.32v-1.36c0-.26,0-.61.04-1.01,0-.44.04-.66.04-.66h-.09c-.18.39-.39.79-.61,1.14l-1.27,1.89h1.89Z"/>
      <path class="cls-8" d="m279.1,52.34c0-.48.13-.88.44-1.14s.7-.39,1.27-.39c.53,0,.92.13,1.18.39s.44.66.44,1.14-.13.83-.44,1.1-.7.39-1.18.39c-.53,0-.92-.13-1.23-.39-.35-.22-.48-.61-.48-1.1h0Z"/>
      <path class="cls-8" d="m292,53.66h-8.42v-2.06l2.85-2.85c.79-.83,1.32-1.4,1.58-1.71s.44-.57.53-.79.13-.44.13-.7c0-.31-.09-.53-.31-.7s-.48-.26-.83-.26-.75.09-1.1.31-.79.53-1.27.92l-1.71-2.02c.61-.53,1.1-.92,1.49-1.14s.83-.39,1.32-.53,1.01-.18,1.62-.18c.75,0,1.4.13,2.02.39.57.26,1.05.66,1.36,1.14s.48,1.05.48,1.62c0,.44-.04.88-.18,1.27s-.31.75-.53,1.14c-.22.35-.57.75-.96,1.18s-1.23,1.18-2.5,2.32v.09h4.39l.04,2.54Z"/>
    </g>
    <g>
      <path class="cls-9" d="m223.19,52.21c.26,0,.53.18.66.39l.7,1.45c.09.22.31.35.53.39l1.62.22c.39.04.66.44.61.83-.04.18-.09.31-.22.39l-1.18,1.14c-.18.18-.26.39-.22.66l.26,1.58c.09.39-.18.75-.57.83h-.13c-.13,0-.22-.04-.35-.09l-1.45-.75c-.22-.13-.48-.13-.66,0l-1.45.75c-.35.18-.79.04-.96-.31-.09-.13-.09-.31-.09-.48l.26-1.58c.04-.22-.04-.48-.22-.66l-1.14-1.1c-.31-.26-.31-.75,0-1.01.13-.13.26-.18.39-.22l1.62-.22c.22-.04.44-.18.53-.39l.7-1.45c.22-.22.48-.39.75-.39m0-.44c-.44,0-.83.26-1.05.66l-.7,1.45c-.04.09-.13.13-.22.13l-1.62.22c-.61.09-1.05.66-.96,1.32.04.26.18.48.35.66l1.18,1.14c.09.04.09.18.09.26l-.26,1.58c-.04.35.04.7.26.96s.53.44.88.44c.18,0,.39-.04.53-.13l1.45-.75s.09-.04.13-.04.09,0,.13.04l1.45.75c.18.09.35.13.53.13.35,0,.66-.18.88-.44s.31-.61.26-.96l-.26-1.58c0-.09,0-.18.09-.26l1.18-1.14c.44-.44.48-1.18.04-1.62-.18-.18-.44-.31-.66-.35l-1.62-.22c-.09,0-.18-.09-.22-.13l-.7-1.45c-.31-.39-.7-.66-1.14-.66Z"/>
      <path class="cls-9" d="m225.3,60.37c-.13,0-.31-.04-.44-.09l-1.45-.75c-.09-.04-.18-.04-.22-.04-.09,0-.18,0-.22.04l-1.45.75c-.13.09-.31.13-.44.09-.26,0-.53-.13-.75-.35-.18-.22-.26-.48-.22-.75l.26-1.62c.04-.18-.04-.31-.13-.44l-1.14-1.1c-.26-.26-.35-.61-.22-.96.09-.35.39-.61.75-.66l1.62-.22c.18-.04.31-.13.39-.26l.75-1.45c.22-.48.79-.66,1.27-.44.18.09.35.26.44.44l.7,1.45c.09.13.22.26.39.26l1.62.22c.53.09.88.57.79,1.1-.04.22-.13.39-.26.53l-1.18,1.14c-.13.13-.18.26-.13.44l.26,1.62c.04.26-.04.57-.22.75-.26.22-.53.31-.79.31h0Z"/>
      <path class="cls-9" d="m223.19,52.21c.26,0,.53.18.66.39l.7,1.45c.09.22.31.35.53.39l1.62.22c.39.04.66.44.61.83-.04.18-.09.31-.22.39l-1.18,1.14c-.18.18-.26.39-.22.66l.26,1.58c.09.39-.18.75-.57.83h-.13c-.13,0-.22-.04-.35-.09l-1.45-.75c-.22-.13-.48-.13-.66,0l-1.45.75c-.35.18-.79.04-.96-.31-.09-.13-.09-.31-.09-.48l.26-1.58c.04-.22-.04-.48-.22-.66l-1.14-1.1c-.31-.26-.31-.75,0-1.01.13-.13.26-.18.39-.22l1.62-.22c.22-.04.44-.18.53-.39l.7-1.45c.22-.22.48-.39.75-.39m0-.44c-.44,0-.83.26-1.05.66l-.7,1.45c-.04.09-.13.13-.22.13l-1.62.22c-.61.09-1.05.66-.96,1.32.04.26.18.48.35.66l1.18,1.14c.09.04.09.18.09.26l-.26,1.58c-.04.35.04.7.26.96s.53.44.88.44c.18,0,.39-.04.53-.13l1.45-.75s.09-.04.13-.04.09,0,.13.04l1.45.75c.18.09.35.13.53.13.35,0,.66-.18.88-.44s.31-.61.26-.96l-.26-1.58c0-.09,0-.18.09-.26l1.18-1.14c.44-.44.48-1.18.04-1.62-.18-.18-.44-.31-.66-.35l-1.62-.22c-.09,0-.18-.09-.22-.13l-.7-1.45c-.31-.39-.7-.66-1.14-.66Z"/>
      <path class="cls-9" d="m236,60.37c-.13,0-.31-.04-.44-.09l-1.45-.75c-.13-.09-.31-.09-.48,0l-1.45.75c-.13.09-.31.13-.44.09-.26,0-.53-.13-.75-.35-.18-.22-.26-.48-.22-.75l.26-1.62c.04-.18-.04-.31-.13-.44l-1.14-1.14c-.26-.26-.35-.61-.22-.96.09-.35.39-.61.75-.66l1.62-.22c.18-.04.31-.13.39-.26l.7-1.45c.22-.48.79-.66,1.27-.44.18.09.35.26.44.44l.7,1.45c.09.13.22.26.39.26l1.62.22c.53.09.88.57.79,1.05-.04.22-.13.39-.26.53l-1.14,1.14c-.13.13-.18.26-.13.44l.26,1.62c.04.26-.04.57-.22.75-.18.26-.44.39-.75.39h0Z"/>
      <path class="cls-9" d="m233.89,52.21c.26,0,.53.18.66.39l.7,1.45c.09.22.31.35.53.39l1.62.22c.39.04.66.44.61.83-.04.18-.09.31-.22.39l-1.18,1.14c-.18.18-.26.39-.22.66l.26,1.58c.09.39-.18.75-.57.83h-.13c-.13,0-.22-.04-.35-.09l-1.45-.75c-.22-.13-.48-.13-.66,0l-1.45.75c-.35.18-.79.04-.96-.31-.09-.13-.09-.31-.09-.48l.26-1.58c.04-.22-.04-.48-.22-.66l-1.18-1.14c-.31-.26-.31-.75,0-1.01.13-.13.26-.18.39-.22l1.62-.22c.22-.04.44-.18.53-.39l.7-1.45c.26-.18.53-.35.79-.35m0-.44c-.44,0-.83.26-1.01.66l-.7,1.45c-.04.09-.13.13-.22.13l-1.62.22c-.61.09-1.05.66-.96,1.32.04.26.18.48.35.66l1.18,1.14c.09.04.09.18.09.26l-.26,1.58c-.04.35.04.7.26.96s.53.44.88.44c.18,0,.39-.04.53-.13l1.4-.79s.09-.04.13-.04.09,0,.13.04l1.45.75c.18.09.35.13.53.13.35,0,.66-.18.88-.44s.31-.61.26-.96l-.26-1.58c0-.09,0-.18.09-.26l1.23-1.1c.44-.44.48-1.18.04-1.62-.18-.18-.39-.31-.66-.35l-1.62-.22c-.09,0-.18-.09-.22-.13l-.7-1.45c-.31-.39-.7-.66-1.18-.66h0Z"/>
      <path class="cls-9" d="m247.09,60.37c-.13,0-.31-.04-.44-.09l-1.45-.75c-.13-.09-.31-.09-.48,0l-1.45.75c-.13.09-.31.13-.44.09-.26,0-.53-.13-.7-.35s-.26-.48-.22-.75l.26-1.62c.04-.18-.04-.31-.13-.44l-1.14-1.14c-.35-.35-.39-.96,0-1.32.13-.13.35-.26.53-.26l1.62-.22c.18-.04.31-.13.39-.26l.7-1.45c.22-.48.79-.66,1.27-.44.18.09.35.26.44.44l.7,1.45c.09.13.22.26.39.26l1.62.22c.53.09.88.57.79,1.05-.04.22-.13.39-.26.53l-1.14,1.14c-.13.13-.18.26-.13.44l.26,1.62c.04.26-.04.57-.22.79-.22.22-.48.35-.79.31h0Z"/>
      <path class="cls-9" d="m244.99,52.21c.26,0,.53.18.66.39l.7,1.45c.09.22.31.35.53.39l1.62.22c.39.04.66.44.61.83-.04.18-.09.31-.22.39l-1.14,1.14c-.18.18-.26.39-.22.66l.26,1.58c.04.39-.22.75-.61.83-.13.04-.31,0-.44-.09l-1.45-.75c-.22-.13-.48-.13-.66,0l-1.45.75c-.35.18-.79.04-.96-.31-.09-.13-.09-.31-.09-.48l.26-1.58c.04-.22-.04-.48-.22-.66l-1.14-1.14c-.31-.26-.31-.75,0-1.01.13-.13.26-.18.39-.22l1.62-.22c.22-.04.44-.18.53-.39l.7-1.45c.18-.18.44-.35.7-.35m.04-.44c-.44,0-.83.26-1.05.66l-.7,1.45c-.04.09-.13.13-.22.13l-1.62.22c-.44.04-.79.35-.92.79s-.04.88.31,1.18l1.14,1.14c.09.04.09.18.09.26l-.26,1.58c-.04.35.04.7.26.96s.53.44.88.44c.18,0,.39-.04.53-.13l1.45-.75s.09-.04.13-.04.09,0,.13.04l1.45.75c.18.09.35.13.53.13.35,0,.66-.18.88-.44s.31-.61.26-.96l-.26-1.58c0-.09,0-.18.09-.26l1.14-1.14c.44-.44.48-1.18.04-1.62-.18-.18-.39-.31-.66-.35l-1.62-.22c-.09,0-.18-.09-.22-.13l-.7-1.45c-.22-.39-.66-.66-1.05-.66h0Z"/>
      <path class="cls-9" d="m233.89,52.21c.26,0,.53.18.66.39l.7,1.45c.09.22.31.35.53.39l1.62.22c.39.04.66.44.61.83-.04.18-.09.31-.22.39l-1.14,1.14c-.18.18-.26.39-.22.66l.26,1.58c.09.39-.18.75-.57.83h-.13c-.13,0-.22-.04-.35-.09l-1.45-.75c-.22-.13-.48-.13-.66,0l-1.45.75c-.35.18-.79.04-.96-.31-.09-.13-.09-.31-.09-.48l.26-1.58c.04-.22-.04-.48-.22-.61l-1.18-1.14c-.31-.26-.31-.75,0-1.01.13-.13.26-.18.39-.22l1.62-.22c.22-.04.44-.18.53-.39l.7-1.45c.22-.22.44-.39.75-.39m0-.44c-.44,0-.83.26-1.05.66l-.7,1.45c-.04.09-.13.13-.22.13l-1.62.22c-.61.09-1.05.66-.96,1.32.04.26.18.48.35.66l1.18,1.14c.09.04.09.18.09.26l-.26,1.58c-.04.35.04.7.26.96s.53.44.88.44c.18,0,.39-.04.53-.13l1.45-.79s.09-.04.13-.04.09,0,.13.04l1.45.75c.18.09.35.13.53.13.35,0,.66-.18.88-.44s.31-.61.26-.96l-.26-1.58c0-.09,0-.18.09-.26l1.14-1.14c.44-.44.48-1.18.04-1.62-.18-.18-.39-.31-.66-.35l-1.62-.22c-.09,0-.18-.09-.22-.13l-.7-1.45c-.26-.35-.66-.61-1.1-.61h0Z"/>
      <path class="cls-9" d="m260.2,56.2c.44-.44.48-1.18.04-1.62-.18-.18-.44-.31-.66-.35l-1.62-.22c-.09,0-.18-.09-.22-.13l-.7-1.45c-.31-.39-.7-.66-1.14-.66s-.83.26-1.05.66l-.7,1.45c-.04.09-.13.13-.22.13l-1.62.22c-.61.09-1.05.66-.96,1.32.04.26.18.48.35.66l1.18,1.14c.09.04.09.18.09.26l-.26,1.58c-.04.35.04.7.26.96s.53.44.88.44c.18,0,.39-.04.53-.13l1.45-.75s.09-.04.13-.04.09,0,.13.04l1.45.75c.18.09.35.13.53.13.35,0,.66-.18.88-.44s.31-.61.26-.96l-.26-1.58c0-.09,0-.18.09-.26l1.18-1.14Zm-1.58.83c-.18.18-.26.39-.22.66l.26,1.58c.09.39-.18.75-.57.83h-.13c-.13,0-.22-.04-.35-.09l-1.45-.75c-.22-.13-.48-.13-.66,0l-1.45.75c-.22.09-.44.09-.66,0v-5.48l.53-.09c.22-.04.44-.18.53-.39l.7-1.45c.22-.22.48-.39.75-.39s.53.18.66.39l.7,1.45c.09.22.31.35.53.39l1.62.22c.39.04.66.44.61.83-.04.18-.09.31-.22.39l-1.18,1.14Z"/>
    </g>
    <g>
      <path class="cls-3" d="m196.41,31.58c-.23-.22-.54-.34-.85-.34-.15,0-.29.03-.43.08l-5.74,2.15s0,0,0,0l-12.1,4.51c-.14.05-.26.13-.37.22-.06.05-.1.11-.14.17-.04.05-.09.1-.13.16-.07.12-.12.26-.14.4,0,0,0,0,0,0-.01.07,0,.14,0,.21,0,.07-.01.14,0,.21,0,0,0,0,0,0,.02.09.06.17.09.26.02.05.03.1.06.15.02.03.04.05.06.07.06.09.13.18.21.25.02.02.06.03.08.05.09.06.18.12.29.16,0,0,0,0,.01,0l8.19,2.81,3.17,8.01c.05.13.12.24.2.34.02.02.05.04.07.06.07.07.15.14.24.19.04.02.08.04.12.06.08.04.17.07.26.09.03,0,.05.02.07.02.06,0,.12.01.19.01,0,0,0,0,0,0,0,0,0,0,0,0,0,0,0,0,0,0,0,0,0,0,0,0,.08,0,.15,0,.23-.02.02,0,.04-.02.07-.03.08-.02.15-.05.23-.09.05-.02.1-.04.15-.08.07-.04.12-.1.18-.16.04-.04.08-.07.11-.11.05-.06.08-.14.12-.21.02-.05.06-.09.07-.15,0,0,.01-.02.01-.03l5.74-18.2c.14-.45.02-.94-.33-1.27Z"/>
      <path class="cls-9" d="m177.71,39.14h12.1v-4.52l-12.1,4.52Z"/>
      <path class="cls-8" d="m189.82,34.62v16.05l5.74-18.2-5.74,2.15Z"/>
      <path class="cls-2" d="m189.82,39.14h-4.56l4.56,11.53v-11.53Z"/>
      <path class="cls-10" d="m177.71,39.14l8.68,2.98-1.14-2.98h-7.54Z"/>
    </g>
  </g>
  <path class="cls-7" d="m12.85,75.84l27.38,13.92c2.01,1.02,4.4,1.01,6.4-.04l26.34-13.85c2.29-1.2,3.73-3.58,3.73-6.17V14.39c0-4.54-3.68-8.22-8.22-8.22H17.25c-4.54,0-8.22,3.68-8.22,8.22v55.24c0,2.62,1.47,5.02,3.81,6.21Z"/>
  <rect class="cls-4" x="5.6" y="48" width="74.52" height="13.32" rx="3.65" ry="3.65"/>
  <g>
    <path class="cls-11" d="m16.88,52.48s-.04.03-.07.03h-2.77s-.04.01-.04.04v1.31s.01.04.04.04h1.82s.05.01.07.03c.02.02.03.04.03.07v.82s0,.05-.03.07c-.02.02-.04.03-.07.03h-1.82s-.04.01-.04.04v2.34s0,.05-.03.07c-.02.02-.04.03-.07.03h-.99s-.05,0-.07-.03-.03-.04-.03-.07v-5.72s0-.05.03-.07.04-.03.07-.03h3.9s.05,0,.07.03c.02.02.03.04.03.07v.82s0,.05-.03.07Z"/>
    <path class="cls-11" d="m19.77,53.18c.29.13.51.3.67.52.16.22.24.47.24.74v2.87s0,.05-.03.07-.04.03-.07.03h-.99s-.05,0-.07-.03-.03-.04-.03-.07v-.28s0-.03-.02-.03c-.01,0-.02,0-.03.02-.24.31-.62.47-1.14.47-.44,0-.8-.11-1.07-.32-.27-.21-.41-.53-.41-.95s.15-.77.46-1.01c.3-.24.74-.36,1.3-.36h.86s.04-.01.04-.04v-.19c0-.19-.06-.33-.17-.44s-.28-.16-.51-.16c-.18,0-.32.03-.44.09-.12.06-.19.15-.22.26-.02.06-.05.09-.11.08l-1.02-.14c-.07-.01-.1-.04-.09-.08.02-.24.12-.45.28-.64s.39-.34.66-.45c.27-.11.58-.16.92-.16.37,0,.69.06.98.19Zm-.53,3.21c.17-.13.25-.3.25-.5v-.3s-.01-.04-.04-.04h-.61c-.25,0-.45.05-.6.14-.14.1-.22.23-.22.41,0,.15.05.27.16.36.11.09.25.13.43.13.24,0,.45-.06.62-.19Z"/>
    <path class="cls-11" d="m22.27,57.31c-.28-.11-.5-.26-.66-.45-.16-.19-.23-.41-.23-.65v-.08s0-.05.03-.07c.02-.02.04-.03.07-.03h.94s.05,0,.07.03c.02.02.03.04.03.07h0c0,.13.07.24.21.33.14.09.31.13.52.13.19,0,.35-.04.47-.11s.18-.17.18-.28c0-.1-.05-.18-.15-.23s-.27-.1-.5-.16c-.27-.07-.47-.13-.63-.19-.36-.12-.65-.28-.86-.46-.21-.18-.32-.44-.32-.78,0-.42.16-.75.49-1,.32-.25.75-.37,1.29-.37.36,0,.68.06.95.17.27.12.48.28.63.49.15.21.22.45.22.71,0,.03,0,.05-.03.07s-.04.03-.07.03h-.91s-.05,0-.07-.03c-.02-.02-.03-.04-.03-.07,0-.12-.06-.23-.19-.31-.13-.08-.29-.13-.5-.13-.19,0-.34.03-.46.1-.12.07-.18.16-.18.28s.06.2.17.25c.12.06.31.12.58.18.06.02.13.04.21.05.08.02.16.04.25.07.4.12.72.27.95.46.23.19.35.46.35.81,0,.42-.17.74-.5.98s-.77.35-1.33.35c-.38,0-.71-.05-.99-.16Z"/>
    <path class="cls-11" d="m28.23,53.98s-.04.03-.07.03h-.81s-.04.01-.04.04v1.79c0,.19.04.32.11.41.08.09.2.14.37.14h.28s.05,0,.07.03.03.04.03.07v.8c0,.06-.03.1-.1.11-.24.01-.41.02-.51.02-.47,0-.82-.08-1.05-.23s-.35-.45-.36-.88v-2.27s-.01-.04-.04-.04h-.48s-.05,0-.07-.03c-.02-.02-.03-.04-.03-.07v-.75s0-.05.03-.07.04-.03.07-.03h.48s.04-.01.04-.04v-1.01s0-.05.03-.07.04-.03.07-.03h.95s.05,0,.07.03.03.04.03.07v1.01s.01.04.04.04h.81s.05,0,.07.03.03.04.03.07v.75s0,.05-.03.07Z"/>
    <path class="cls-11" d="m32.81,55.5c0,.07-.04.1-.11.1h-2.62s-.05.01-.03.04c.02.11.05.23.09.34.15.32.45.47.9.47.36,0,.65-.15.85-.44.02-.03.05-.05.08-.05.02,0,.04.01.06.03l.61.6s.04.05.04.08c0,.01-.01.03-.03.07-.19.23-.43.41-.72.54s-.62.19-.96.19c-.49,0-.9-.11-1.23-.33-.34-.22-.58-.53-.72-.92-.12-.28-.18-.65-.18-1.11,0-.31.04-.58.13-.82.13-.4.36-.72.68-.96.32-.24.71-.36,1.16-.36.56,0,1.02.16,1.36.49.34.33.55.77.62,1.31.03.21.04.45.03.72Zm-2.71-.99c-.02.07-.04.16-.06.27,0,.03.01.04.04.04h1.46s.04-.01.03-.04c-.03-.16-.04-.24-.04-.24-.05-.17-.14-.3-.27-.39s-.28-.14-.47-.14c-.36,0-.59.17-.7.5Z"/>
    <path class="cls-11" d="m34.23,57.31c-.28-.11-.5-.26-.66-.45-.16-.19-.23-.41-.23-.65v-.08s0-.05.03-.07c.02-.02.04-.03.07-.03h.94s.05,0,.07.03c.02.02.03.04.03.07h0c0,.13.07.24.21.33.14.09.31.13.52.13.19,0,.35-.04.47-.11s.18-.17.18-.28c0-.1-.05-.18-.15-.23s-.27-.1-.5-.16c-.27-.07-.47-.13-.63-.19-.36-.12-.65-.28-.86-.46-.21-.18-.32-.44-.32-.78,0-.42.16-.75.49-1,.32-.25.75-.37,1.29-.37.36,0,.68.06.95.17.27.12.48.28.63.49.15.21.22.45.22.71,0,.03,0,.05-.03.07s-.04.03-.07.03h-.91s-.05,0-.07-.03c-.02-.02-.03-.04-.03-.07,0-.12-.06-.23-.19-.31-.13-.08-.29-.13-.5-.13-.19,0-.34.03-.46.1-.12.07-.18.16-.18.28s.06.2.17.25c.12.06.31.12.58.18.06.02.13.04.21.05.08.02.16.04.25.07.4.12.72.27.95.46.23.19.35.46.35.81,0,.42-.17.74-.5.98s-.77.35-1.33.35c-.38,0-.71-.05-.99-.16Z"/>
    <path class="cls-11" d="m40.19,53.98s-.04.03-.07.03h-.81s-.04.01-.04.04v1.79c0,.19.04.32.11.41.08.09.2.14.37.14h.28s.05,0,.07.03.03.04.03.07v.8c0,.06-.03.1-.1.11-.24.01-.41.02-.51.02-.47,0-.82-.08-1.05-.23s-.35-.45-.36-.88v-2.27s-.01-.04-.04-.04h-.48s-.05,0-.07-.03c-.02-.02-.03-.04-.03-.07v-.75s0-.05.03-.07.04-.03.07-.03h.48s.04-.01.04-.04v-1.01s0-.05.03-.07.04-.03.07-.03h.95s.05,0,.07.03.03.04.03.07v1.01s.01.04.04.04h.81s.05,0,.07.03.03.04.03.07v.75s0,.05-.03.07Z"/>
    <path class="cls-11" d="m43.64,57.21c-.33-.17-.59-.42-.77-.73-.18-.31-.27-.68-.27-1.09v-1.9c0-.41.09-.78.27-1.09.18-.32.44-.56.77-.73.33-.17.72-.26,1.15-.26s.81.08,1.14.25c.33.17.59.4.77.69.18.29.28.61.28.97v.06s-.01.05-.03.07-.04.03-.07.03h-.99s-.05,0-.07-.03c-.02-.02-.03-.04-.03-.07v-.03c0-.26-.09-.48-.27-.66s-.42-.27-.72-.27-.55.09-.73.28c-.18.19-.28.44-.28.74v1.96c0,.3.1.55.3.74s.45.28.75.28.53-.08.7-.23.26-.37.26-.65v-.38s-.01-.04-.04-.04h-.95s-.05,0-.07-.03c-.02-.02-.03-.04-.03-.07v-.78s0-.05.03-.07c.02-.02.04-.03.07-.03h2.07s.05,0,.07.03.03.04.03.07v1.12c0,.43-.09.8-.27,1.12s-.44.56-.77.72-.71.25-1.15.25-.82-.09-1.15-.26Z"/>
    <path class="cls-11" d="m50.47,53.12s.06.06.05.13l-.18.97c0,.07-.05.09-.12.06-.08-.03-.18-.04-.3-.04-.04,0-.11,0-.19.02-.2.02-.38.09-.52.22-.14.13-.21.31-.21.53v2.31s0,.05-.03.07c-.02.02-.04.03-.07.03h-.99s-.05,0-.07-.03-.03-.04-.03-.07v-4.15s0-.05.03-.07c.02-.02.04-.03.07-.03h.99s.05,0,.07.03.03.04.03.07v.32s0,.03.02.03c.01,0,.02,0,.03,0,.23-.34.54-.51.93-.51.2,0,.36.04.48.12Z"/>
    <path class="cls-11" d="m51.65,57.1c-.34-.25-.57-.59-.69-1.02-.08-.27-.12-.55-.12-.86,0-.33.04-.63.12-.9.13-.42.36-.74.7-.98.34-.24.75-.36,1.22-.36s.86.12,1.19.35c.33.23.56.56.69.98.09.28.14.58.14.89s-.04.59-.12.85c-.12.44-.35.79-.69,1.04-.34.25-.74.38-1.21.38s-.88-.12-1.22-.37Zm1.69-.82c.13-.11.22-.27.28-.47.04-.18.07-.38.07-.59,0-.24-.02-.44-.07-.6-.06-.19-.16-.34-.29-.45-.13-.11-.29-.16-.47-.16s-.35.05-.48.16c-.13.11-.22.26-.27.45-.05.14-.07.34-.07.6s.02.45.06.59c.06.2.15.35.28.47s.29.17.49.17.34-.06.47-.17Z"/>
    <path class="cls-11" d="m56.39,57.32l-1.22-4.16v-.03c0-.06.02-.08.08-.08h1.02c.06,0,.1.03.12.08l.61,2.56s.01.03.03.03.02,0,.03-.03l.63-2.56c.02-.06.06-.08.12-.08h.89c.06,0,.1.03.12.08l.67,2.56s.01.03.03.03.02,0,.03-.03l.66-2.56c.02-.06.06-.08.12-.08l1.02.02s.06,0,.07.03c.01.02.02.05.01.08l-1.24,4.15c-.02.06-.05.08-.11.08h-1.02c-.06,0-.1-.03-.12-.08l-.65-2.27s-.01-.03-.03-.03-.02,0-.03.03l-.58,2.27c-.02.06-.06.08-.12.08h-1.02c-.06,0-.1-.03-.12-.08Z"/>
    <path class="cls-11" d="m62.22,52.38c-.13-.13-.19-.29-.19-.48s.06-.36.19-.48c.12-.12.28-.19.48-.19s.36.06.48.19c.12.12.19.29.19.48s-.06.35-.19.48-.29.19-.48.19-.35-.06-.48-.19Zm-.1,5s-.03-.04-.03-.07v-4.16s0-.05.03-.07.04-.03.07-.03h.99s.05.01.07.03c.02.02.03.04.03.07v4.16s0,.05-.03.07-.04.03-.07.03h-.99s-.05,0-.07-.03Z"/>
    <path class="cls-11" d="m67.58,53.41c.28.28.42.65.42,1.13v2.78s0,.05-.03.07c-.02.02-.04.03-.07.03h-.99s-.05,0-.07-.03c-.02-.02-.03-.04-.03-.07v-2.53c0-.23-.06-.41-.19-.55s-.29-.21-.5-.21-.38.07-.5.21-.19.32-.19.55v2.53s0,.05-.03.07c-.02.02-.04.03-.07.03h-.99s-.05,0-.07-.03-.03-.04-.03-.07v-4.15s0-.05.03-.07c.02-.02.04-.03.07-.03h.99s.05,0,.07.03.03.04.03.07v.3s0,.03.02.03c.01,0,.02,0,.03,0,.23-.33.58-.49,1.03-.49s.82.14,1.09.42Z"/>
    <path class="cls-11" d="m71.53,53.09s.04-.03.07-.03h.99s.05,0,.07.03.03.04.03.07v3.86c0,.74-.21,1.27-.64,1.58-.43.32-.98.47-1.65.47-.2,0-.42-.01-.66-.04-.06,0-.08-.04-.08-.11l.03-.87c0-.07.04-.1.12-.09.2.03.39.05.56.05.36,0,.64-.08.83-.24.19-.16.29-.41.29-.76,0-.02,0-.03-.02-.03-.01,0-.02,0-.03.01-.21.23-.53.35-.94.35-.37,0-.7-.09-1.01-.27s-.53-.46-.66-.86c-.08-.26-.13-.6-.13-1.01,0-.44.05-.8.15-1.07.12-.34.32-.62.6-.83.28-.21.61-.31.98-.31.43,0,.77.13,1,.39.01.01.02.02.03.01.01,0,.02-.01.02-.03v-.2s0-.05.03-.07Zm-.03,2.11c0-.17,0-.31-.02-.41-.01-.1-.03-.19-.06-.27-.05-.15-.14-.27-.25-.37-.12-.09-.27-.14-.44-.14s-.31.05-.43.14c-.12.09-.21.22-.26.37-.08.17-.12.4-.12.69,0,.32.03.54.1.68.05.15.14.28.27.37.13.09.28.14.45.14s.33-.05.45-.14c.12-.09.2-.21.25-.36.04-.17.07-.4.07-.69Z"/>
  </g>
  <g>
    <path class="cls-6" d="m20.74,66.86c.42.22.63.58.63,1.08,0,.43-.15.75-.44.97s-.67.33-1.15.33h-1.72s-.04,0-.06-.02c-.02-.02-.02-.03-.02-.06v-4.48s0-.04.02-.06c.02-.02.03-.02.06-.02h1.66c1.05,0,1.57.42,1.57,1.27,0,.44-.19.76-.56.95-.03.01-.03.03,0,.04Zm-1.82-1.43v1.03s.01.03.03.03h.78c.21,0,.37-.05.48-.15s.17-.23.17-.4-.06-.31-.17-.41c-.11-.1-.28-.15-.48-.15h-.78s-.03.01-.03.03Zm1.34,2.84c.11-.1.17-.25.17-.43s-.06-.32-.17-.43c-.11-.1-.28-.16-.48-.16h-.82s-.03.01-.03.03v1.1s.01.03.03.03h.83c.2,0,.36-.05.48-.16Z"/>
    <path class="cls-6" d="m25.29,65.38s-.03.02-.06.02h-2.17s-.03.01-.03.03v1.03s.01.03.03.03h1.43s.04,0,.06.02c.02.02.02.03.02.06v.64s0,.04-.02.06c-.02.02-.03.02-.06.02h-1.43s-.03.01-.03.03v1.07s.01.03.03.03h2.17s.04,0,.06.02c.02.02.02.03.02.06v.64s0,.04-.02.06c-.02.02-.03.02-.06.02h-3.06s-.04,0-.06-.02c-.02-.02-.02-.03-.02-.06v-4.48s0-.04.02-.06c.02-.02.03-.02.06-.02h3.06s.04,0,.06.02.02.03.02.06v.64s0,.04-.02.06Z"/>
    <path class="cls-6" d="m26.63,69.13c-.27-.11-.47-.27-.61-.48-.14-.21-.22-.45-.22-.73v-.15s0-.04.02-.06c.02-.02.03-.02.06-.02h.76s.04,0,.06.02.02.03.02.06v.1c0,.18.08.33.25.45.16.12.38.18.66.18.23,0,.41-.05.52-.15s.17-.22.17-.37c0-.11-.04-.2-.11-.27-.07-.07-.17-.14-.29-.19-.12-.06-.31-.13-.58-.23-.3-.1-.55-.21-.75-.31s-.38-.25-.52-.43c-.14-.18-.21-.41-.21-.68s.07-.5.21-.7c.14-.2.33-.35.57-.46.24-.11.52-.16.84-.16.34,0,.64.06.9.18.26.12.47.29.62.5.15.21.22.46.22.75v.1s0,.04-.02.06c-.02.02-.03.02-.06.02h-.76s-.04,0-.06-.02-.02-.03-.02-.06v-.05c0-.19-.08-.34-.23-.47-.15-.13-.36-.2-.63-.2-.21,0-.37.04-.49.13-.12.09-.18.21-.18.36,0,.11.03.2.1.28.07.07.17.14.3.2.13.06.34.14.63.24.31.11.56.22.74.31.18.09.34.22.48.39.14.17.22.4.22.68,0,.42-.15.74-.46.98-.3.24-.72.36-1.24.36-.35,0-.66-.06-.93-.17Z"/>
    <path class="cls-6" d="m33.12,64.63s.02.03.02.06v.65s0,.04-.02.06-.03.02-.06.02h-1.19s-.03.01-.03.03v3.72s0,.04-.02.06c-.02.02-.03.02-.06.02h-.78s-.04,0-.06-.02c-.02-.02-.02-.03-.02-.06v-3.72s-.01-.03-.03-.03h-1.15s-.04,0-.06-.02-.02-.03-.02-.06v-.65s0-.04.02-.06c.02-.02.03-.02.06-.02h3.34s.04,0,.06.02Z"/>
    <path class="cls-6" d="m35.72,69.13c-.27-.11-.47-.27-.61-.48-.14-.21-.22-.45-.22-.73v-.15s0-.04.02-.06c.02-.02.03-.02.06-.02h.76s.04,0,.06.02.02.03.02.06v.1c0,.18.08.33.25.45.16.12.38.18.66.18.23,0,.41-.05.52-.15s.17-.22.17-.37c0-.11-.04-.2-.11-.27-.07-.07-.17-.14-.29-.19-.12-.06-.31-.13-.58-.23-.3-.1-.55-.21-.75-.31s-.38-.25-.52-.43c-.14-.18-.21-.41-.21-.68s.07-.5.21-.7c.14-.2.33-.35.57-.46.24-.11.52-.16.84-.16.34,0,.64.06.9.18.26.12.47.29.62.5.15.21.22.46.22.75v.1s0,.04-.02.06c-.02.02-.03.02-.06.02h-.76s-.04,0-.06-.02-.02-.03-.02-.06v-.05c0-.19-.08-.34-.23-.47-.15-.13-.36-.2-.63-.2-.21,0-.37.04-.49.13-.12.09-.18.21-.18.36,0,.11.03.2.1.28.07.07.17.14.3.2.13.06.34.14.63.24.31.11.56.22.74.31.18.09.34.22.48.39.14.17.22.4.22.68,0,.42-.15.74-.46.98-.3.24-.72.36-1.24.36-.35,0-.66-.06-.93-.17Z"/>
    <path class="cls-6" d="m39.74,69.11c-.26-.14-.47-.34-.61-.59-.15-.25-.22-.55-.22-.88v-1.42c0-.33.07-.62.22-.87.15-.25.35-.45.61-.59s.57-.21.91-.21.66.07.92.21.47.34.61.59c.15.25.22.54.22.87v1.42c0,.33-.07.63-.22.88-.15.26-.35.45-.61.59s-.57.21-.92.21-.65-.07-.91-.21Zm1.5-.82c.15-.15.23-.36.23-.62v-1.46c0-.26-.07-.46-.22-.62-.15-.16-.35-.24-.59-.24s-.44.08-.59.24c-.15.16-.22.36-.22.62v1.46c0,.26.07.46.22.62.15.15.34.23.59.23s.44-.08.59-.23Z"/>
    <path class="cls-6" d="m46.31,65.38s-.03.02-.06.02h-2.17s-.03.01-.03.03v1.03s.01.03.03.03h1.43s.04,0,.06.02c.02.02.02.03.02.06v.64s0,.04-.02.06c-.02.02-.03.02-.06.02h-1.43s-.03.01-.03.03v1.83s0,.04-.02.06-.03.02-.06.02h-.78s-.04,0-.06-.02c-.02-.02-.02-.03-.02-.06v-4.48s0-.04.02-.06c.02-.02.03-.02.06-.02h3.06s.04,0,.06.02c.02.02.02.03.02.06v.64s0,.04-.02.06Z"/>
    <path class="cls-6" d="m50.09,64.63s.02.03.02.06v.65s0,.04-.02.06-.03.02-.06.02h-1.19s-.03.01-.03.03v3.72s0,.04-.02.06c-.02.02-.03.02-.06.02h-.78s-.04,0-.06-.02c-.02-.02-.02-.03-.02-.06v-3.72s-.01-.03-.03-.03h-1.15s-.04,0-.06-.02-.02-.03-.02-.06v-.65s0-.04.02-.06c.02-.02.03-.02.06-.02h3.34s.04,0,.06.02Z"/>
    <path class="cls-6" d="m51.65,69.18l-1.17-4.49v-.03s.02-.06.07-.06h.82s.07.02.09.07l.63,2.7s.01.03.02.03.02,0,.02-.03l.61-2.69s.04-.07.09-.07h.8s.08.02.09.07l.66,2.7s.01.02.02.02c0,0,.02,0,.02-.02l.61-2.69s.04-.07.09-.07h.78c.06,0,.09.03.07.09l-1.09,4.49s-.04.07-.09.07h-.79s-.07-.02-.09-.07l-.68-2.87s-.01-.03-.02-.03-.02,0-.02.03l-.63,2.86s-.04.07-.09.07h-.74s-.08-.02-.09-.07Z"/>
    <path class="cls-6" d="m58.72,69.18l-.2-.65s-.02-.03-.03-.03h-1.63s-.02,0-.03.03l-.19.65s-.04.07-.09.07h-.84s-.05,0-.06-.02-.02-.04,0-.07l1.43-4.48s.04-.07.09-.07h1.04s.07.02.09.07l1.43,4.48s0,.02,0,.03c0,.04-.02.06-.07.06h-.84s-.07-.02-.09-.07Zm-1.63-1.4h1.17s.04-.01.03-.04l-.6-1.97s-.01-.03-.02-.02c0,0-.02.01-.02.02l-.58,1.97s0,.04.03.04Z"/>
    <path class="cls-6" d="m62.76,69.19l-.83-1.84s-.02-.03-.04-.03h-.62s-.03.01-.03.03v1.81s0,.04-.02.06-.03.02-.06.02h-.78s-.04,0-.06-.02c-.02-.02-.02-.03-.02-.06v-4.48s0-.04.02-.06c.02-.02.03-.02.06-.02h1.9c.28,0,.53.06.75.17s.38.28.5.49c.12.21.18.46.18.74,0,.3-.08.56-.23.77s-.36.37-.63.45c-.02,0-.03.02-.02.05l.9,1.88s.01.03.01.04c0,.04-.02.05-.07.05h-.82s-.08-.02-.09-.06Zm-1.52-3.75v1.13s.01.03.03.03h.87c.19,0,.34-.06.45-.17s.18-.25.18-.43-.06-.32-.18-.43c-.12-.11-.27-.17-.45-.17h-.87s-.03.01-.03.03Z"/>
    <path class="cls-6" d="m67.57,65.38s-.03.02-.06.02h-2.17s-.03.01-.03.03v1.03s.01.03.03.03h1.43s.04,0,.06.02c.02.02.02.03.02.06v.64s0,.04-.02.06c-.02.02-.03.02-.06.02h-1.43s-.03.01-.03.03v1.07s.01.03.03.03h2.17s.04,0,.06.02c.02.02.02.03.02.06v.64s0,.04-.02.06c-.02.02-.03.02-.06.02h-3.06s-.04,0-.06-.02c-.02-.02-.02-.03-.02-.06v-4.48s0-.04.02-.06c.02-.02.03-.02.06-.02h3.06s.04,0,.06.02.02.03.02.06v.64s0,.04-.02.06Z"/>
  </g>
  <path class="cls-7" d="m95.8,75.84l27.38,13.92c2.01,1.02,4.4,1.01,6.4-.04l26.34-13.85c2.29-1.2,3.73-3.58,3.73-6.17V14.39c0-4.54-3.68-8.22-8.22-8.22h-51.22c-4.54,0-8.22,3.68-8.22,8.22v55.24c0,2.62,1.47,5.02,3.81,6.21Z"/>
  <g>
    <path class="cls-12" d="m103.03,42.92s-.05-.08-.05-.13v-10.17c0-.05.02-.09.05-.13s.08-.05.13-.05h1.76c.05,0,.09.02.13.05s.05.08.05.13v8.46c0,.05.02.08.08.08h4.92s.09.02.13.05c.04.04.05.08.05.13v1.46c0,.05-.02.09-.05.13s-.08.05-.13.05h-6.94c-.05,0-.09-.02-.13-.05Z"/>
    <path class="cls-12" d="m118.36,39.59c-.01.12-.08.18-.2.18h-4.65c-.06,0-.08.03-.06.08.03.2.08.4.17.6.26.56.79.84,1.6.84.64,0,1.15-.27,1.52-.78.04-.06.08-.09.14-.09.03,0,.06.02.1.06l1.08,1.07c.05.05.08.1.08.14,0,.02-.02.06-.06.12-.33.41-.76.73-1.28.96-.52.23-1.09.34-1.72.34-.86,0-1.59-.2-2.19-.59-.6-.39-1.03-.94-1.29-1.64-.21-.5-.32-1.16-.32-1.97,0-.55.08-1.04.23-1.46.23-.71.63-1.28,1.21-1.7.58-.42,1.26-.63,2.05-.63,1,0,1.81.29,2.42.87.61.58.98,1.36,1.11,2.33.06.38.08.81.06,1.28Zm-4.82-1.76c-.04.13-.08.29-.11.48,0,.05.02.08.08.08h2.6c.06,0,.08-.02.06-.08-.05-.29-.08-.43-.08-.42-.09-.3-.25-.53-.47-.7-.23-.17-.5-.25-.84-.25-.63,0-1.05.3-1.25.89Z"/>
    <path class="cls-12" d="m124.42,35.46c.51.23.91.53,1.2.93.29.39.43.83.43,1.31v5.1c0,.05-.02.09-.05.13s-.08.05-.13.05h-1.76c-.05,0-.09-.02-.13-.05s-.05-.08-.05-.13v-.5s0-.05-.03-.06c-.02,0-.04,0-.06.03-.42.55-1.1.83-2.03.83-.78,0-1.42-.19-1.9-.57-.48-.38-.72-.94-.72-1.69s.27-1.37.81-1.8c.54-.43,1.31-.64,2.32-.64h1.54c.05,0,.08-.02.08-.08v-.33c0-.33-.1-.59-.3-.77s-.5-.28-.9-.28c-.31,0-.57.06-.78.17s-.34.27-.4.47c-.03.11-.1.16-.2.15l-1.82-.24c-.12-.02-.18-.06-.17-.14.04-.42.21-.8.5-1.14.3-.34.69-.61,1.17-.8.49-.19,1.03-.29,1.63-.29.65,0,1.23.11,1.75.34Zm-.95,5.71c.3-.23.45-.53.45-.89v-.54s-.02-.08-.08-.08h-1.08c-.45,0-.81.09-1.06.26-.26.17-.38.41-.38.72,0,.27.1.48.29.64.19.16.45.23.77.23.43,0,.8-.12,1.1-.35Z"/>
    <path class="cls-12" d="m132.39,32.49s.08-.05.13-.05h1.76s.09.02.13.05.05.08.05.13v10.17c0,.05-.02.09-.05.13s-.08.05-.13.05h-1.76c-.05,0-.09-.02-.13-.05-.04-.04-.05-.08-.05-.13v-.5s-.01-.05-.03-.05c-.02,0-.04,0-.06.02-.42.55-1,.83-1.73.83s-1.31-.2-1.81-.59c-.51-.39-.87-.93-1.09-1.61-.17-.52-.26-1.13-.26-1.82s.09-1.33.27-1.87c.23-.64.59-1.15,1.09-1.53.5-.38,1.11-.56,1.84-.56s1.28.25,1.69.75c.02.03.04.04.06.03.02,0,.03-.03.03-.06v-3.22c0-.05.02-.09.05-.13Zm-.07,6.61c0-.67-.11-1.2-.33-1.58-.23-.39-.57-.59-1.01-.59-.47,0-.83.2-1.07.59-.25.39-.38.92-.38,1.6,0,.6.11,1.1.32,1.5.25.43.62.65,1.11.65.45,0,.8-.22,1.05-.65.2-.37.3-.88.3-1.52Z"/>
    <path class="cls-12" d="m142.96,39.59c0,.12-.08.18-.2.18h-4.65c-.06,0-.08.03-.06.08.03.2.08.4.17.6.26.56.79.84,1.59.84.64,0,1.15-.27,1.52-.78.04-.06.08-.09.13-.09.03,0,.07.02.11.06l1.08,1.07c.05.05.08.1.08.14,0,.02-.02.06-.06.12-.33.41-.76.73-1.28.96s-1.09.34-1.72.34c-.86,0-1.59-.2-2.19-.59-.6-.39-1.03-.94-1.29-1.64-.21-.5-.32-1.16-.32-1.97,0-.55.08-1.04.23-1.46.23-.71.63-1.28,1.21-1.7.58-.42,1.26-.63,2.05-.63,1,0,1.81.29,2.42.87.61.58.98,1.36,1.11,2.33.06.38.08.81.06,1.28Zm-4.82-1.76c-.04.13-.08.29-.1.48,0,.05.02.08.08.08h2.6c.06,0,.08-.02.06-.08-.05-.29-.08-.43-.08-.42-.09-.3-.25-.53-.47-.7s-.5-.25-.83-.25c-.63,0-1.05.3-1.25.89Z"/>
    <path class="cls-12" d="m148.98,35.34c.08.04.11.12.09.23l-.32,1.72c-.01.12-.08.16-.21.11-.15-.05-.33-.08-.53-.08-.08,0-.19.01-.33.03-.36.03-.67.16-.92.4-.25.24-.38.55-.38.94v4.11c0,.05-.02.09-.05.13s-.08.05-.13.05h-1.76s-.09-.02-.13-.05-.05-.08-.05-.13v-7.37c0-.05.02-.09.05-.13s.08-.05.13-.05h1.76c.05,0,.09.02.13.05s.05.08.05.13v.57s0,.05.03.06c.02.01.04,0,.04-.02.41-.6.96-.9,1.66-.9.36,0,.65.07.86.21Z"/>
  </g>
  <g>
    <path class="cls-12" d="m113.29,73.96s.03.03.06.03h3.82s.09.02.12.05c.03.03.05.07.05.12v1.37s-.02.09-.05.12-.07.05-.12.05h-6.35s-.09-.02-.12-.05-.05-.07-.05-.12v-1.3c0-.08.03-.16.08-.21.46-.45.93-.94,1.41-1.47.48-.53.78-.86.9-.99.26-.31.53-.61.8-.89.86-.95,1.28-1.66,1.28-2.12,0-.33-.12-.6-.35-.81-.24-.21-.54-.32-.92-.32s-.68.11-.92.32c-.24.21-.35.49-.35.84v.35s-.02.09-.05.12-.07.05-.12.05h-1.67s-.09-.02-.12-.05c-.03-.03-.05-.07-.05-.12v-.66c.03-.51.19-.96.48-1.35s.68-.69,1.16-.9,1.03-.31,1.63-.31c.67,0,1.25.12,1.74.37s.88.59,1.14,1.01.4.89.4,1.41c0,.4-.1.8-.3,1.21-.2.41-.49.86-.89,1.34-.29.37-.61.73-.95,1.09-.34.36-.84.88-1.51,1.55l-.21.21s-.02.04-.01.06Z"/>
    <path class="cls-12" d="m119.47,74.98c-.6-.58-.9-1.37-.9-2.36v-3.73c0-.98.3-1.75.9-2.33s1.42-.86,2.46-.86,1.86.29,2.46.86c.61.57.91,1.35.91,2.33v3.73c0,1-.3,1.78-.91,2.36-.61.58-1.43.87-2.46.87s-1.85-.29-2.46-.87Zm3.46-1.23c.25-.26.37-.6.37-1.04v-3.88c0-.43-.12-.78-.37-1.04-.25-.26-.59-.39-1.01-.39s-.75.13-.99.39-.37.6-.37,1.04v3.88c0,.43.12.78.37,1.04s.58.39.99.39.76-.13,1.01-.39Z"/>
    <path class="cls-12" d="m129.24,73.96s.03.03.06.03h3.82s.09.02.12.05c.03.03.05.07.05.12v1.37s-.02.09-.05.12-.07.05-.12.05h-6.35s-.09-.02-.12-.05-.05-.07-.05-.12v-1.3c0-.08.03-.16.08-.21.46-.45.93-.94,1.41-1.47.48-.53.78-.86.9-.99.26-.31.53-.61.8-.89.86-.95,1.28-1.66,1.28-2.12,0-.33-.12-.6-.35-.81-.24-.21-.54-.32-.92-.32s-.68.11-.92.32c-.24.21-.35.49-.35.84v.35s-.02.09-.05.12-.07.05-.12.05h-1.67s-.09-.02-.12-.05c-.03-.03-.05-.07-.05-.12v-.66c.03-.51.19-.96.48-1.35.29-.39.68-.69,1.16-.9s1.03-.31,1.63-.31c.67,0,1.25.12,1.74.37s.88.59,1.14,1.01.4.89.4,1.41c0,.4-.1.8-.3,1.21-.2.41-.49.86-.89,1.34-.29.37-.61.73-.95,1.09-.34.36-.84.88-1.51,1.55l-.21.21s-.02.04-.01.06Z"/>
    <path class="cls-12" d="m140.68,72.48c0,.51-.08.98-.25,1.41-.22.6-.6,1.07-1.13,1.41-.53.34-1.16.51-1.88.51s-1.34-.18-1.88-.54c-.54-.36-.93-.84-1.16-1.45-.13-.37-.21-.76-.23-1.19,0-.11.06-.17.17-.17h1.67c.11,0,.17.06.17.17.04.31.09.54.16.69.08.24.22.44.42.57s.42.2.68.2c.53,0,.89-.23,1.09-.69.13-.28.2-.61.2-.99,0-.44-.07-.8-.21-1.09-.21-.44-.58-.66-1.09-.66-.1,0-.21.03-.32.09-.11.06-.25.15-.41.26-.04.03-.07.04-.11.04-.06,0-.1-.03-.13-.08l-.83-1.17s-.03-.06-.03-.1c0-.06.02-.1.06-.14l2.24-1.96s.03-.04.02-.06c0-.02-.02-.03-.05-.03h-3.32s-.09-.02-.12-.05c-.03-.03-.05-.07-.05-.12v-1.37s.02-.09.05-.12c.03-.03.07-.05.12-.05h5.88s.09.02.12.05c.03.03.05.07.05.12v1.55c0,.08-.03.15-.1.21l-1.85,1.69s-.03.04-.02.06c0,.02.03.03.06.03.82.16,1.4.64,1.75,1.45.19.43.28.93.28,1.5Z"/>
  </g>
  <rect class="cls-4" x="88.56" y="48" width="74.52" height="13.32" rx="3.65" ry="3.65"/>
  <g>
    <path class="cls-4" d="m42.86,22.84l7.76-4.41V6.17h-15.61v12.17l7.84,4.49Z"/>
    <g>
      <path class="cls-11" d="m42.86,9.36c.33,0,.65,0,.98.08l-.98,1.88c-1.47-.08-2.78,1.06-2.86,2.53-.08,1.47,1.06,2.78,2.53,2.86h.33c.65,0,1.31-.25,1.8-.65l1.06,1.8c-.82.57-1.8.9-2.86.9-2.61.08-4.82-1.88-4.9-4.49-.08-2.61,1.88-4.82,4.49-4.9h.41Z"/>
      <polygon class="cls-11" points="46.21 13.36 47.44 15.4 46.21 17.36 45.07 15.4 42.7 15.4 43.93 13.36 46.21 13.36"/>
      <path class="cls-11" d="m44.25,12.63c0-.33.08-.65.25-.9s.49-.49.74-.65l.16-.08c.33-.16.41-.25.41-.41s-.25-.33-.41-.33c-.33,0-.57.16-.74.49l-.41-.41c.08-.16.25-.33.41-.49.25-.16.49-.16.74-.16s.57.08.74.25.33.41.33.65c0,.41-.25.74-.74.9l-.25.16c-.25.16-.41.25-.49.49h1.47v.57l-2.21-.08Z"/>
    </g>
  </g>
  <g>
    <path class="cls-4" d="m125.86,22.84l7.76-4.41V6.17h-15.61v12.17l7.84,4.49Z"/>
    <g>
      <path class="cls-11" d="m125.86,9.36c.33,0,.65,0,.98.08l-.98,1.88c-1.47-.08-2.78,1.06-2.86,2.53-.08,1.47,1.06,2.78,2.53,2.86h.33c.65,0,1.31-.25,1.8-.65l1.06,1.8c-.82.57-1.8.9-2.86.9-2.61.08-4.82-1.88-4.9-4.49-.08-2.61,1.88-4.82,4.49-4.9h.41Z"/>
      <polygon class="cls-11" points="129.21 13.36 130.43 15.4 129.21 17.36 128.06 15.4 125.69 15.4 126.92 13.36 129.21 13.36"/>
      <path class="cls-11" d="m127.25,12.63c0-.33.08-.65.25-.9s.49-.49.74-.65l.16-.08c.33-.16.41-.25.41-.41s-.25-.33-.41-.33c-.33,0-.57.16-.74.49l-.41-.41c.08-.16.25-.33.41-.49.25-.16.49-.16.74-.16s.57.08.74.25.33.41.33.65c0,.41-.25.74-.74.9l-.25.16c-.25.16-.41.25-.49.49h1.47v.57l-2.21-.08Z"/>
    </g>
  </g>
  <g>
    <path class="cls-12" d="m26.62,32.48s.05.08.05.13v1.49c0,.05-.02.09-.05.13-.04.04-.08.05-.13.05h-2.72c-.05,0-.08.03-.08.08v8.53c0,.05-.02.09-.05.13s-.08.05-.13.05h-1.78c-.05,0-.09-.02-.13-.05-.04-.04-.05-.08-.05-.13v-8.53c0-.05-.03-.08-.08-.08h-2.65c-.05,0-.09-.02-.13-.05-.04-.04-.05-.08-.05-.13v-1.49c0-.05.02-.09.05-.13s.08-.05.13-.05h7.67c.05,0,.09.02.13.05Z"/>
    <path class="cls-12" d="m27.74,42.53c-.61-.45-1.02-1.05-1.25-1.83-.14-.48-.21-.99-.21-1.55,0-.6.07-1.14.21-1.61.23-.75.65-1.34,1.26-1.76.61-.43,1.34-.64,2.19-.64s1.54.21,2.13.63c.59.42,1,1.01,1.25,1.76.16.51.24,1.04.24,1.6s-.07,1.06-.21,1.54c-.22.79-.64,1.41-1.24,1.86-.6.45-1.33.68-2.18.68s-1.58-.22-2.19-.67Zm3.04-1.48c.23-.2.4-.48.5-.84.08-.32.12-.68.12-1.06,0-.43-.04-.79-.12-1.08-.11-.34-.28-.61-.52-.81-.23-.19-.52-.29-.85-.29s-.63.1-.86.29c-.23.19-.39.46-.49.81-.08.24-.12.6-.12,1.08s.04.81.11,1.06c.1.36.27.63.51.84s.53.3.87.3.62-.1.85-.3Z"/>
    <path class="cls-12" d="m42.05,39.18c0,.7-.1,1.33-.29,1.9-.23.65-.6,1.16-1.1,1.54-.5.38-1.12.57-1.86.57s-1.3-.25-1.7-.76c-.02-.03-.04-.04-.06-.03-.02.01-.03.03-.03.06v3.26c0,.05-.02.09-.05.13-.04.04-.08.05-.13.05h-1.78c-.05,0-.09-.02-.13-.05s-.05-.08-.05-.13v-10.28c0-.05.02-.09.05-.13s.08-.05.13-.05h1.78c.05,0,.09.02.13.05.04.04.05.08.05.13v.5s.01.05.03.05c.02,0,.04,0,.06-.02.43-.56,1.01-.84,1.76-.84.7,0,1.31.2,1.82.59.51.39.88.94,1.1,1.63.18.52.27,1.13.27,1.83Zm-2.22-.03c0-.64-.11-1.15-.32-1.52-.23-.44-.61-.65-1.13-.65-.47,0-.82.22-1.05.65-.21.36-.32.88-.32,1.54s.11,1.21.33,1.58c.23.41.58.61,1.03.61s.81-.2,1.06-.59.38-.93.38-1.61Z"/>
    <path class="cls-12" d="m47.89,32.43h1.84c.05,0,.09.02.13.05.04.04.05.08.05.13v10.28c0,.05-.02.09-.05.13s-.08.05-.13.05h-1.78c-.05,0-.09-.02-.13-.05-.04-.04-.05-.08-.05-.13v-8.33s-.01-.04-.03-.06-.04-.03-.06-.02l-1.51.41-.06.02c-.09,0-.14-.06-.14-.17l-.05-1.31c0-.1.05-.17.14-.21l1.6-.74c.05-.03.13-.05.23-.05Z"/>
    <path class="cls-12" d="m52.29,42.31c-.65-.62-.97-1.47-.97-2.55v-4.02c0-1.05.32-1.89.97-2.51.65-.62,1.53-.93,2.65-.93s2,.31,2.65.93c.65.62.98,1.46.98,2.51v4.02c0,1.07-.33,1.92-.98,2.55-.65.62-1.54.94-2.65.94s-2-.31-2.65-.94Zm3.73-1.32c.27-.28.4-.65.4-1.12v-4.18c0-.47-.13-.84-.4-1.12-.27-.28-.63-.42-1.09-.42s-.8.14-1.07.42c-.27.28-.4.65-.4,1.12v4.18c0,.47.13.84.4,1.12.27.28.63.42,1.07.42s.82-.14,1.09-.42Z"/>
    <path class="cls-12" d="m60.8,42.31c-.65-.62-.97-1.47-.97-2.55v-4.02c0-1.05.32-1.89.97-2.51.65-.62,1.53-.93,2.65-.93s2,.31,2.65.93c.65.62.98,1.46.98,2.51v4.02c0,1.07-.33,1.92-.98,2.55-.65.62-1.54.94-2.65.94s-2-.31-2.65-.94Zm3.73-1.32c.27-.28.4-.65.4-1.12v-4.18c0-.47-.13-.84-.4-1.12-.27-.28-.63-.42-1.09-.42s-.8.14-1.07.42c-.27.28-.4.65-.4,1.12v4.18c0,.47.13.84.4,1.12.27.28.63.42,1.07.42s.82-.14,1.09-.42Z"/>
  </g>
  <g>
    <path class="cls-12" d="m33.61,78.25s.02.02.04.02h2.92s.07.01.09.04c.02.03.04.06.04.09v1.04s-.01.07-.04.09-.06.04-.09.04h-4.84s-.07-.01-.09-.04c-.03-.02-.04-.06-.04-.09v-.99c0-.06.02-.12.06-.16.35-.34.71-.72,1.08-1.12.37-.4.6-.66.69-.76.2-.24.4-.46.61-.68.65-.72.98-1.26.98-1.61,0-.25-.09-.46-.27-.62-.18-.16-.41-.24-.7-.24s-.52.08-.7.24c-.18.16-.27.37-.27.64v.27s-.01.07-.04.09c-.02.03-.06.04-.09.04h-1.27s-.07-.01-.09-.04c-.03-.02-.04-.06-.04-.09v-.51c.02-.39.14-.73.37-1.03.22-.3.52-.53.89-.68.37-.16.78-.24,1.24-.24.51,0,.95.1,1.33.28.38.19.67.45.87.77.2.32.31.68.31,1.08,0,.3-.08.61-.23.93s-.38.66-.68,1.02c-.22.28-.46.56-.72.83-.26.27-.64.67-1.15,1.18l-.16.16s-.02.03-.01.04Z"/>
    <path class="cls-12" d="m38.22,79.03c-.46-.44-.69-1.04-.69-1.8v-2.84c0-.75.23-1.34.69-1.78.46-.44,1.08-.66,1.87-.66s1.41.22,1.88.66c.46.44.69,1.03.69,1.78v2.84c0,.76-.23,1.36-.69,1.8s-1.09.66-1.88.66-1.41-.22-1.87-.66Zm2.64-.94c.19-.2.28-.46.28-.79v-2.96c0-.33-.09-.59-.28-.79-.19-.2-.45-.3-.77-.3s-.57.1-.76.3-.28.46-.28.79v2.96c0,.33.09.59.28.79s.44.3.76.3.58-.1.77-.3Z"/>
    <path class="cls-12" d="m45.55,78.25s.02.02.04.02h2.92s.07.01.09.04c.02.03.04.06.04.09v1.04s-.01.07-.04.09-.06.04-.09.04h-4.84s-.07-.01-.09-.04c-.03-.02-.04-.06-.04-.09v-.99c0-.06.02-.12.06-.16.35-.34.71-.72,1.08-1.12.37-.4.6-.66.69-.76.2-.24.4-.46.61-.68.65-.72.98-1.26.98-1.61,0-.25-.09-.46-.27-.62-.18-.16-.41-.24-.7-.24s-.52.08-.7.24c-.18.16-.27.37-.27.64v.27s-.01.07-.04.09c-.02.03-.06.04-.09.04h-1.27s-.07-.01-.09-.04c-.03-.02-.04-.06-.04-.09v-.51c.02-.39.14-.73.37-1.03.22-.3.52-.53.89-.68.37-.16.78-.24,1.24-.24.51,0,.95.1,1.33.28.38.19.67.45.87.77.2.32.31.68.31,1.08,0,.3-.08.61-.23.93s-.38.66-.68,1.02c-.22.28-.46.56-.72.83-.26.27-.64.67-1.15,1.18l-.16.16s-.02.03-.01.04Z"/>
    <path class="cls-12" d="m54.17,77.12c0,.39-.06.75-.19,1.08-.17.46-.46.82-.87,1.08-.41.26-.88.39-1.44.39s-1.02-.14-1.44-.41c-.41-.27-.71-.64-.89-1.11-.1-.28-.16-.58-.17-.9,0-.09.04-.13.13-.13h1.27c.09,0,.13.04.13.13.03.24.07.41.12.53.06.19.17.33.32.44.15.1.32.16.52.16.4,0,.68-.18.83-.53.1-.22.15-.47.15-.75,0-.34-.05-.61-.16-.83-.17-.34-.44-.51-.83-.51-.08,0-.16.02-.25.07-.09.05-.19.11-.31.2-.03.02-.06.03-.09.03-.04,0-.08-.02-.1-.06l-.63-.89s-.02-.05-.02-.08c0-.04.01-.08.04-.11l1.71-1.5s.02-.03.02-.04-.02-.02-.04-.02h-2.53s-.07-.01-.09-.04c-.03-.02-.04-.06-.04-.09v-1.04s.01-.07.04-.09c.02-.02.06-.04.09-.04h4.49s.07.01.09.04c.02.02.04.06.04.09v1.18c0,.06-.03.11-.08.16l-1.41,1.29s-.02.03-.02.04c0,.01.02.02.05.02.62.12,1.07.49,1.33,1.11.14.33.21.71.21,1.14Z"/>
  </g>
  <g>
    <path class="cls-11" d="m120.65,52.68s-.04.03-.07.03h-2.78s-.04.01-.04.04v1.32s.01.04.04.04h1.82s.05.01.07.03c.02.02.03.04.03.07v.82s-.01.05-.03.07c-.02.02-.04.03-.07.03h-1.82s-.04.01-.04.04v2.34s-.01.05-.03.07-.04.03-.07.03h-.99s-.05,0-.07-.03c-.02-.02-.03-.04-.03-.07v-5.74s.01-.05.03-.07c.02-.02.04-.03.07-.03h3.91s.05,0,.07.03c.02.02.03.04.03.07v.82s-.01.05-.03.07Z"/>
    <path class="cls-11" d="m124.24,57.54l-.25-.83s-.03-.03-.04-.03h-2.09s-.03.01-.04.03l-.25.83c-.02.06-.05.08-.11.08h-1.08s-.06,0-.08-.03c-.02-.02-.02-.05,0-.09l1.83-5.74c.02-.06.05-.08.11-.08h1.33c.06,0,.09.03.11.08l1.83,5.74s0,.03,0,.04c0,.05-.03.08-.09.08h-1.08c-.06,0-.09-.03-.11-.08Zm-2.09-1.79h1.49s.05-.02.03-.05l-.76-2.52s-.01-.03-.03-.03-.02.01-.03.03l-.75,2.52s0,.05.03.05Z"/>
    <path class="cls-11" d="m126.21,57.6s-.03-.04-.03-.07v-5.74s.01-.05.03-.07c.02-.02.04-.03.07-.03h.99s.05,0,.07.03c.02.02.03.04.03.07v4.77s.01.04.04.04h2.78s.05,0,.07.03c.02.02.03.04.03.07v.82s-.01.05-.03.07-.04.03-.07.03h-3.91s-.05,0-.07-.03Z"/>
    <path class="cls-11" d="m130.98,57.6s-.03-.04-.03-.07v-5.74s.01-.05.03-.07c.02-.02.04-.03.07-.03h.99s.05,0,.07.03c.02.02.03.04.03.07v4.77s.01.04.04.04h2.78s.05,0,.07.03c.02.02.03.04.03.07v.82s-.01.05-.03.07c-.02.02-.04.03-.07.03h-3.91s-.05,0-.07-.03Z"/>
  </g>
</svg>