<svg width="40" height="40" viewBox="0 0 40 40" fill="none" xmlns="http://www.w3.org/2000/svg">
<path d="M13.8613 33.5397V26.4262C13.8613 23.907 14.8779 21.4911 16.6875 19.7098C18.4971 17.9285 20.9514 16.9277 23.5105 16.9277C26.0697 16.9277 28.524 17.9285 30.3335 19.7098" stroke="#1882D6" stroke-width="1.66667" stroke-linecap="round"/>
<path d="M23.5094 16.9276C24.9718 16.9276 26.3743 16.3558 27.4083 15.3379C28.4423 14.32 29.0233 12.9394 29.0233 11.4999C29.0233 10.0604 28.4423 8.67988 27.4083 7.66199C26.3743 6.64411 24.9718 6.07227 23.5094 6.07227C22.0471 6.07227 20.6446 6.64411 19.6106 7.66199C18.5765 8.67988 17.9956 10.0604 17.9956 11.4999C17.9956 12.9394 18.5765 14.32 19.6106 15.3379C20.6446 16.3558 22.0471 16.9276 23.5094 16.9276Z" stroke="#1882D6" stroke-width="1.66667" stroke-linecap="round" stroke-linejoin="round"/>
<path d="M3.33398 31.1823V25.8861C3.33398 24.0106 4.09086 22.2119 5.43811 20.8857C6.78536 19.5595 8.61262 18.8145 10.5179 18.8145C12.4232 18.8145 14.2505 19.5595 15.5977 20.8857" stroke="#1882D6" stroke-width="1.66667" stroke-linecap="round"/>
<path d="M10.5167 18.8143C11.6055 18.8143 12.6496 18.3886 13.4195 17.6308C14.1893 16.873 14.6218 15.8451 14.6218 14.7734C14.6218 13.7017 14.1893 12.6738 13.4195 11.916C12.6496 11.1582 11.6055 10.7324 10.5167 10.7324C9.42799 10.7324 8.38384 11.1582 7.61398 11.916C6.84412 12.6738 6.41162 13.7017 6.41162 14.7734C6.41162 15.8451 6.84412 16.873 7.61398 17.6308C8.38384 18.3886 9.42799 18.8143 10.5167 18.8143Z" stroke="#1882D6" stroke-width="1.66667" stroke-linecap="round" stroke-linejoin="round"/>
<path d="M28.7729 28.5389L30.3519 30.1178L34.0361 26.4336" stroke="#1882D6" stroke-width="1.33333" stroke-linecap="round" stroke-linejoin="round"/>
<path d="M31.4028 33.5401C34.3097 33.5401 36.666 31.1837 36.666 28.2769C36.666 25.37 34.3097 23.0137 31.4028 23.0137C28.496 23.0137 26.1396 25.37 26.1396 28.2769C26.1396 31.1837 28.496 33.5401 31.4028 33.5401Z" stroke="#1882D6" stroke-width="1.33333" stroke-linecap="round" stroke-linejoin="round"/>
</svg>
