<svg width="49" height="49" viewBox="0 0 49 49" fill="none" xmlns="http://www.w3.org/2000/svg">
<path fill-rule="evenodd" clip-rule="evenodd" d="M6.41875 24.7634C6.41875 15.6914 13.4908 6.6834 24.4988 6.6834C33.3884 6.6834 37.7851 13.2626 39.6572 16.7634H34.0987C33.6744 16.7634 33.2674 16.932 32.9674 17.232C32.6673 17.5321 32.4987 17.9391 32.4987 18.3634C32.4987 18.7877 32.6673 19.1947 32.9674 19.4948C33.2674 19.7948 33.6744 19.9634 34.0987 19.9634H43.6987C44.1231 19.9634 44.5301 19.7948 44.8301 19.4948C45.1302 19.1947 45.2987 18.7877 45.2987 18.3634V8.7634C45.2987 8.33905 45.1302 7.93209 44.8301 7.63203C44.5301 7.33197 44.1231 7.1634 43.6987 7.1634C43.2744 7.1634 42.8674 7.33197 42.5674 7.63203C42.2673 7.93209 42.0988 8.33905 42.0988 8.7634V14.565C39.846 10.5906 34.63 3.4834 24.4988 3.4834C11.4971 3.4834 3.21875 14.1554 3.21875 24.7634C3.21875 35.3714 11.4971 46.0434 24.4988 46.0434C30.7196 46.0434 35.8971 43.5794 39.5835 39.829C41.5397 37.8338 43.0914 35.4791 44.1531 32.8946C44.233 32.7002 44.2738 32.4921 44.2732 32.2819C44.2726 32.0718 44.2306 31.8639 44.1496 31.67C44.0686 31.4761 43.9502 31.3001 43.8012 31.1519C43.6522 31.0038 43.4755 30.8864 43.2812 30.8066C43.0868 30.7268 42.8786 30.686 42.6685 30.6866C42.4584 30.6872 42.2504 30.7292 42.0566 30.8102C41.8627 30.8911 41.6866 31.0095 41.5385 31.1585C41.3903 31.3075 41.273 31.4842 41.1931 31.6786C40.2889 33.88 38.9676 35.8859 37.302 37.5858C34.1948 40.7538 29.8268 42.8434 24.4988 42.8434C13.4908 42.8434 6.41875 33.8354 6.41875 24.7634Z" fill="url(#paint0_linear_763_29892)"/>
<defs>
<linearGradient id="paint0_linear_763_29892" x1="24.2587" y1="3.4834" x2="24.2587" y2="46.0434" gradientUnits="userSpaceOnUse">
<stop stop-color="#1882D6"/>
<stop offset="1" stop-color="#2BA1FF"/>
</linearGradient>
</defs>
</svg>
