<svg width="60" height="60" viewBox="0 0 60 60" fill="none" xmlns="http://www.w3.org/2000/svg">
<path d="M52.0312 11.25V17.8125C52.0312 18.1855 51.8831 18.5431 51.6194 18.8069C51.3556 19.0706 50.998 19.2188 50.625 19.2188C50.252 19.2188 49.8944 19.0706 49.6306 18.8069C49.3669 18.5431 49.2188 18.1855 49.2188 17.8125V11.25C49.2188 11.1257 49.1694 11.0065 49.0815 10.9185C48.9935 10.8306 48.8743 10.7812 48.75 10.7812H42.1875C41.8145 10.7812 41.4569 10.6331 41.1931 10.3694C40.9294 10.1056 40.7812 9.74796 40.7812 9.375C40.7812 9.00204 40.9294 8.64435 41.1931 8.38063C41.4569 8.11691 41.8145 7.96875 42.1875 7.96875H48.75C49.6202 7.96875 50.4548 8.31445 51.0702 8.92981C51.6855 9.54516 52.0312 10.3798 52.0312 11.25ZM50.625 40.7812C50.252 40.7812 49.8944 40.9294 49.6306 41.1931C49.3669 41.4569 49.2188 41.8145 49.2188 42.1875V48.75C49.2188 48.8743 49.1694 48.9935 49.0815 49.0815C48.9935 49.1694 48.8743 49.2188 48.75 49.2188H42.1875C41.8145 49.2188 41.4569 49.3669 41.1931 49.6306C40.9294 49.8944 40.7812 50.252 40.7812 50.625C40.7812 50.998 40.9294 51.3556 41.1931 51.6194C41.4569 51.8831 41.8145 52.0312 42.1875 52.0312H48.75C49.6202 52.0312 50.4548 51.6855 51.0702 51.0702C51.6855 50.4548 52.0312 49.6202 52.0312 48.75V42.1875C52.0312 41.8145 51.8831 41.4569 51.6194 41.1931C51.3556 40.9294 50.998 40.7812 50.625 40.7812ZM17.8125 49.2188H11.25C11.1257 49.2188 11.0065 49.1694 10.9185 49.0815C10.8306 48.9935 10.7812 48.8743 10.7812 48.75V42.1875C10.7812 41.8145 10.6331 41.4569 10.3694 41.1931C10.1056 40.9294 9.74796 40.7812 9.375 40.7812C9.00204 40.7812 8.64435 40.9294 8.38063 41.1931C8.11691 41.4569 7.96875 41.8145 7.96875 42.1875V48.75C7.96875 49.6202 8.31445 50.4548 8.92981 51.0702C9.54516 51.6855 10.3798 52.0312 11.25 52.0312H17.8125C18.1855 52.0312 18.5431 51.8831 18.8069 51.6194C19.0706 51.3556 19.2188 50.998 19.2188 50.625C19.2188 50.252 19.0706 49.8944 18.8069 49.6306C18.5431 49.3669 18.1855 49.2188 17.8125 49.2188ZM9.375 19.2188C9.74796 19.2188 10.1056 19.0706 10.3694 18.8069C10.6331 18.5431 10.7812 18.1855 10.7812 17.8125V11.25C10.7812 11.1257 10.8306 11.0065 10.9185 10.9185C11.0065 10.8306 11.1257 10.7812 11.25 10.7812H17.8125C18.1855 10.7812 18.5431 10.6331 18.8069 10.3694C19.0706 10.1056 19.2188 9.74796 19.2188 9.375C19.2188 9.00204 19.0706 8.64435 18.8069 8.38063C18.5431 8.11691 18.1855 7.96875 17.8125 7.96875H11.25C10.3798 7.96875 9.54516 8.31445 8.92981 8.92981C8.31445 9.54516 7.96875 10.3798 7.96875 11.25V17.8125C7.96875 18.1855 8.11691 18.5431 8.38063 18.8069C8.64435 19.0706 9.00204 19.2188 9.375 19.2188ZM41.25 40.7812C41.0317 40.7812 40.8164 40.7304 40.6211 40.6328C40.4258 40.5352 40.256 40.3934 40.125 40.2188C38.9461 38.6469 37.4174 37.3711 35.66 36.4924C33.9027 35.6137 31.9648 35.1562 30 35.1562C28.0352 35.1562 26.0973 35.6137 24.34 36.4924C22.5826 37.3711 21.0539 38.6469 19.875 40.2188C19.7642 40.3665 19.6254 40.491 19.4665 40.585C19.3076 40.6791 19.1317 40.741 18.9489 40.7671C18.7661 40.7932 18.5799 40.7831 18.401 40.7373C18.2221 40.6914 18.054 40.6108 17.9062 40.5C17.7585 40.3892 17.634 40.2504 17.54 40.0915C17.4459 39.9326 17.384 39.7567 17.3579 39.5739C17.3318 39.3911 17.3419 39.2049 17.3877 39.026C17.4336 38.8471 17.5142 38.679 17.625 38.5312C19.3945 36.1592 21.8106 34.3478 24.5836 33.3141C23.1059 32.182 22.0201 30.6154 21.4787 28.8343C20.9374 27.0533 20.9676 25.1474 21.5653 23.3845C22.163 21.6216 23.298 20.0903 24.8109 19.0057C26.3238 17.9212 28.1385 17.3379 30 17.3379C31.8615 17.3379 33.6762 17.9212 35.1891 19.0057C36.702 20.0903 37.837 21.6216 38.4347 23.3845C39.0324 25.1474 39.0626 27.0533 38.5213 28.8343C37.9799 30.6154 36.8941 32.182 35.4164 33.3141C38.1894 34.3478 40.6055 36.1592 42.375 38.5312C42.5317 38.7402 42.6271 38.9886 42.6506 39.2487C42.674 39.5088 42.6246 39.7703 42.5078 40.0039C42.391 40.2375 42.2115 40.4339 41.9893 40.5712C41.7672 40.7085 41.5112 40.7812 41.25 40.7812ZM30 32.3438C31.2052 32.3438 32.3834 31.9864 33.3855 31.3168C34.3876 30.6472 35.1687 29.6955 35.6299 28.582C36.0911 27.4685 36.2118 26.2432 35.9767 25.0612C35.7415 23.8791 35.1612 22.7933 34.3089 21.9411C33.4567 21.0888 32.3709 20.5085 31.1888 20.2733C30.0068 20.0382 28.7815 20.1589 27.668 20.6201C26.5545 21.0813 25.6028 21.8624 24.9332 22.8645C24.2636 23.8666 23.9062 25.0448 23.9062 26.25C23.9062 27.8662 24.5483 29.4161 25.6911 30.5589C26.8339 31.7017 28.3838 32.3438 30 32.3438Z" fill="url(#paint0_linear_749_33283)"/>
<defs>
<linearGradient id="paint0_linear_749_33283" x1="30" y1="7.96875" x2="30" y2="52.0312" gradientUnits="userSpaceOnUse">
<stop stop-color="#1882D6"/>
<stop offset="1" stop-color="#2BA1FF"/>
</linearGradient>
</defs>
</svg>
