<svg width="16" height="16" viewBox="0 0 16 16" fill="none" xmlns="http://www.w3.org/2000/svg">
<path d="M6.20668 4.47334C6.14488 4.53501 6.09585 4.60827 6.06239 4.68892C6.02894 4.76957 6.01172 4.85603 6.01172 4.94334C6.01172 5.03065 6.02894 5.11711 6.06239 5.19775C6.09585 5.2784 6.14488 5.35166 6.20668 5.41334L8.79335 8L6.20668 10.5867C6.08203 10.7113 6.012 10.8804 6.012 11.0567C6.012 11.233 6.08203 11.402 6.20668 11.5267C6.33133 11.6513 6.5004 11.7214 6.67668 11.7214C6.85297 11.7214 7.02203 11.6513 7.14668 11.5267L10.2067 8.46667C10.2685 8.405 10.3175 8.33174 10.351 8.25109C10.3844 8.17044 10.4016 8.08398 10.4016 7.99667C10.4016 7.90936 10.3844 7.8229 10.351 7.74225C10.3175 7.66161 10.2685 7.58835 10.2067 7.52667L7.14668 4.46667C6.89335 4.21334 6.46668 4.21334 6.20668 4.47334Z" fill="#1882D6"/>
</svg>
