<svg width="49" height="49" viewBox="0 0 49 49" fill="none" xmlns="http://www.w3.org/2000/svg">
<path d="M21.6467 22.4303C19.8008 22.4303 17.9962 21.883 16.4614 20.8574C14.9265 19.8318 13.7303 18.3742 13.0238 16.6687C12.3174 14.9633 12.1326 13.0867 12.4927 11.2762C12.8528 9.46568 13.7418 7.80264 15.047 6.49735C16.3523 5.19206 18.0154 4.30314 19.8259 3.94301C21.6364 3.58288 23.513 3.76772 25.2184 4.47413C26.9239 5.18055 28.3815 6.37683 29.4071 7.91169C30.4327 9.44655 30.98 11.251 30.98 13.097C30.98 15.5724 29.9967 17.9463 28.2464 19.6967C26.496 21.447 24.1221 22.4303 21.6467 22.4303ZM21.6467 6.53701C20.3282 6.53701 19.0392 6.928 17.9429 7.66055C16.8466 8.39309 15.9921 9.43428 15.4875 10.6525C14.9829 11.8706 14.8509 13.2111 15.1081 14.5043C15.3654 15.7975 16.0003 16.9854 16.9327 17.9177C17.865 18.8501 19.0529 19.485 20.3461 19.7422C21.6393 19.9995 22.9798 19.8675 24.1979 19.3629C25.4161 18.8583 26.4573 18.0038 27.1898 16.9075C27.9224 15.8111 28.3134 14.5222 28.3134 13.2037C28.3134 12.3282 28.1409 11.4613 27.8059 10.6525C27.4709 9.84362 26.9798 9.10869 26.3608 8.48963C25.7417 7.87057 25.0068 7.37951 24.1979 7.04448C23.3891 6.70945 22.5222 6.53701 21.6467 6.53701ZM29.0734 24.0437C21.8579 22.4201 14.3094 23.2021 7.58005 26.2703C6.65457 26.7124 5.87373 27.4083 5.32844 28.277C4.78316 29.1457 4.49588 30.1514 4.50004 31.177V39.1103C4.50004 39.2854 4.53453 39.4588 4.60154 39.6206C4.66855 39.7824 4.76676 39.9293 4.89057 40.0532C5.01438 40.177 5.16137 40.2752 5.32313 40.3422C5.4849 40.4092 5.65828 40.4437 5.83338 40.4437C6.00847 40.4437 6.18186 40.4092 6.34362 40.3422C6.50539 40.2752 6.65238 40.177 6.77619 40.0532C6.9 39.9293 6.99821 39.7824 7.06522 39.6206C7.13222 39.4588 7.16671 39.2854 7.16671 39.1103V31.177C7.1551 30.6579 7.29527 30.1468 7.57002 29.7062C7.84476 29.2657 8.24214 28.9149 8.71338 28.697C12.7671 26.8253 17.1818 25.865 21.6467 25.8837C24.1485 25.8805 26.6417 26.1759 29.0734 26.7637V24.0437ZM29.26 36.7237H37.4467V38.5903H29.26V36.7237Z" fill="url(#paint0_linear_763_29877)"/>
<path d="M43.9636 28.8031H37.0703V31.4698H42.6303V42.6298H23.737V31.4698H32.137V32.0298C32.137 32.3834 32.2775 32.7225 32.5275 32.9726C32.7776 33.2226 33.1167 33.3631 33.4703 33.3631C33.8239 33.3631 34.1631 33.2226 34.4131 32.9726C34.6632 32.7225 34.8036 32.3834 34.8036 32.0298V26.8431C34.8036 26.4895 34.6632 26.1503 34.4131 25.9003C34.1631 25.6502 33.8239 25.5098 33.4703 25.5098C33.1167 25.5098 32.7776 25.6502 32.5275 25.9003C32.2775 26.1503 32.137 26.4895 32.137 26.8431V28.8031H22.4036C22.05 28.8031 21.7109 28.9436 21.4608 29.1936C21.2108 29.4437 21.0703 29.7828 21.0703 30.1364V43.9631C21.0703 44.3167 21.2108 44.6559 21.4608 44.9059C21.7109 45.156 22.05 45.2964 22.4036 45.2964H43.9636C44.3173 45.2964 44.6564 45.156 44.9065 44.9059C45.1565 44.6559 45.297 44.3167 45.297 43.9631V30.1364C45.297 29.7828 45.1565 29.4437 44.9065 29.1936C44.6564 28.9436 44.3173 28.8031 43.9636 28.8031Z" fill="url(#paint1_linear_763_29877)"/>
<defs>
<linearGradient id="paint0_linear_763_29877" x1="20.9734" y1="3.76367" x2="20.9734" y2="40.4437" gradientUnits="userSpaceOnUse">
<stop stop-color="#1882D6"/>
<stop offset="1" stop-color="#2BA1FF"/>
</linearGradient>
<linearGradient id="paint1_linear_763_29877" x1="33.1836" y1="25.5098" x2="33.1836" y2="45.2964" gradientUnits="userSpaceOnUse">
<stop stop-color="#1882D6"/>
<stop offset="1" stop-color="#2BA1FF"/>
</linearGradient>
</defs>
</svg>
