<svg width="42" height="41" viewBox="0 0 42 41" fill="none" xmlns="http://www.w3.org/2000/svg">
<path d="M1.89551 20.9377C1.89551 10.3864 10.449 1.83301 21.0002 1.83301V1.83301C31.5514 1.83301 40.1048 10.3865 40.1048 20.9377V20.9377C40.1048 31.4889 31.5514 40.0423 21.0002 40.0423H1.89551V20.9377Z" stroke="#CBCBCB" stroke-width="1.91667"/>
<path d="M18.7837 27.1063V26.9581C18.8002 25.3857 18.9648 24.1345 19.2777 23.2042C19.5905 22.274 20.035 21.5208 20.6113 20.9445C21.1875 20.3683 21.879 19.8373 22.6858 19.3516C23.1715 19.0552 23.6078 18.7054 23.9947 18.302C24.3816 17.8904 24.6862 17.4171 24.9084 16.882C25.1389 16.3469 25.2542 15.7542 25.2542 15.1038C25.2542 14.2971 25.0649 13.5973 24.6862 13.0046C24.3075 12.4119 23.8012 11.955 23.1673 11.634C22.5335 11.3129 21.8296 11.1524 21.0558 11.1524C20.3808 11.1524 19.7304 11.2924 19.1048 11.5722C18.4792 11.8521 17.9564 12.2926 17.5366 12.8935C17.1167 13.4944 16.8739 14.2806 16.808 15.252H13.6963C13.7621 13.8525 14.1244 12.6548 14.7829 11.6587C15.4497 10.6626 16.3265 9.90112 17.4131 9.37427C18.508 8.84741 19.7222 8.58398 21.0558 8.58398C22.5047 8.58398 23.7642 8.87211 24.8344 9.44836C25.9128 10.0246 26.7442 10.8149 27.3287 11.8192C27.9214 12.8235 28.2178 13.9678 28.2178 15.252C28.2178 16.1575 28.0778 16.9766 27.7979 17.7093C27.5263 18.442 27.1311 19.0964 26.6125 19.6727C26.1021 20.2489 25.4847 20.7593 24.7603 21.2038C24.0358 21.6566 23.4555 22.1341 23.0192 22.6362C22.5829 23.1301 22.2659 23.7187 22.0684 24.402C21.8708 25.0853 21.7638 25.9373 21.7473 26.9581V27.1063H18.7837ZM20.3643 34.4164C19.7551 34.4164 19.2324 34.1982 18.7961 33.7619C18.3598 33.3256 18.1416 32.8029 18.1416 32.1937C18.1416 31.5845 18.3598 31.0618 18.7961 30.6255C19.2324 30.1892 19.7551 29.971 20.3643 29.971C20.9735 29.971 21.4962 30.1892 21.9325 30.6255C22.3688 31.0618 22.587 31.5845 22.587 32.1937C22.587 32.5971 22.4841 32.9675 22.2783 33.305C22.0807 33.6426 21.8132 33.9142 21.4756 34.12C21.1464 34.3176 20.7759 34.4164 20.3643 34.4164Z" fill="#CBCBCB"/>
</svg>
