<svg width="40" height="40" viewBox="0 0 40 40" fill="none" xmlns="http://www.w3.org/2000/svg">
<path fill-rule="evenodd" clip-rule="evenodd" d="M15.1762 19.2487C16.4304 18.0141 18.1336 17.3186 19.9119 17.3186C21.5635 17.3186 23.1504 17.9186 24.3729 18.9931C24.3797 19.0005 24.3868 19.0078 24.3941 19.0149C25.6479 20.2492 26.3503 21.9208 26.3503 23.6615V29.0993C26.3503 29.4772 26.6566 29.7835 27.0345 29.7835C27.4124 29.7835 27.7187 29.4772 27.7187 29.0993V23.6615C27.7187 21.7323 27.007 19.8772 25.7295 18.4354C25.698 18.3771 25.6573 18.3224 25.6076 18.2735C24.0952 16.7847 22.0462 15.9502 19.9119 15.9502C17.7776 15.9502 15.7286 16.7847 14.2162 18.2735C12.7034 19.7626 11.8516 21.7846 11.8516 23.8953V29.333C11.8516 29.7109 12.1579 30.0173 12.5358 30.0173C12.9137 30.0173 13.22 29.7109 13.22 29.333V23.8953C13.22 22.1546 13.9224 20.4829 15.1762 19.2487Z" fill="#1882D6"/>
<path d="M15.1762 19.2487L15.527 19.605L15.1762 19.2487ZM24.3729 18.9931L24.7389 18.6525L24.7218 18.6341L24.703 18.6176L24.3729 18.9931ZM24.3941 19.0149L24.7448 18.6586L24.7448 18.6586L24.3941 19.0149ZM25.7295 18.4354L25.2899 18.6735L25.3172 18.724L25.3553 18.767L25.7295 18.4354ZM25.6076 18.2735L25.2568 18.6298L25.2568 18.6298L25.6076 18.2735ZM14.2162 18.2735L13.8654 17.9171L14.2162 18.2735ZM19.9119 16.8186C18.0036 16.8186 16.174 17.5649 14.8254 18.8924L15.527 19.605C16.6868 18.4633 18.2637 17.8186 19.9119 17.8186V16.8186ZM24.703 18.6176C23.3888 17.4624 21.6844 16.8186 19.9119 16.8186V17.8186C21.4426 17.8186 22.912 18.3747 24.0428 19.3687L24.703 18.6176ZM24.0069 19.3338C24.0187 19.3465 24.0309 19.359 24.0433 19.3713L24.7448 18.6586C24.7428 18.6566 24.7408 18.6545 24.7389 18.6525L24.0069 19.3338ZM24.0433 19.3713C25.2025 20.5123 25.8503 22.056 25.8503 23.6615H26.8503C26.8503 21.7856 26.0933 19.986 24.7448 18.6586L24.0433 19.3713ZM25.8503 23.6615V29.0993H26.8503V23.6615H25.8503ZM25.8503 29.0993C25.8503 29.7533 26.3805 30.2835 27.0345 30.2835V29.2835C26.9327 29.2835 26.8503 29.201 26.8503 29.0993H25.8503ZM27.0345 30.2835C27.6885 30.2835 28.2187 29.7533 28.2187 29.0993H27.2187C27.2187 29.201 27.1362 29.2835 27.0345 29.2835V30.2835ZM28.2187 29.0993V23.6615H27.2187V29.0993H28.2187ZM28.2187 23.6615C28.2187 21.6088 27.4614 19.6361 26.1038 18.1038L25.3553 18.767C26.5527 20.1184 27.2187 21.8558 27.2187 23.6615H28.2187ZM25.2568 18.6298C25.2708 18.6436 25.2816 18.6583 25.2899 18.6735L26.1692 18.1973C26.1143 18.0959 26.0438 18.0012 25.9583 17.9171L25.2568 18.6298ZM19.9119 16.4502C21.9161 16.4502 23.8388 17.2339 25.2568 18.6298L25.9583 17.9171C24.3516 16.3355 22.1763 15.4502 19.9119 15.4502V16.4502ZM14.567 18.6298C15.985 17.2339 17.9077 16.4502 19.9119 16.4502V15.4502C17.6475 15.4502 15.4722 16.3355 13.8654 17.9171L14.567 18.6298ZM12.3516 23.8953C12.3516 21.9198 13.1488 20.0258 14.567 18.6298L13.8654 17.9171C12.2581 19.4994 11.3516 21.6494 11.3516 23.8953H12.3516ZM12.3516 29.333V23.8953H11.3516V29.333H12.3516ZM12.5358 29.5173C12.434 29.5173 12.3516 29.4348 12.3516 29.333H11.3516C11.3516 29.9871 11.8818 30.5173 12.5358 30.5173V29.5173ZM12.72 29.333C12.72 29.4348 12.6375 29.5173 12.5358 29.5173V30.5173C13.1898 30.5173 13.72 29.9871 13.72 29.333H12.72ZM12.72 23.8953V29.333H13.72V23.8953H12.72ZM14.8254 18.8924C13.477 20.2197 12.72 22.0194 12.72 23.8953H13.72C13.72 22.2897 14.3678 20.7461 15.527 19.605L14.8254 18.8924Z" fill="#1882D6"/>
<path d="M19.9024 16.6321C21.0203 16.6321 22.0924 16.195 22.8828 15.4169C23.6733 14.6388 24.1173 13.5834 24.1173 12.483C24.1173 11.3826 23.6733 10.3273 22.8828 9.54921C22.0924 8.77112 21.0203 8.33398 19.9024 8.33398C18.7846 8.33398 17.7125 8.77112 16.922 9.54921C16.1316 10.3273 15.6875 11.3826 15.6875 12.483C15.6875 13.5834 16.1316 14.6388 16.922 15.4169C17.7125 16.195 18.7846 16.6321 19.9024 16.6321Z" stroke="#1882D6" stroke-width="2" stroke-linecap="round" stroke-linejoin="round"/>
<path d="M4.48438 27.5275V23.479C4.48437 22.0453 5.06295 20.6703 6.09282 19.6566C7.1227 18.6428 8.5195 18.0732 9.97596 18.0732C11.4324 18.0732 12.8292 18.6428 13.8591 19.6566" stroke="#1882D6" stroke-width="2" stroke-linecap="round"/>
<path d="M9.97399 18.0726C10.8063 18.0726 11.6044 17.7471 12.1929 17.1678C12.7814 16.5885 13.112 15.8028 13.112 14.9835C13.112 14.1643 12.7814 13.3786 12.1929 12.7993C11.6044 12.22 10.8063 11.8945 9.97399 11.8945C9.14173 11.8945 8.34355 12.22 7.75505 12.7993C7.16655 13.3786 6.83594 14.1643 6.83594 14.9835C6.83594 15.8028 7.16655 16.5885 7.75505 17.1678C8.34355 17.7471 9.14173 18.0726 9.97399 18.0726Z" stroke="#1882D6" stroke-width="2" stroke-linecap="round" stroke-linejoin="round"/>
<path d="M35.5156 27.7883V23.7398C35.5156 22.3061 34.937 20.9311 33.9072 19.9173C32.8773 18.9035 31.4805 18.334 30.024 18.334C28.5676 18.334 27.1708 18.9035 26.1409 19.9173" stroke="#1882D6" stroke-width="2" stroke-linecap="round"/>
<path d="M30.026 18.3333C29.1937 18.3333 28.3956 18.0079 27.8071 17.4286C27.2186 16.8493 26.888 16.0636 26.888 15.2443C26.888 14.425 27.2186 13.6393 27.8071 13.06C28.3956 12.4807 29.1937 12.1553 30.026 12.1553C30.8583 12.1553 31.6564 12.4807 32.2449 13.06C32.8334 13.6393 33.1641 14.425 33.1641 15.2443C33.1641 16.0636 32.8334 16.8493 32.2449 17.4286C31.6564 18.0079 30.8583 18.3333 30.026 18.3333Z" stroke="#1882D6" stroke-width="2" stroke-linecap="round" stroke-linejoin="round"/>
</svg>
