<svg width="40" height="40" viewBox="0 0 40 40" fill="none" xmlns="http://www.w3.org/2000/svg">
<path d="M15.5187 11.183C15.3642 11.3372 15.2416 11.5203 15.1579 11.7219C15.0743 11.9235 15.0312 12.1397 15.0312 12.358C15.0312 12.5762 15.0743 12.7924 15.1579 12.994C15.2416 13.1956 15.3642 13.3788 15.5187 13.533L21.9853 19.9996L15.5187 26.4663C15.207 26.7779 15.032 27.2006 15.032 27.6413C15.032 28.082 15.207 28.5047 15.5187 28.8163C15.8303 29.1279 16.2529 29.303 16.6937 29.303C17.1344 29.303 17.557 29.1279 17.8687 28.8163L25.5187 21.1663C25.6732 21.0121 25.7957 20.829 25.8794 20.6273C25.963 20.4257 26.0061 20.2096 26.0061 19.9913C26.0061 19.773 25.963 19.5569 25.8794 19.3553C25.7957 19.1536 25.6732 18.9705 25.5187 18.8163L17.8687 11.1663C17.2353 10.533 16.1687 10.533 15.5187 11.183Z" fill="#1882D6"/>
</svg>
