<svg width="24" height="24" viewBox="0 0 24 24" fill="none" xmlns="http://www.w3.org/2000/svg">
<path d="M10.5734 10.8333C9.65038 10.8333 8.74812 10.5596 7.98069 10.0469C7.21327 9.53408 6.61513 8.80525 6.26192 7.95252C5.90871 7.0998 5.81629 6.16149 5.99636 5.25625C6.17642 4.351 6.62088 3.51948 7.27352 2.86684C7.92617 2.21419 8.75769 1.76974 9.66293 1.58967C10.5682 1.40961 11.5065 1.50202 12.3592 1.85523C13.2119 2.20844 13.9408 2.80658 14.4535 3.57401C14.9663 4.34144 15.24 5.24369 15.24 6.16667C15.24 7.40435 14.7484 8.59133 13.8732 9.4665C12.998 10.3417 11.811 10.8333 10.5734 10.8333ZM10.5734 2.88667C9.91409 2.88667 9.26962 3.08217 8.72146 3.44844C8.17329 3.81471 7.74605 4.3353 7.49376 4.94439C7.24147 5.55348 7.17545 6.2237 7.30407 6.8703C7.43269 7.51691 7.75016 8.11085 8.21633 8.57702C8.68251 9.0432 9.27645 9.36067 9.92306 9.48929C10.5697 9.6179 11.2399 9.55189 11.849 9.2996C12.4581 9.04731 12.9787 8.62007 13.3449 8.0719C13.7112 7.52374 13.9067 6.87927 13.9067 6.22C13.9067 5.78226 13.8205 5.34881 13.653 4.94439C13.4854 4.53997 13.2399 4.17251 12.9304 3.86298C12.6208 3.55345 12.2534 3.30792 11.849 3.1404C11.4445 2.97289 11.0111 2.88667 10.5734 2.88667ZM14.2867 11.64C10.679 10.8282 6.90471 11.2192 3.54002 12.7533C3.07729 12.9744 2.68686 13.3223 2.41422 13.7567C2.14158 14.191 1.99794 14.6939 2.00002 15.2067V19.1733C2.00002 19.2609 2.01727 19.3476 2.05077 19.4285C2.08427 19.5093 2.13338 19.5828 2.19528 19.6447C2.25719 19.7066 2.33068 19.7558 2.41157 19.7893C2.49245 19.8228 2.57914 19.84 2.66669 19.84C2.75424 19.84 2.84093 19.8228 2.92181 19.7893C3.0027 19.7558 3.07619 19.7066 3.13809 19.6447C3.2 19.5828 3.24911 19.5093 3.28261 19.4285C3.31611 19.3476 3.33336 19.2609 3.33336 19.1733V15.2067C3.32755 14.9471 3.39764 14.6916 3.53501 14.4713C3.67238 14.251 3.87107 14.0756 4.10669 13.9667C6.13353 13.0308 8.3409 12.5506 10.5734 12.56C11.8242 12.5584 13.0708 12.7061 14.2867 13V11.64ZM14.38 17.98H18.4734V18.9133H14.38V17.98Z" fill="black"/>
<path d="M21.7318 14.0197H18.2852V15.353H21.0652V20.933H11.6185V15.353H15.8185V15.633C15.8185 15.8099 15.8887 15.9794 16.0138 16.1045C16.1388 16.2295 16.3083 16.2997 16.4852 16.2997C16.662 16.2997 16.8315 16.2295 16.9566 16.1045C17.0816 15.9794 17.1518 15.8099 17.1518 15.633V13.0397C17.1518 12.8629 17.0816 12.6933 16.9566 12.5683C16.8315 12.4433 16.662 12.373 16.4852 12.373C16.3083 12.373 16.1388 12.4433 16.0138 12.5683C15.8887 12.6933 15.8185 12.8629 15.8185 13.0397V14.0197H10.9518C10.775 14.0197 10.6054 14.09 10.4804 14.215C10.3554 14.34 10.2852 14.5096 10.2852 14.6864V21.5997C10.2852 21.7765 10.3554 21.9461 10.4804 22.0711C10.6054 22.1961 10.775 22.2664 10.9518 22.2664H21.7318C21.9086 22.2664 22.0782 22.1961 22.2032 22.0711C22.3282 21.9461 22.3985 21.7765 22.3985 21.5997V14.6864C22.3985 14.5096 22.3282 14.34 22.2032 14.215C22.0782 14.09 21.9086 14.0197 21.7318 14.0197Z" fill="black"/>
</svg>
