<svg width="20" height="20" viewBox="0 0 20 20" fill="none" xmlns="http://www.w3.org/2000/svg">
<g clip-path="url(#clip0_1092_11441)">
<path d="M18.6773 9.73915C16.8051 6.27804 13.5217 4.18359 9.88841 4.18359C6.25508 4.18359 2.96619 6.27804 1.11063 9.73915L0.955078 10.0003L1.09952 10.2669C2.97174 13.728 6.25508 15.8225 9.88841 15.8225C13.5217 15.8225 16.8106 13.7558 18.6773 10.2669L18.8217 10.0003L18.6773 9.73915ZM9.88841 14.6836C6.76063 14.6836 3.88841 12.9391 2.22174 10.0003C3.88841 7.06137 6.76063 5.31693 9.88841 5.31693C13.0162 5.31693 15.8551 7.06693 17.5495 10.0003C15.8551 12.9391 13.0106 14.6836 9.88841 14.6836Z" fill="#A9A9A9"/>
<path d="M10.0509 6.20518C9.29761 6.21068 8.56286 6.43928 7.93944 6.86211C7.31602 7.28495 6.83189 7.88305 6.54819 8.58087C6.26449 9.27869 6.19395 10.0449 6.34548 10.7828C6.49701 11.5207 6.86382 12.1972 7.39956 12.7267C7.93531 13.2562 8.61597 13.6151 9.35558 13.7581C10.0952 13.901 10.8605 13.8215 11.555 13.5297C12.2495 13.2379 12.8419 12.7469 13.2575 12.1186C13.673 11.4903 13.893 10.7529 13.8898 9.99962C13.8876 9.4982 13.7865 9.00213 13.5922 8.53986C13.398 8.07758 13.1144 7.65818 12.7578 7.30568C12.4012 6.95319 11.9785 6.67453 11.514 6.48569C11.0495 6.29684 10.5523 6.20152 10.0509 6.20518ZM10.0509 12.7163C9.5188 12.7108 9.0002 12.5482 8.56022 12.249C8.12024 11.9497 7.77849 11.5271 7.5779 11.0343C7.37731 10.5414 7.32682 10.0003 7.43277 9.47882C7.53872 8.95736 7.79639 8.47884 8.17342 8.10335C8.55044 7.72786 9.03001 7.47215 9.55189 7.36833C10.0738 7.2645 10.6147 7.3172 11.1067 7.5198C11.5988 7.7224 12.02 8.06587 12.3174 8.50707C12.6149 8.94827 12.7753 9.46753 12.7787 9.99962C12.7801 10.3577 12.7105 10.7126 12.5738 11.0436C12.4371 11.3746 12.2361 11.6751 11.9823 11.9278C11.7286 12.1806 11.4272 12.3804 11.0957 12.5157C10.7641 12.6511 10.409 12.7192 10.0509 12.7163Z" fill="#A9A9A9"/>
</g>
<defs>
<clipPath id="clip0_1092_11441">
<rect width="20" height="20" fill="white"/>
</clipPath>
</defs>
</svg>
