<svg width="40" height="40" viewBox="0 0 40 40" fill="none" xmlns="http://www.w3.org/2000/svg">
<path d="M35.1502 19.9997H36.6654M19.9987 4.84816V3.33301M19.9987 36.6663V35.1512M32.1199 32.1209L30.6048 30.6057M32.1199 7.87846L30.6048 9.39361M7.87749 32.1209L9.39264 30.6057M7.87749 7.87846L9.39264 9.39361M3.33203 19.9997H4.84718M16.8957 16.3982L19.2578 11.3906C19.3214 11.2472 19.4253 11.1254 19.5568 11.0398C19.6883 10.9543 19.8418 10.9088 19.9987 10.9088C20.1556 10.9088 20.3091 10.9543 20.4406 11.0398C20.5721 11.1254 20.676 11.2472 20.7396 11.3906L23.1017 16.3982L28.382 17.2057C29.0593 17.3088 29.329 18.1815 28.8396 18.6815L25.0184 22.5754L25.9199 28.0769C26.0366 28.7845 25.3275 29.3224 24.7214 28.9891L19.9987 26.3906L15.276 28.9891C14.6699 29.3224 13.9608 28.7845 14.0775 28.0769L14.979 22.5769L11.1578 18.6815C10.6684 18.1815 10.9381 17.3088 11.6154 17.2057L16.8957 16.3982Z" stroke="#1882D6" stroke-linecap="round" stroke-linejoin="round"/>
</svg>
