<svg width="64" height="64" viewBox="0 0 64 64" fill="none" xmlns="http://www.w3.org/2000/svg">
<path d="M15.5898 32.002V21.2124C15.6218 19.0915 16.0721 16.9978 16.9147 15.0512C17.7573 13.1046 18.9757 11.3434 20.5001 9.86856C22.0245 8.39368 23.825 7.2341 25.7983 6.45625C27.7717 5.6784 29.8791 5.29758 31.9999 5.3356C34.1207 5.29758 36.2281 5.6784 38.2015 6.45625C40.1748 7.2341 41.9753 8.39368 43.4997 9.86856C45.0241 11.3434 46.2425 13.1046 47.0851 15.0512C47.9277 16.9978 48.378 19.0915 48.41 21.2124V32.002M40.2049 53.5403C42.3811 53.5403 44.468 52.6758 46.0068 51.1371C47.5455 49.5983 48.41 47.5113 48.41 45.3352V36.1045M40.2049 53.5403C40.2049 54.9003 39.6647 56.2047 38.7029 57.1664C37.7412 58.1281 36.4369 58.6684 35.0768 58.6684H28.923C27.5629 58.6684 26.2586 58.1281 25.2969 57.1664C24.3351 56.2047 23.7949 54.9003 23.7949 53.5403C23.7949 52.1802 24.3351 50.8758 25.2969 49.9141C26.2586 48.9524 27.5629 48.4121 28.923 48.4121H35.0768C36.4369 48.4121 37.7412 48.9524 38.7029 49.9141C39.6647 50.8758 40.2049 52.1802 40.2049 53.5403ZM9.43602 25.8482H13.5385C14.0826 25.8482 14.6043 26.0643 14.989 26.449C15.3737 26.8337 15.5898 27.3555 15.5898 27.8995V40.2071C15.5898 40.7511 15.3737 41.2728 14.989 41.6575C14.6043 42.0422 14.0826 42.2583 13.5385 42.2583H9.43602C8.34796 42.2583 7.30447 41.8261 6.5351 41.0567C5.76573 40.2873 5.3335 39.2438 5.3335 38.1558V29.9507C5.3335 28.8627 5.76573 27.8192 6.5351 27.0498C7.30447 26.2804 8.34796 25.8482 9.43602 25.8482ZM54.5638 42.2583H50.4613C49.9172 42.2583 49.3955 42.0422 49.0108 41.6575C48.6261 41.2728 48.41 40.7511 48.41 40.2071V27.8995C48.41 27.3555 48.6261 26.8337 49.0108 26.449C49.3955 26.0643 49.9172 25.8482 50.4613 25.8482H54.5638C55.6518 25.8482 56.6953 26.2804 57.4647 27.0498C58.2341 27.8192 58.6663 28.8627 58.6663 29.9507V38.1558C58.6663 39.2438 58.2341 40.2873 57.4647 41.0567C56.6953 41.8261 55.6518 42.2583 54.5638 42.2583Z" stroke="#1882D6" stroke-width="2.66667" stroke-linecap="round" stroke-linejoin="round"/>
</svg>
