<svg width="64" height="64" viewBox="0 0 64 64" fill="none" xmlns="http://www.w3.org/2000/svg">
<path d="M8.66683 10.3997C8.66683 9.05591 9.19361 7.76718 10.1313 6.817C11.069 5.86682 12.3407 5.33301 13.6668 5.33301H50.3335C51.6596 5.33301 52.9313 5.86682 53.869 6.817C54.8067 7.76718 55.3335 9.05591 55.3335 10.3997V34.0441C55.3335 35.3879 54.8067 36.6766 53.869 37.6268C52.9313 38.577 51.6596 39.1108 50.3335 39.1108H32.0002V35.733H50.3335C50.7755 35.733 51.1995 35.5551 51.512 35.2383C51.8246 34.9216 52.0002 34.492 52.0002 34.0441V10.3997C52.0002 9.95175 51.8246 9.52218 51.512 9.20545C51.1995 8.88872 50.7755 8.71079 50.3335 8.71079H13.6668C13.2248 8.71079 12.8009 8.88872 12.4883 9.20545C12.1758 9.52218 12.0002 9.95175 12.0002 10.3997V15.4663H8.66683V10.3997ZM32.0002 45.8663H57.0002C57.4422 45.8663 57.8661 45.6884 58.1787 45.3717C58.4912 45.055 58.6668 44.6254 58.6668 44.1775C58.6668 43.7295 58.4912 43.3 58.1787 42.9832C57.8661 42.6665 57.4422 42.4886 57.0002 42.4886H32.0002V45.8663ZM15.3335 45.8663C14.8915 45.8663 14.4675 46.0443 14.155 46.361C13.8424 46.6777 13.6668 47.1073 13.6668 47.5552C13.6668 48.0032 13.8424 48.4327 14.155 48.7495C14.4675 49.0662 14.8915 49.2441 15.3335 49.2441H18.6668C19.1089 49.2441 19.5328 49.0662 19.8453 48.7495C20.1579 48.4327 20.3335 48.0032 20.3335 47.5552C20.3335 47.1073 20.1579 46.6777 19.8453 46.361C19.5328 46.0443 19.1089 45.8663 18.6668 45.8663H15.3335ZM5.3335 23.9108C5.3335 22.567 5.86028 21.2783 6.79796 20.3281C7.73564 19.3779 9.00741 18.8441 10.3335 18.8441H23.6668C24.9929 18.8441 26.2647 19.3779 27.2024 20.3281C28.14 21.2783 28.6668 22.567 28.6668 23.9108V50.933C28.6668 52.2768 28.14 53.5655 27.2024 54.5157C26.2647 55.4659 24.9929 55.9997 23.6668 55.9997H10.3335C9.00741 55.9997 7.73564 55.4659 6.79796 54.5157C5.86028 53.5655 5.3335 52.2768 5.3335 50.933V23.9108ZM10.3335 22.2219C9.89147 22.2219 9.46755 22.3998 9.15499 22.7166C8.84242 23.0333 8.66683 23.4629 8.66683 23.9108V50.933C8.66683 51.3809 8.84242 51.8105 9.15499 52.1272C9.46755 52.444 9.89147 52.6219 10.3335 52.6219H23.6668C24.1089 52.6219 24.5328 52.444 24.8453 52.1272C25.1579 51.8105 25.3335 51.3809 25.3335 50.933V23.9108C25.3335 23.4629 25.1579 23.0333 24.8453 22.7166C24.5328 22.3998 24.1089 22.2219 23.6668 22.2219H10.3335Z" fill="#1882D6"/>
</svg>
