<svg width="64" height="64" viewBox="0 0 64 64" fill="none" xmlns="http://www.w3.org/2000/svg">
<path d="M14.2224 5.33398H5.3335V14.2229M49.7779 5.33398H58.6668V14.2229M14.2224 58.6673H5.3335V49.7784M17.1853 49.7784V46.8155C17.1853 42.8863 18.7462 39.1181 21.5245 36.3398C24.3028 33.5615 28.071 32.0007 32.0002 32.0007M32.0002 32.0007C35.9293 32.0007 39.6975 33.5615 42.4758 36.3398M32.0002 32.0007C34.3576 32.0007 36.6186 31.0641 38.2856 29.3972C39.9525 27.7302 40.8891 25.4692 40.8891 23.1118C40.8891 20.7543 39.9525 18.4934 38.2856 16.8264C36.6186 15.1594 34.3576 14.2229 32.0002 14.2229C29.6427 14.2229 27.3818 15.1594 25.7148 16.8264C24.0478 18.4934 23.1113 20.7543 23.1113 23.1118C23.1113 25.4692 24.0478 27.7302 25.7148 29.3972C27.3818 31.0641 29.6427 32.0007 32.0002 32.0007ZM49.7779 58.6673H58.6668V49.7784" stroke="#1882D6" stroke-width="2.66667" stroke-linecap="round" stroke-linejoin="round"/>
<path d="M42.668 45.0874L44.268 46.6874L48.0013 42.9541" stroke="#1882D6" stroke-width="1.3511" stroke-linecap="round" stroke-linejoin="round"/>
<path d="M45.3333 50.1569C48.2789 50.1569 50.6667 47.7692 50.6667 44.8236C50.6667 41.878 48.2789 39.4902 45.3333 39.4902C42.3877 39.4902 40 41.878 40 44.8236C40 47.7692 42.3877 50.1569 45.3333 50.1569Z" stroke="#1882D6" stroke-width="1.3511" stroke-linecap="round" stroke-linejoin="round"/>
</svg>
