<svg width="64" height="64" viewBox="0 0 64 64" fill="none" xmlns="http://www.w3.org/2000/svg">
<circle cx="13.3337" cy="15.9997" r="2.66667" fill="#1882D6"/>
<circle cx="21.3337" cy="15.9997" r="2.66667" fill="#1882D6"/>
<circle cx="29.3337" cy="15.9997" r="2.66667" fill="#1882D6"/>
<path d="M37.3335 56H10.6668C9.25234 56 7.89579 55.4381 6.89559 54.4379C5.8954 53.4377 5.3335 52.0812 5.3335 50.6667V13.3333C5.3335 11.9188 5.8954 10.5623 6.89559 9.5621C7.89579 8.5619 9.25234 8 10.6668 8H53.3335C54.748 8 56.1045 8.5619 57.1047 9.5621C58.1049 10.5623 58.6668 11.9188 58.6668 13.3333V37.3333" stroke="#1882D6" stroke-width="2.66667" stroke-linecap="round"/>
<path d="M5.3335 24.0029H58.6668" stroke="#1882D6" stroke-width="2.66667" stroke-linecap="round" stroke-linejoin="round"/>
<path d="M56.3807 42.4006C55.6454 41.6502 54.7694 41.0521 53.803 40.6403C52.8365 40.2284 51.7983 40.011 50.7478 40.0004C49.6973 39.9898 48.6549 40.1862 47.6803 40.5784C46.7057 40.9706 45.8179 41.551 45.0676 42.2863C44.3172 43.0216 43.7191 43.8975 43.3073 44.864C42.8954 45.8305 42.678 46.8687 42.6674 47.9192C42.646 50.0408 43.4682 52.0841 44.9533 53.5994M56.3807 42.4006C57.8658 43.9159 58.688 45.9592 58.6666 48.0808C58.6452 50.2024 57.7818 52.2286 56.2664 53.7137C54.7511 55.1988 52.7078 56.021 50.5862 55.9996C48.4646 55.9782 46.4383 55.1148 44.9533 53.5994M56.3807 42.4006L44.9533 53.5994" stroke="#1882D6" stroke-width="2.66667" stroke-linecap="round" stroke-linejoin="round"/>
</svg>
