<svg width="40" height="40" viewBox="0 0 40 40" fill="none" xmlns="http://www.w3.org/2000/svg">
<mask id="path-1-inside-1_370_9050" fill="white">
<path fill-rule="evenodd" clip-rule="evenodd" d="M25.8335 14.9993C25.8335 14.5391 26.2067 14.166 26.6668 14.166H36.6668C37.127 14.166 37.5002 14.5391 37.5002 14.9993C37.5002 15.4596 37.127 15.8327 36.6668 15.8327H26.6668C26.2067 15.8327 25.8335 15.4596 25.8335 14.9993Z"/>
</mask>
<path d="M27.5002 14.9993C27.5002 15.4597 27.1271 15.8327 26.6668 15.8327V12.4993C25.2863 12.4993 24.1668 13.6186 24.1668 14.9993H27.5002ZM26.6668 15.8327H36.6668V12.4993H26.6668V15.8327ZM36.6668 15.8327C36.2066 15.8327 35.8335 15.4597 35.8335 14.9993H39.1668C39.1668 13.6186 38.0474 12.4993 36.6668 12.4993V15.8327ZM35.8335 14.9993C35.8335 14.539 36.2066 14.166 36.6668 14.166V17.4993C38.0474 17.4993 39.1668 16.3801 39.1668 14.9993H35.8335ZM36.6668 14.166H26.6668V17.4993H36.6668V14.166ZM26.6668 14.166C27.1271 14.166 27.5002 14.539 27.5002 14.9993H24.1668C24.1668 16.3801 25.2863 17.4993 26.6668 17.4993V14.166Z" fill="#1882D6" mask="url(#path-1-inside-1_370_9050)"/>
<mask id="path-3-inside-2_370_9050" fill="white">
<path fill-rule="evenodd" clip-rule="evenodd" d="M25.8335 11.6673C25.8335 11.2071 26.2067 10.834 26.6668 10.834H31.6668C32.127 10.834 32.5002 11.2071 32.5002 11.6673C32.5002 12.1276 32.127 12.5007 31.6668 12.5007H26.6668C26.2067 12.5007 25.8335 12.1276 25.8335 11.6673Z"/>
</mask>
<path fill-rule="evenodd" clip-rule="evenodd" d="M25.8335 11.6673C25.8335 11.2071 26.2067 10.834 26.6668 10.834H31.6668C32.127 10.834 32.5002 11.2071 32.5002 11.6673C32.5002 12.1276 32.127 12.5007 31.6668 12.5007H26.6668C26.2067 12.5007 25.8335 12.1276 25.8335 11.6673Z" fill="#1882D6"/>
<path d="M27.5002 11.6673C27.5002 12.1276 27.1271 12.5007 26.6668 12.5007V9.16732C25.2863 9.16732 24.1668 10.2865 24.1668 11.6673H27.5002ZM26.6668 12.5007H31.6668V9.16732H26.6668V12.5007ZM31.6668 12.5007C31.2066 12.5007 30.8335 12.1276 30.8335 11.6673H34.1668C34.1668 10.2865 33.0474 9.16732 31.6668 9.16732V12.5007ZM30.8335 11.6673C30.8335 11.207 31.2066 10.834 31.6668 10.834V14.1673C33.0474 14.1673 34.1668 13.0481 34.1668 11.6673H30.8335ZM31.6668 10.834H26.6668V14.1673H31.6668V10.834ZM26.6668 10.834C27.1271 10.834 27.5002 11.207 27.5002 11.6673H24.1668C24.1668 13.0481 25.2863 14.1673 26.6668 14.1673V10.834Z" fill="#1882D6" mask="url(#path-3-inside-2_370_9050)"/>
<mask id="path-5-inside-3_370_9050" fill="white">
<path fill-rule="evenodd" clip-rule="evenodd" d="M25.8335 18.3333C25.8335 17.8732 26.2067 17.5 26.6668 17.5H36.6668C37.127 17.5 37.5002 17.8732 37.5002 18.3333C37.5002 18.7935 37.127 19.1667 36.6668 19.1667H26.6668C26.2067 19.1667 25.8335 18.7935 25.8335 18.3333Z"/>
</mask>
<path fill-rule="evenodd" clip-rule="evenodd" d="M25.8335 18.3333C25.8335 17.8732 26.2067 17.5 26.6668 17.5H36.6668C37.127 17.5 37.5002 17.8732 37.5002 18.3333C37.5002 18.7935 37.127 19.1667 36.6668 19.1667H26.6668C26.2067 19.1667 25.8335 18.7935 25.8335 18.3333Z" fill="#1882D6"/>
<path d="M27.5002 18.3333C27.5002 18.7936 27.1271 19.1667 26.6668 19.1667V15.8333C25.2862 15.8333 24.1668 16.9527 24.1668 18.3333H27.5002ZM26.6668 19.1667H36.6668V15.8333H26.6668V19.1667ZM36.6668 19.1667C36.2065 19.1667 35.8335 18.7936 35.8335 18.3333H39.1668C39.1668 16.9527 38.0475 15.8333 36.6668 15.8333V19.1667ZM35.8335 18.3333C35.8335 17.873 36.2065 17.5 36.6668 17.5V20.8333C38.0475 20.8333 39.1668 19.714 39.1668 18.3333H35.8335ZM36.6668 17.5H26.6668V20.8333H36.6668V17.5ZM26.6668 17.5C27.1271 17.5 27.5002 17.873 27.5002 18.3333H24.1668C24.1668 19.714 25.2862 20.8333 26.6668 20.8333V17.5Z" fill="#1882D6" mask="url(#path-5-inside-3_370_9050)"/>
<path fill-rule="evenodd" clip-rule="evenodd" d="M25.8335 21.6673C25.8335 21.2072 26.2067 20.834 26.6668 20.834H33.3335C33.7937 20.834 34.1668 21.2072 34.1668 21.6673C34.1668 22.1275 33.7937 22.5007 33.3335 22.5007H26.6668C26.2067 22.5007 25.8335 22.1275 25.8335 21.6673Z" fill="#1882D6"/>
<path fill-rule="evenodd" clip-rule="evenodd" d="M25.8335 24.9993C25.8335 24.5392 26.2067 24.166 26.6668 24.166H36.6668C37.127 24.166 37.5002 24.5392 37.5002 24.9993C37.5002 25.4595 37.127 25.8327 36.6668 25.8327H26.6668C26.2067 25.8327 25.8335 25.4595 25.8335 24.9993Z" fill="#1882D6"/>
<path fill-rule="evenodd" clip-rule="evenodd" d="M25.8335 28.3333C25.8335 27.8732 26.2067 27.5 26.6668 27.5H36.6668C37.127 27.5 37.5002 27.8732 37.5002 28.3333C37.5002 28.7935 37.127 29.1667 36.6668 29.1667H26.6668C26.2067 29.1667 25.8335 28.7935 25.8335 28.3333Z" fill="#1882D6"/>
<path fill-rule="evenodd" clip-rule="evenodd" d="M13.3332 20.8327C12.0808 20.8327 10.8797 21.3302 9.99412 22.2158C9.10852 23.1013 8.611 24.3025 8.611 25.5548V26.666C8.611 27.1262 8.23792 27.4993 7.77767 27.4993C7.31744 27.4993 6.94434 27.1262 6.94434 26.666V25.5548C6.94434 23.8605 7.61745 22.2353 8.8156 21.0373C10.0138 19.8392 11.6388 19.166 13.3332 19.166C15.0277 19.166 16.6527 19.8392 17.8508 21.0373C19.049 22.2353 19.7222 23.8605 19.7222 25.5548V26.666C19.7222 27.1262 19.349 27.4993 18.8888 27.4993C18.4285 27.4993 18.0555 27.1262 18.0555 26.666V25.5548C18.0555 24.3025 17.558 23.1013 16.6723 22.2158C15.7868 21.3302 14.5856 20.8327 13.3332 20.8327Z" fill="#1882D6"/>
<path fill-rule="evenodd" clip-rule="evenodd" d="M10.3869 13.7204C11.1683 12.939 12.2281 12.5 13.3332 12.5C14.4382 12.5 15.4981 12.939 16.2795 13.7204C17.0608 14.5018 17.4998 15.5616 17.4998 16.6667C17.4998 17.7717 17.0608 18.8315 16.2795 19.613C15.4981 20.3943 14.4382 20.8333 13.3332 20.8333C12.2281 20.8333 11.1683 20.3943 10.3869 19.613C9.60549 18.8315 9.1665 17.7717 9.1665 16.6667C9.1665 15.5616 9.60549 14.5018 10.3869 13.7204ZM13.3332 14.1667C12.6701 14.1667 12.0342 14.4301 11.5654 14.8989C11.0966 15.3677 10.8332 16.0036 10.8332 16.6667C10.8332 17.3297 11.0966 17.9657 11.5654 18.4345C12.0342 18.9033 12.6701 19.1667 13.3332 19.1667C13.9962 19.1667 14.6321 18.9033 15.1009 18.4345C15.5698 17.9657 15.8332 17.3297 15.8332 16.6667C15.8332 16.0036 15.5698 15.3677 15.1009 14.8989C14.6321 14.4301 13.9962 14.1667 13.3332 14.1667Z" fill="#1882D6"/>
<path fill-rule="evenodd" clip-rule="evenodd" d="M4.16667 10.8327V29.166H22.5V10.8327H4.16667ZM2.93933 9.60535C3.22065 9.32405 3.60217 9.16602 4 9.16602H22.6667C23.0645 9.16602 23.446 9.32405 23.7273 9.60535C24.0087 9.88667 24.1667 10.2682 24.1667 10.666V29.3327C24.1667 29.7305 24.0087 30.112 23.7273 30.3933C23.446 30.6747 23.0645 30.8327 22.6667 30.8327H4C3.60218 30.8327 3.22065 30.6747 2.93933 30.3933C2.65803 30.112 2.5 29.7305 2.5 29.3327V10.666C2.5 10.2682 2.65803 9.88667 2.93933 9.60535Z" fill="#1882D6"/>
</svg>
