<svg width="40" height="40" viewBox="0 0 40 40" fill="none" xmlns="http://www.w3.org/2000/svg">
<mask id="path-1-inside-1_912_41229" fill="white">
<path d="M14 18C14 16.9391 14.4214 15.9217 15.1716 15.1716C15.9217 14.4214 16.9391 14 18 14C19.0609 14 20.0783 14.4214 20.8284 15.1716C21.5786 15.9217 22 16.9391 22 18C22 19.0609 21.5786 20.0783 20.8284 20.8284C20.0783 21.5786 19.0609 22 18 22C16.9391 22 15.9217 21.5786 15.1716 20.8284C14.4214 20.0783 14 19.0609 14 18ZM18 16C17.4696 16 16.9609 16.2107 16.5858 16.5858C16.2107 16.9609 16 17.4696 16 18C16 18.5304 16.2107 19.0391 16.5858 19.4142C16.9609 19.7893 17.4696 20 18 20C18.5304 20 19.0391 19.7893 19.4142 19.4142C19.7893 19.0391 20 18.5304 20 18C20 17.4696 19.7893 16.9609 19.4142 16.5858C19.0391 16.2107 18.5304 16 18 16ZM7 8C6.20435 8 5.44129 8.31607 4.87868 8.87868C4.31607 9.44129 4 10.2044 4 11V25C4 25.7956 4.31607 26.5587 4.87868 27.1213C5.44129 27.6839 6.20435 28 7 28H29C29.7956 28 30.5587 27.6839 31.1213 27.1213C31.6839 26.5587 32 25.7956 32 25V11C32 10.2044 31.6839 9.44129 31.1213 8.87868C30.5587 8.31607 29.7956 8 29 8H7ZM6 11C6 10.7348 6.10536 10.4804 6.29289 10.2929C6.48043 10.1054 6.73478 10 7 10H10V12C10 12.5304 9.78929 13.0391 9.41421 13.4142C9.03914 13.7893 8.53043 14 8 14H6V11ZM6 16H8C9.06087 16 10.0783 15.5786 10.8284 14.8284C11.5786 14.0783 12 13.0609 12 12V10H24V12C24 13.0609 24.4214 14.0783 25.1716 14.8284C25.9217 15.5786 26.9391 16 28 16H30V20H28C26.9391 20 25.9217 20.4214 25.1716 21.1716C24.4214 21.9217 24 22.9391 24 24V26H12V24C12 22.9391 11.5786 21.9217 10.8284 21.1716C10.0783 20.4214 9.06087 20 8 20H6V16ZM26 10H29C29.2652 10 29.5196 10.1054 29.7071 10.2929C29.8946 10.4804 30 10.7348 30 11V14H28C27.4696 14 26.9609 13.7893 26.5858 13.4142C26.2107 13.0391 26 12.5304 26 12V10ZM30 22V25C30 25.2652 29.8946 25.5196 29.7071 25.7071C29.5196 25.8946 29.2652 26 29 26H26V24C26 23.4696 26.2107 22.9609 26.5858 22.5858C26.9609 22.2107 27.4696 22 28 22H30ZM10 26H7C6.73478 26 6.48043 25.8946 6.29289 25.7071C6.10536 25.5196 6 25.2652 6 25V22H8C8.53043 22 9.03914 22.2107 9.41421 22.5858C9.78929 22.9609 10 23.4696 10 24V26ZM34 25C34 26.3261 33.4732 27.5979 32.5355 28.5355C31.5979 29.4732 30.3261 30 29 30H8.17C8.37688 30.5852 8.76016 31.0917 9.26702 31.4499C9.77387 31.8081 10.3793 32.0003 11 32H29C30.8565 32 32.637 31.2625 33.9497 29.9497C35.2625 28.637 36 26.8565 36 25V15C36.0003 14.3793 35.8081 13.7739 35.4499 13.267C35.0917 12.7602 34.5852 12.3769 34 12.17V25Z"/>
</mask>
<path d="M14 18H12H14ZM18 14V12V14ZM22 18H20H22ZM18 16V18V16ZM16 18H18H16ZM4 11H2H4ZM29 28V30V28ZM32 25H34H32ZM32 11H34H32ZM10 10H12V8H10V10ZM6 14H4V16H6V14ZM6 16V14H4V16H6ZM8 16V18V16ZM12 12H14H12ZM12 10V8H10V10H12ZM24 10H26V8H24V10ZM28 16V18V16ZM30 16H32V14H30V16ZM30 20V22H32V20H30ZM24 26V28H26V26H24ZM12 26H10V28H12V26ZM12 24H14H12ZM6 20H4V22H6V20ZM26 10V8H24V10H26ZM30 14V16H32V14H30ZM30 22H32V20H30V22ZM26 26H24V28H26V26ZM10 26V28H12V26H10ZM6 22V20H4V22H6ZM8.17 30V28H5.34157L6.28438 30.6667L8.17 30ZM11 32V30H10.999L11 32ZM36 15L34 14.999V15H36ZM34 12.17L34.6667 10.2844L32 9.34157V12.17H34ZM16 18C16 17.4696 16.2107 16.9609 16.5858 16.5858L13.7574 13.7574C12.6321 14.8826 12 16.4087 12 18H16ZM16.5858 16.5858C16.9609 16.2107 17.4696 16 18 16V12C16.4087 12 14.8826 12.6321 13.7574 13.7574L16.5858 16.5858ZM18 16C18.5304 16 19.0391 16.2107 19.4142 16.5858L22.2426 13.7574C21.1174 12.6321 19.5913 12 18 12V16ZM19.4142 16.5858C19.7893 16.9609 20 17.4696 20 18H24C24 16.4087 23.3679 14.8826 22.2426 13.7574L19.4142 16.5858ZM20 18C20 18.5304 19.7893 19.0391 19.4142 19.4142L22.2426 22.2426C23.3679 21.1174 24 19.5913 24 18H20ZM19.4142 19.4142C19.0391 19.7893 18.5304 20 18 20V24C19.5913 24 21.1174 23.3679 22.2426 22.2426L19.4142 19.4142ZM18 20C17.4696 20 16.9609 19.7893 16.5858 19.4142L13.7574 22.2426C14.8826 23.3679 16.4087 24 18 24V20ZM16.5858 19.4142C16.2107 19.0391 16 18.5304 16 18H12C12 19.5913 12.6321 21.1174 13.7574 22.2426L16.5858 19.4142ZM18 14C16.9391 14 15.9217 14.4214 15.1716 15.1716L18 18V14ZM15.1716 15.1716C14.4214 15.9217 14 16.9391 14 18H18L15.1716 15.1716ZM14 18C14 19.0609 14.4214 20.0783 15.1716 20.8284L18 18H14ZM15.1716 20.8284C15.9217 21.5786 16.9391 22 18 22V18L15.1716 20.8284ZM18 22C19.0609 22 20.0783 21.5786 20.8284 20.8284L18 18V22ZM20.8284 20.8284C21.5786 20.0783 22 19.0609 22 18H18L20.8284 20.8284ZM22 18C22 16.9391 21.5786 15.9217 20.8284 15.1716L18 18H22ZM20.8284 15.1716C20.0783 14.4214 19.0609 14 18 14V18L20.8284 15.1716ZM7 6C5.67392 6 4.40215 6.52678 3.46447 7.46447L6.29289 10.2929C6.48043 10.1054 6.73478 10 7 10V6ZM3.46447 7.46447C2.52678 8.40215 2 9.67392 2 11H6C6 10.7348 6.10536 10.4804 6.29289 10.2929L3.46447 7.46447ZM2 11V25H6V11H2ZM2 25C2 26.3261 2.52678 27.5979 3.46447 28.5355L6.29289 25.7071C6.10536 25.5196 6 25.2652 6 25H2ZM3.46447 28.5355C4.40215 29.4732 5.67392 30 7 30V26C6.73478 26 6.48043 25.8946 6.29289 25.7071L3.46447 28.5355ZM7 30H29V26H7V30ZM29 30C30.3261 30 31.5979 29.4732 32.5355 28.5355L29.7071 25.7071C29.5196 25.8946 29.2652 26 29 26V30ZM32.5355 28.5355C33.4732 27.5979 34 26.3261 34 25H30C30 25.2652 29.8946 25.5196 29.7071 25.7071L32.5355 28.5355ZM34 25V11H30V25H34ZM34 11C34 9.67392 33.4732 8.40215 32.5355 7.46447L29.7071 10.2929C29.8946 10.4804 30 10.7348 30 11H34ZM32.5355 7.46447C31.5979 6.52678 30.3261 6 29 6V10C29.2652 10 29.5196 10.1054 29.7071 10.2929L32.5355 7.46447ZM29 6H7V10H29V6ZM8 11C8 11.2652 7.89464 11.5196 7.70711 11.7071L4.87868 8.87868C4.31607 9.44129 4 10.2043 4 11H8ZM7.70711 11.7071C7.51957 11.8946 7.26522 12 7 12V8C6.20435 8 5.44129 8.31607 4.87868 8.87868L7.70711 11.7071ZM7 12H10V8H7V12ZM8 10V12H12V10H8ZM8 12L8 12L10.8284 14.8284C11.5786 14.0783 12 13.0609 12 12H8ZM8 12L8 12V16C9.06087 16 10.0783 15.5786 10.8284 14.8284L8 12ZM8 12H6V16H8V12ZM8 14V11H4V14H8ZM6 18H8V14H6V18ZM8 18C9.5913 18 11.1174 17.3679 12.2426 16.2426L9.41421 13.4142C9.03914 13.7893 8.53043 14 8 14V18ZM12.2426 16.2426C13.3679 15.1174 14 13.5913 14 12H10C10 12.5304 9.78929 13.0391 9.41421 13.4142L12.2426 16.2426ZM14 12V10H10V12H14ZM12 12H24V8H12V12ZM22 10V12H26V10H22ZM22 12C22 13.5913 22.6321 15.1174 23.7574 16.2426L26.5858 13.4142C26.2107 13.0391 26 12.5304 26 12H22ZM23.7574 16.2426C24.8826 17.3679 26.4087 18 28 18V14C27.4696 14 26.9609 13.7893 26.5858 13.4142L23.7574 16.2426ZM28 18H30V14H28V18ZM28 16V20H32V16H28ZM30 18H28V22H30V18ZM28 18C26.4087 18 24.8826 18.6321 23.7574 19.7574L26.5858 22.5858C26.9609 22.2107 27.4696 22 28 22V18ZM23.7574 19.7574C22.6321 20.8826 22 22.4087 22 24H26C26 23.4696 26.2107 22.9609 26.5858 22.5858L23.7574 19.7574ZM22 24V26H26V24H22ZM24 24H12V28H24V24ZM14 26V24H10V26H14ZM14 24C14 22.4087 13.3679 20.8826 12.2426 19.7574L9.41421 22.5858C9.78929 22.9609 10 23.4696 10 24H14ZM12.2426 19.7574C11.1174 18.6321 9.5913 18 8 18V22C8.53043 22 9.03914 22.2107 9.41421 22.5858L12.2426 19.7574ZM8 18H6V22H8V18ZM8 20V16H4V20H8ZM26 12H29V8H26V12ZM29 12C28.7348 12 28.4804 11.8946 28.2929 11.7071L31.1213 8.87868C30.5587 8.31607 29.7956 8 29 8V12ZM28.2929 11.7071C28.1054 11.5196 28 11.2652 28 11H32C32 10.2044 31.6839 9.44129 31.1213 8.87868L28.2929 11.7071ZM28 11V14H32V11H28ZM30 12H28V16H30V12ZM28 12V12L25.1716 14.8284C25.9217 15.5786 26.9391 16 28 16V12ZM28 12V12H24C24 13.0609 24.4214 14.0783 25.1716 14.8284L28 12ZM28 12V10H24V12H28ZM28 22V25H32V22H28ZM28 25C28 24.7348 28.1054 24.4804 28.2929 24.2929L31.1213 27.1213C31.6839 26.5587 32 25.7956 32 25H28ZM28.2929 24.2929C28.4804 24.1054 28.7348 24 29 24V28C29.7956 28 30.5587 27.6839 31.1213 27.1213L28.2929 24.2929ZM29 24H26V28H29V24ZM28 26V24H24V26H28ZM28 24L25.1716 21.1716C24.4214 21.9217 24 22.9391 24 24H28ZM28 24V20C26.9391 20 25.9217 20.4214 25.1716 21.1716L28 24ZM28 24H30V20H28V24ZM10 24H7V28H10V24ZM7 24C7.26521 24 7.51957 24.1054 7.70711 24.2929L4.87868 27.1213C5.44129 27.6839 6.20435 28 7 28V24ZM7.70711 24.2929C7.89464 24.4804 8 24.7348 8 25H4C4 25.7956 4.31607 26.5587 4.87868 27.1213L7.70711 24.2929ZM8 25V22H4V25H8ZM6 24H8V20H6V24ZM8 24H8L10.8284 21.1716C10.0783 20.4214 9.06087 20 8 20V24ZM8 24H8H12C12 22.9391 11.5786 21.9217 10.8284 21.1716L8 24ZM8 24V26H12V24H8ZM32 25C32 25.7956 31.6839 26.5587 31.1213 27.1213L33.9497 29.9497C35.2625 28.637 36 26.8565 36 25H32ZM31.1213 27.1213C30.5587 27.6839 29.7956 28 29 28V32C30.8565 32 32.637 31.2625 33.9497 29.9497L31.1213 27.1213ZM29 28H8.17V32H29V28ZM6.28438 30.6667C6.62919 31.6419 7.26799 32.4862 8.11275 33.0832L10.4213 29.8166C10.2523 29.6972 10.1246 29.5284 10.0556 29.3333L6.28438 30.6667ZM8.11275 33.0832C8.9575 33.6802 9.96663 34.0005 11.001 34L10.999 30C10.7921 30.0001 10.5902 29.936 10.4213 29.8166L8.11275 33.0832ZM11 34H29V30H11V34ZM29 34C31.3869 34 33.6761 33.0518 35.364 31.364L32.5355 28.5355C31.5979 29.4732 30.3261 30 29 30V34ZM35.364 31.364C37.0518 29.6761 38 27.3869 38 25H34C34 26.3261 33.4732 27.5979 32.5355 28.5355L35.364 31.364ZM38 25V15H34V25H38ZM38 15.001C38.0005 13.9666 37.6802 12.9575 37.0832 12.1127L33.8166 14.4213C33.936 14.5902 34.0001 14.7921 34 14.999L38 15.001ZM37.0832 12.1127C36.4862 11.268 35.6419 10.6292 34.6667 10.2844L33.3333 14.0556C33.5284 14.1246 33.6972 14.2523 33.8166 14.4213L37.0832 12.1127ZM32 12.17V25H36V12.17H32Z" fill="#1882D6" mask="url(#path-1-inside-1_912_41229)"/>
</svg>
