<svg width="42" height="42" viewBox="0 0 42 42" fill="none" xmlns="http://www.w3.org/2000/svg">
<path d="M19.586 27.5747C19.586 26.0347 19.1835 24.7432 18.3785 23.695C17.808 22.974 17.0345 22.4997 16.0563 22.274C15.0938 22.05 14.1838 22.0342 13.3613 22.225C13.0813 20.5625 13.5363 18.802 14.6913 16.9365C15.8463 15.0728 17.3425 13.6693 19.1678 12.7313L16.401 8.75C15.001 9.443 13.671 10.3215 12.446 11.3838C11.2035 12.446 10.101 13.6675 9.121 15.0483C8.141 16.429 7.406 17.9882 6.9335 19.7557C6.461 21.5232 6.32975 23.3258 6.5555 25.1807C6.8495 27.6308 7.6405 29.5907 8.9285 31.0433C10.2148 32.515 11.8195 33.25 13.7375 33.25C15.4263 33.25 16.828 32.7425 17.9375 31.7135C19.0365 30.7055 19.5825 29.3247 19.5825 27.5695L19.586 27.5747ZM35.553 27.5747C35.553 26.0347 35.1505 24.7432 34.3455 23.695C33.775 22.96 32.998 22.484 32.0233 22.2652C31.0433 22.0482 30.1455 22.0378 29.3283 22.2268C29.0483 20.5817 29.4858 18.8142 30.6443 16.9417C31.7993 15.0867 33.292 13.6868 35.1173 12.7418L32.3575 8.75C30.9575 9.443 29.6363 10.3215 28.4025 11.3838C27.1487 12.4617 26.0351 13.6929 25.088 15.0483C24.115 16.4307 23.3905 17.9882 22.918 19.7557C22.4399 21.5222 22.3109 23.3649 22.5383 25.1807C22.8288 27.6308 23.6163 29.5907 24.9008 31.0433C26.1835 32.5028 27.783 33.2342 29.701 33.2342C31.3933 33.2342 32.795 32.7268 33.9045 31.6995C35.0018 30.6915 35.553 29.3108 35.553 27.5555V27.5747Z" fill="#C1D1DA"/>
</svg>
