<svg width="40" height="40" viewBox="0 0 40 40" fill="none" xmlns="http://www.w3.org/2000/svg">
<path d="M24.4833 30.83C23.6367 31.18 23.0083 31.9133 22.7917 32.805C22.0817 35.7317 17.9183 35.7317 17.2083 32.805C17.1018 32.3653 16.893 31.957 16.5988 31.6133C16.3047 31.2696 15.9335 31.0002 15.5156 30.8271C15.0976 30.6539 14.6447 30.5819 14.1937 30.6169C13.7427 30.6519 13.3063 30.7928 12.92 31.0283C10.3483 32.595 7.40333 29.6517 8.97 27.0783C9.20517 26.6922 9.34592 26.2561 9.38081 25.8054C9.41569 25.3547 9.34374 24.9021 9.17079 24.4844C8.99783 24.0667 8.72877 23.6957 8.38545 23.4016C8.04214 23.1075 7.63427 22.8985 7.195 22.7917C4.26833 22.0817 4.26833 17.9183 7.195 17.2083C7.63467 17.1018 8.04296 16.893 8.38667 16.5988C8.73037 16.3047 8.99976 15.9335 9.17291 15.5156C9.34606 15.0976 9.41808 14.6447 9.38311 14.1937C9.34814 13.7427 9.20717 13.3063 8.97167 12.92C7.405 10.3483 10.3483 7.40333 12.9217 8.97C14.5883 9.98333 16.7483 9.08667 17.2083 7.195C17.9183 4.26833 22.0817 4.26833 22.7917 7.195C22.8982 7.63467 23.107 8.04296 23.4012 8.38667C23.6953 8.73037 24.0665 8.99976 24.4844 9.17291C24.9024 9.34606 25.3553 9.41808 25.8063 9.38311C26.2573 9.34814 26.6937 9.20717 27.08 8.97167C29.6517 7.405 32.5967 10.3483 31.03 12.9217C30.7948 13.3078 30.6541 13.7439 30.6192 14.1946C30.5843 14.6453 30.6563 15.0979 30.8292 15.5156C31.0022 15.9333 31.2712 16.3043 31.6145 16.5984C31.9579 16.8925 32.3657 17.1015 32.805 17.2083C33.2395 17.3042 33.6447 17.5029 33.9866 17.7876C34.3285 18.0724 34.5971 18.435 34.77 18.845" stroke="#1882D6" stroke-width="2" stroke-linecap="round" stroke-linejoin="round"/>
<path d="M24.9141 20.9208C25.1283 19.7801 24.939 18.6004 24.3787 17.5841C23.8183 16.5677 22.9218 15.7779 21.8429 15.3501C20.764 14.9223 19.5699 14.8832 18.4653 15.2394C17.3607 15.5956 16.4145 16.3251 15.7888 17.3026C15.1631 18.2801 14.897 19.4449 15.036 20.5971C15.1751 21.7494 15.7107 22.8174 16.5509 23.618C17.3912 24.4186 18.4838 24.902 19.6415 24.9852C20.7991 25.0684 21.9496 24.7463 22.8958 24.0741M31.6641 36.6658V36.6825M31.6641 31.6658C32.4113 31.6634 33.1361 31.4104 33.7224 30.9474C34.3088 30.4843 34.7229 29.8379 34.8984 29.1117C35.0739 28.3854 35.0007 27.6213 34.6905 26.9416C34.3803 26.2618 33.8511 25.7058 33.1875 25.3625C32.5244 25.0228 31.766 24.9175 31.0355 25.0637C30.305 25.2098 29.6454 25.5988 29.1641 26.1675" stroke="#1882D6" stroke-width="2" stroke-linecap="round" stroke-linejoin="round"/>
</svg>
