<svg width="40" height="40" viewBox="0 0 40 40" fill="none" xmlns="http://www.w3.org/2000/svg">
<path d="M24.4833 30.83C23.6367 31.18 23.0083 31.9133 22.7917 32.805C22.0817 35.7317 17.9183 35.7317 17.2083 32.805C17.1018 32.3653 16.893 31.957 16.5988 31.6133C16.3047 31.2696 15.9335 31.0002 15.5156 30.8271C15.0976 30.6539 14.6447 30.5819 14.1937 30.6169C13.7427 30.6519 13.3063 30.7928 12.92 31.0283C10.3483 32.595 7.40333 29.6517 8.97 27.0783C9.20517 26.6922 9.34592 26.2561 9.38081 25.8054C9.41569 25.3547 9.34374 24.9021 9.17079 24.4844C8.99783 24.0667 8.72877 23.6957 8.38545 23.4016C8.04214 23.1075 7.63427 22.8985 7.195 22.7917C4.26833 22.0817 4.26833 17.9183 7.195 17.2083C7.63467 17.1018 8.04296 16.893 8.38667 16.5988C8.73037 16.3047 8.99976 15.9335 9.17291 15.5156C9.34606 15.0976 9.41808 14.6447 9.38311 14.1937C9.34814 13.7427 9.20717 13.3063 8.97167 12.92C7.405 10.3483 10.3483 7.40333 12.9217 8.97C14.5883 9.98333 16.7483 9.08667 17.2083 7.195C17.9183 4.26833 22.0817 4.26833 22.7917 7.195C22.8982 7.63467 23.107 8.04296 23.4012 8.38667C23.6953 8.73037 24.0665 8.99976 24.4844 9.17291C24.9024 9.34606 25.3553 9.41808 25.8063 9.38311C26.2573 9.34814 26.6937 9.20717 27.08 8.97167C29.6517 7.405 32.5967 10.3483 31.03 12.9217C30.7948 13.3078 30.6541 13.7439 30.6192 14.1946C30.5843 14.6453 30.6563 15.0979 30.8292 15.5156C31.0022 15.9333 31.2712 16.3043 31.6145 16.5984C31.9579 16.8925 32.3657 17.1015 32.805 17.2083C33.2395 17.3042 33.6447 17.5029 33.9866 17.7876C34.3285 18.0724 34.5971 18.435 34.77 18.845" stroke="#1882D6" stroke-width="2" stroke-linecap="round" stroke-linejoin="round"/>
<path d="M24.918 20.9218C25.1322 19.7811 24.9429 18.6014 24.3826 17.585C23.8222 16.5686 22.9257 15.7788 21.8468 15.3511C20.7679 14.9233 19.5738 14.8841 18.4692 15.2404C17.3646 15.5966 16.4184 16.326 15.7927 17.3036C15.167 18.2811 14.9009 19.4458 15.0399 20.5981C15.179 21.7504 15.7146 22.8184 16.5549 23.619C17.3951 24.4196 18.4877 24.9029 19.6454 24.9862C20.803 25.0694 21.9535 24.7473 22.8997 24.0751M31.668 36.6668V36.6834M31.668 31.6668C32.4152 31.6644 33.14 31.4114 33.7263 30.9484C34.3127 30.4853 34.7268 29.8389 34.9023 29.1127C35.0778 28.3864 35.0046 27.6223 34.6944 26.9425C34.3842 26.2628 33.855 25.7068 33.1914 25.3634C32.5283 25.0238 31.7699 24.9185 31.0394 25.0646C30.3089 25.2108 29.6493 25.5998 29.168 26.1684" stroke="#1882D6" stroke-width="2" stroke-linecap="round" stroke-linejoin="round"/>
</svg>
