<svg width="49" height="49" viewBox="0 0 49 49" fill="none" xmlns="http://www.w3.org/2000/svg">
<path d="M24.168 6.38867C23.1237 6.38867 22.1222 6.80351 21.3837 7.54194C20.6453 8.28036 20.2305 9.28188 20.2305 10.3262C20.2305 11.3705 20.6453 12.372 21.3837 13.1104C22.1222 13.8488 23.1237 14.2637 24.168 14.2637C25.2123 14.2637 26.2138 13.8488 26.9522 13.1104C27.6906 12.372 28.1055 11.3705 28.1055 10.3262C28.1055 9.28188 27.6906 8.28036 26.9522 7.54194C26.2138 6.80351 25.2123 6.38867 24.168 6.38867ZM17.6055 10.3262C17.6055 8.58569 18.2969 6.91649 19.5276 5.68578C20.7583 4.45508 22.4275 3.76367 24.168 3.76367C25.9085 3.76367 27.5777 4.45508 28.8084 5.68578C30.0391 6.91649 30.7305 8.58569 30.7305 10.3262C30.7305 12.0667 30.0391 13.7359 28.8084 14.9666C27.5777 16.1973 25.9085 16.8887 24.168 16.8887C22.4275 16.8887 20.7583 16.1973 19.5276 14.9666C18.2969 13.7359 17.6055 12.0667 17.6055 10.3262ZM38.6055 9.01367C37.9093 9.01367 37.2416 9.29023 36.7493 9.78252C36.257 10.2748 35.9805 10.9425 35.9805 11.6387C35.9805 12.3349 36.257 13.0025 36.7493 13.4948C37.2416 13.9871 37.9093 14.2637 38.6055 14.2637C39.3017 14.2637 39.9693 13.9871 40.4616 13.4948C40.9539 13.0025 41.2305 12.3349 41.2305 11.6387C41.2305 10.9425 40.9539 10.2748 40.4616 9.78252C39.9693 9.29023 39.3017 9.01367 38.6055 9.01367ZM33.3555 11.6387C33.3555 10.2463 33.9086 8.91093 34.8932 7.92636C35.8777 6.9418 37.2131 6.38867 38.6055 6.38867C39.9979 6.38867 41.3332 6.9418 42.3178 7.92636C43.3023 8.91093 43.8555 10.2463 43.8555 11.6387C43.8555 13.0311 43.3023 14.3664 42.3178 15.351C41.3332 16.3355 39.9979 16.8887 38.6055 16.8887C37.2131 16.8887 35.8777 16.3355 34.8932 15.351C33.9086 14.3664 33.3555 13.0311 33.3555 11.6387ZM7.10547 11.6387C7.10547 10.9425 7.38203 10.2748 7.87431 9.78252C8.3666 9.29023 9.03428 9.01367 9.73047 9.01367C10.4267 9.01367 11.0943 9.29023 11.5866 9.78252C12.0789 10.2748 12.3555 10.9425 12.3555 11.6387C12.3555 12.3349 12.0789 13.0025 11.5866 13.4948C11.0943 13.9871 10.4267 14.2637 9.73047 14.2637C9.03428 14.2637 8.3666 13.9871 7.87431 13.4948C7.38203 13.0025 7.10547 12.3349 7.10547 11.6387ZM9.73047 6.38867C8.33808 6.38867 7.00272 6.9418 6.01816 7.92636C5.03359 8.91093 4.48047 10.2463 4.48047 11.6387C4.48047 13.0311 5.03359 14.3664 6.01816 15.351C7.00272 16.3355 8.33808 16.8887 9.73047 16.8887C11.1229 16.8887 12.4582 16.3355 13.4428 15.351C14.4273 14.3664 14.9805 13.0311 14.9805 11.6387C14.9805 10.2463 14.4273 8.91093 13.4428 7.92636C12.4582 6.9418 11.1229 6.38867 9.73047 6.38867ZM11.3055 37.8834C10.5947 37.919 9.88413 37.8097 9.21691 37.5622C8.54969 37.3147 7.93976 36.9341 7.42418 36.4435C6.9086 35.953 6.49813 35.3627 6.21772 34.7087C5.9373 34.0546 5.79279 33.3503 5.79297 32.6387V22.7949C5.79297 22.6209 5.86211 22.454 5.98518 22.3309C6.10825 22.2078 6.27517 22.1387 6.44922 22.1387H11.0797C11.1847 21.1753 11.526 20.2802 12.0378 19.5137H6.44922C4.63797 19.5137 3.16797 20.9837 3.16797 22.7949V32.6387C3.16785 33.7625 3.40826 34.8733 3.87305 35.8965C4.33784 36.9197 5.01624 37.8316 5.86268 38.5708C6.70911 39.3101 7.70396 39.8596 8.78039 40.1825C9.85682 40.5054 10.9899 40.5941 12.1035 40.4428C11.7502 39.6194 11.4827 38.7617 11.3055 37.8834ZM36.2325 40.4428C37.346 40.5941 38.4791 40.5054 39.5555 40.1825C40.632 39.8596 41.6268 39.3101 42.4733 38.5708C43.3197 37.8316 43.9981 36.9197 44.4629 35.8965C44.9277 34.8733 45.1681 33.7625 45.168 32.6387V22.7949C45.168 20.9837 43.698 19.5137 41.8867 19.5137H36.2981C36.8126 20.2802 37.1512 21.1753 37.2562 22.1387H41.8867C42.0608 22.1387 42.2277 22.2078 42.3508 22.3309C42.4738 22.454 42.543 22.6209 42.543 22.7949V32.6387C42.5431 33.3503 42.3986 34.0546 42.1182 34.7087C41.8378 35.3627 41.4273 35.953 40.9118 36.4435C40.3962 36.9341 39.7863 37.3147 39.119 37.5622C38.4518 37.8097 37.7412 37.919 37.0305 37.8834C36.8531 38.7617 36.5857 39.6194 36.2325 40.4428ZM16.9492 19.5137C15.138 19.5137 13.668 20.9837 13.668 22.7949V35.2637C13.668 38.0484 14.7742 40.7192 16.7433 42.6883C18.7125 44.6574 21.3832 45.7637 24.168 45.7637C26.9527 45.7637 29.6235 44.6574 31.5926 42.6883C33.5617 40.7192 34.668 38.0484 34.668 35.2637V22.7949C34.668 20.9837 33.198 19.5137 31.3867 19.5137H16.9492ZM16.293 22.7949C16.293 22.6209 16.3621 22.454 16.4852 22.3309C16.6083 22.2078 16.7752 22.1387 16.9492 22.1387H31.3867C31.5608 22.1387 31.7277 22.2078 31.8508 22.3309C31.9738 22.454 32.043 22.6209 32.043 22.7949V35.2637C32.043 37.3523 31.2133 39.3553 29.7364 40.8321C28.2596 42.309 26.2565 43.1387 24.168 43.1387C22.0794 43.1387 20.0764 42.309 18.5995 40.8321C17.1227 39.3553 16.293 37.3523 16.293 35.2637V22.7949Z" fill="url(#paint0_linear_763_29882)"/>
<defs>
<linearGradient id="paint0_linear_763_29882" x1="24.168" y1="3.76367" x2="24.168" y2="45.7637" gradientUnits="userSpaceOnUse">
<stop stop-color="#1882D6"/>
<stop offset="1" stop-color="#2BA1FF"/>
</linearGradient>
</defs>
</svg>
