<svg width="60" height="60" viewBox="0 0 60 60" fill="none" xmlns="http://www.w3.org/2000/svg">
<path d="M30 12.5C35.6359 12.5 41.0409 14.7388 45.026 18.724C49.0112 22.7091 51.25 28.1141 51.25 33.75C51.25 39.3858 49.0112 44.7909 45.026 48.776C41.0409 52.7612 35.6359 55 30 55C24.3641 55 18.9591 52.7612 14.974 48.776C10.9888 44.7909 8.75 39.3858 8.75 33.75C8.75 28.1141 10.9888 22.7091 14.974 18.724C18.9591 14.7388 24.3641 12.5 30 12.5ZM30 16.25C25.3587 16.25 20.9075 18.0937 17.6256 21.3756C14.3437 24.6575 12.5 29.1087 12.5 33.75C12.5 38.3913 14.3437 42.8425 17.6256 46.1244C20.9075 49.4063 25.3587 51.25 30 51.25C34.6413 51.25 39.0925 49.4063 42.3744 46.1244C45.6563 42.8425 47.5 38.3913 47.5 33.75C47.5 29.1087 45.6563 24.6575 42.3744 21.3756C39.0925 18.0937 34.6413 16.25 30 16.25ZM30 20C30.4531 20 30.8909 20.1641 31.2323 20.4619C31.5738 20.7597 31.7959 21.1711 31.8575 21.62L31.875 21.875V33.125C31.8749 33.6001 31.6944 34.0574 31.3701 34.4045C31.0457 34.7516 30.6018 34.9627 30.1278 34.9951C29.6538 35.0274 29.1853 34.8787 28.8168 34.5789C28.4482 34.2791 28.2073 33.8506 28.1425 33.38L28.125 33.125V21.875C28.125 21.3777 28.3225 20.9008 28.6742 20.5492C29.0258 20.1975 29.5027 20 30 20ZM47.8675 12.785L48.075 12.935L50.97 15.345C51.3325 15.6499 51.5662 16.0806 51.6241 16.5507C51.682 17.0208 51.5598 17.4954 51.2822 17.8791C51.0045 18.2629 50.5919 18.5273 50.1273 18.6193C49.6627 18.7113 49.1804 18.624 48.7775 18.375L48.5725 18.225L45.675 15.815C45.3125 15.5101 45.0788 15.0794 45.0209 14.6093C44.963 14.1392 45.0852 13.6646 45.3628 13.2809C45.6405 12.8971 46.0531 12.6327 46.5177 12.5407C46.9823 12.4487 47.4646 12.536 47.8675 12.785ZM35.625 6.25C36.1001 6.25015 36.5574 6.43061 36.9045 6.75493C37.2516 7.07925 37.4627 7.52325 37.4951 7.9972C37.5274 8.47115 37.3787 8.93973 37.0789 9.30825C36.7791 9.67676 36.3506 9.91775 35.88 9.9825L35.625 10H24.375C23.8999 9.99985 23.4426 9.81939 23.0955 9.49507C22.7484 9.17075 22.5373 8.72675 22.5049 8.2528C22.4726 7.77885 22.6213 7.31027 22.9211 6.94175C23.2209 6.57324 23.6494 6.33225 24.12 6.2675L24.375 6.25H35.625Z" fill="url(#paint0_linear_749_33191)"/>
<defs>
<linearGradient id="paint0_linear_749_33191" x1="30.1941" y1="6.25" x2="30.1941" y2="55" gradientUnits="userSpaceOnUse">
<stop stop-color="#1882D6"/>
<stop offset="1" stop-color="#2BA1FF"/>
</linearGradient>
</defs>
</svg>
