<svg width="49" height="49" viewBox="0 0 49 49" fill="none" xmlns="http://www.w3.org/2000/svg">
<path d="M45.5939 42.3297C42.5216 37.0693 37.787 33.2972 32.2617 31.5091C34.9948 29.8977 37.1182 27.4423 38.3059 24.52C39.4936 21.5977 39.6799 18.3701 38.8361 15.3327C37.9924 12.2954 36.1653 9.61641 33.6354 7.70708C31.1055 5.79774 28.0127 4.76367 24.832 4.76367C21.6513 4.76367 18.5585 5.79774 16.0287 7.70708C13.4988 9.61641 11.6717 12.2954 10.8279 15.3327C9.98419 18.3701 10.1705 21.5977 11.3582 24.52C12.5459 27.4423 14.6693 29.8977 17.4024 31.5091C11.877 33.2952 7.14247 37.0673 4.07014 42.3297C3.95748 42.5117 3.88275 42.7141 3.85036 42.9252C3.81797 43.1362 3.82859 43.3515 3.88158 43.5584C3.93457 43.7652 4.02886 43.9595 4.15889 44.1297C4.28892 44.2999 4.45205 44.4426 4.63866 44.5494C4.82528 44.6561 5.03159 44.7248 5.24543 44.7513C5.45927 44.7778 5.6763 44.7616 5.88373 44.7037C6.09115 44.6458 6.28476 44.5473 6.45314 44.4141C6.62151 44.2809 6.76124 44.1156 6.86408 43.9281C10.6646 37.4229 17.3822 33.539 24.832 33.539C32.2819 33.539 38.9994 37.4229 42.8 43.9281C42.9028 44.1156 43.0425 44.2809 43.2109 44.4141C43.3793 44.5473 43.5729 44.6458 43.7803 44.7037C43.9878 44.7616 44.2048 44.7778 44.4186 44.7513C44.6325 44.7248 44.8388 44.6561 45.0254 44.5494C45.212 44.4426 45.3751 44.2999 45.5052 44.1297C45.6352 43.9595 45.7295 43.7652 45.7825 43.5584C45.8355 43.3515 45.8461 43.1362 45.8137 42.9252C45.7813 42.7141 45.7066 42.5117 45.5939 42.3297ZM13.5352 19.154C13.5352 16.9412 14.1978 14.7781 15.4391 12.9382C16.6804 11.0983 18.4447 9.66423 20.5089 8.81741C22.5732 7.9706 24.8446 7.74903 27.0359 8.18074C29.2273 8.61244 31.2402 9.67802 32.8201 11.2427C34.4 12.8074 35.4759 14.801 35.9118 16.9713C36.3476 19.1416 36.1239 21.3912 35.2689 23.4356C34.4139 25.48 32.9659 27.2274 31.1082 28.4567C29.2504 29.6861 27.0663 30.3423 24.832 30.3423C21.8369 30.3391 18.9654 29.1594 16.8475 27.0618C14.7297 24.9643 13.5384 22.1204 13.5352 19.154Z" fill="url(#paint0_linear_763_29887)"/>
<defs>
<linearGradient id="paint0_linear_763_29887" x1="24.832" y1="4.76367" x2="24.832" y2="44.7637" gradientUnits="userSpaceOnUse">
<stop stop-color="#1882D6"/>
<stop offset="1" stop-color="#2BA1FF"/>
</linearGradient>
</defs>
</svg>
