<svg width="40" height="40" viewBox="0 0 40 40" fill="none" xmlns="http://www.w3.org/2000/svg">
<path d="M17.6191 31.5266L7.78681 31.5266C5.32724 31.5266 3.33335 29.5327 3.33335 27.0731L3.33335 15.0277C3.33335 12.5681 5.32723 10.5742 7.78681 10.5742L27.4513 10.5742C29.9109 10.5742 31.9048 12.5681 31.9048 15.0277L31.9048 21.0504" stroke="#1882D6" stroke-width="1.66667" stroke-linecap="round"/>
<path d="M10.9673 30.5726V31.5101H12.8423V30.5726H10.9673ZM17.8307 21.0488V20.1113V21.0488ZM22.8191 27.7155C22.8191 28.2333 23.2389 28.653 23.7566 28.653C24.2744 28.653 24.6941 28.2333 24.6941 27.7155H22.8191ZM12.8423 30.5726V26.8822H10.9673V30.5726H12.8423ZM12.8423 26.8822C12.8423 25.5885 13.3642 24.3448 14.2981 23.4255L12.9828 22.0893C11.694 23.3579 10.9673 25.0816 10.9673 26.8822H12.8423ZM14.2981 23.4255C15.2325 22.5057 16.503 21.9863 17.8307 21.9863V20.1113C16.0151 20.1113 14.271 20.8212 12.9828 22.0893L14.2981 23.4255ZM17.8307 21.9863C19.1584 21.9863 20.4289 22.5057 21.3633 23.4255L22.6786 22.0893C21.3904 20.8212 19.6463 20.1113 17.8307 20.1113V21.9863ZM21.3633 23.4255C22.2972 24.3448 22.8191 25.5885 22.8191 26.8822H24.6941C24.6941 25.0816 23.9674 23.3579 22.6786 22.0893L21.3633 23.4255ZM22.8191 26.8822V27.7155H24.6941V26.8822H22.8191Z" fill="#1882D6"/>
<path d="M17.8306 21.0495C18.7287 21.0495 19.59 20.6983 20.225 20.0732C20.8601 19.448 21.2168 18.6002 21.2168 17.7161C21.2168 16.8321 20.8601 15.9842 20.225 15.3591C19.59 14.734 18.7287 14.3828 17.8306 14.3828C16.9325 14.3828 16.0712 14.734 15.4361 15.3591C14.8011 15.9842 14.4443 16.8321 14.4443 17.7161C14.4443 18.6002 14.8011 19.448 15.4361 20.0732C16.0712 20.6983 16.9325 21.0495 17.8306 21.0495Z" stroke="#1882D6" stroke-width="1.875" stroke-linecap="round" stroke-linejoin="round"/>
<path d="M28.6966 23.0061C28.6362 22.972 28.5674 22.9537 28.4971 22.9531C28.4269 22.9526 28.3578 22.9697 28.2967 23.0027C28.2357 23.0358 28.1849 23.0837 28.1496 23.1414C28.1143 23.1992 28.0957 23.2648 28.0957 23.3316V32.0984C28.0957 32.1652 28.1143 32.2309 28.1496 32.2886C28.1849 32.3464 28.2357 32.3943 28.2967 32.4273C28.3578 32.4604 28.4269 32.4775 28.4971 32.4769C28.5674 32.4763 28.6362 32.4581 28.6966 32.424L36.4722 28.0406C36.5316 28.0071 36.5808 27.9594 36.615 27.9024C36.6492 27.8453 36.6671 27.7807 36.6671 27.715C36.6671 27.6493 36.6492 27.5848 36.615 27.5277C36.5808 27.4706 36.5316 27.423 36.4722 27.3894L28.6966 23.0061Z" fill="#1882D6" stroke="#1882D6" stroke-width="1.5625" stroke-linecap="round" stroke-linejoin="round"/>
</svg>
